<?xml version="1.0" standalone="no"?>
 <!DOCTYPE svg PUBLIC "-//W3C//DTD SVG 1.1//EN" 
 "http://www.w3.org/Graphics/SVG/1.1/DTD/svg11.dtd"> 
<svg xmlns="http://www.w3.org/2000/svg" version="1.1" 
    width="6.3754cm" height="6.15188cm" viewBox="0 0 25100 24220 ">
<title>SVG Picture created as huey-brd.svg date 2018/04/08 22:44:11 </title>
  <desc>Picture generated by PCBNEW </desc>
<g style="fill:#000000; fill-opacity:1;stroke:#000000; stroke-opacity:1;
stroke-linecap:round; stroke-linejoin:round; "
 transform="translate(0 0) scale(1 1)">
</g>
<g style="fill:#000000; fill-opacity:0.0; 
stroke:#000000; stroke-width:-0.000393701; stroke-opacity:1; 
stroke-linecap:round; stroke-linejoin:round;">
</g>
<g style="fill:#840000; fill-opacity:0.0; 
stroke:#840000; stroke-width:-0.000393701; stroke-opacity:1; 
stroke-linecap:round; stroke-linejoin:round;">
</g>
<g style="fill:#840000; fill-opacity:0.0; 
stroke:#840000; stroke-width:0; stroke-opacity:1; 
stroke-linecap:round; stroke-linejoin:round;">
</g>
<g style="fill:#840000; fill-opacity:1.0; 
stroke:#840000; stroke-width:0; stroke-opacity:1; 
stroke-linecap:round; stroke-linejoin:round;">
<polyline style="fill-rule:evenodd;"
points="13840,19687
13840,18887
14640,18887
14640,19687
13840,19687
" /> 
</g>
<g style="fill:#840000; fill-opacity:1.0; 
stroke:#840000; stroke-width:800; stroke-opacity:1; 
stroke-linecap:round; stroke-linejoin:round;">
</g>
<g style="fill:#840000; fill-opacity:0.0; 
stroke:#840000; stroke-width:800; stroke-opacity:1; 
stroke-linecap:round; stroke-linejoin:round;">
<path d="M14240 20287
L14240 20287
" />
</g>
<g style="fill:#840000; fill-opacity:0.0; 
stroke:#840000; stroke-width:0; stroke-opacity:1; 
stroke-linecap:round; stroke-linejoin:round;">
</g>
<g style="fill:#840000; fill-opacity:1.0; 
stroke:#840000; stroke-width:0; stroke-opacity:1; 
stroke-linecap:round; stroke-linejoin:round;">
<polyline style="fill-rule:evenodd;"
points="2340,17937
2340,17137
3140,17137
3140,17937
2340,17937
" /> 
</g>
<g style="fill:#840000; fill-opacity:1.0; 
stroke:#840000; stroke-width:800; stroke-opacity:1; 
stroke-linecap:round; stroke-linejoin:round;">
</g>
<g style="fill:#840000; fill-opacity:0.0; 
stroke:#840000; stroke-width:800; stroke-opacity:1; 
stroke-linecap:round; stroke-linejoin:round;">
<path d="M2740 18537
L2740 18537
" />
</g>
<g style="fill:#840000; fill-opacity:0.0; 
stroke:#840000; stroke-width:0; stroke-opacity:1; 
stroke-linecap:round; stroke-linejoin:round;">
</g>
<g style="fill:#840000; fill-opacity:1.0; 
stroke:#840000; stroke-width:0; stroke-opacity:1; 
stroke-linecap:round; stroke-linejoin:round;">
<polyline style="fill-rule:evenodd;"
points="2340,9627
2340,8947
3140,8947
3140,9627
2340,9627
" /> 
</g>
<g style="fill:#840000; fill-opacity:1.0; 
stroke:#840000; stroke-width:680; stroke-opacity:1; 
stroke-linecap:round; stroke-linejoin:round;">
</g>
<g style="fill:#840000; fill-opacity:0.0; 
stroke:#840000; stroke-width:680; stroke-opacity:1; 
stroke-linecap:round; stroke-linejoin:round;">
<path d="M2680 10287
L2800 10287
" />
<path d="M2680 11287
L2800 11287
" />
<path d="M2680 12287
L2800 12287
" />
<path d="M2680 13287
L2800 13287
" />
<path d="M2680 14287
L2800 14287
" />
</g>
<g style="fill:#840000; fill-opacity:1.0; 
stroke:#840000; stroke-width:0; stroke-opacity:1; 
stroke-linecap:round; stroke-linejoin:round;">
<circle cx="10240.7" cy="6537.4" r="700" /> 
</g>
<g style="fill:#840000; fill-opacity:1.0; 
stroke:#840000; stroke-width:78.7402; stroke-opacity:1; 
stroke-linecap:round; stroke-linejoin:round;">
</g>
<g style="fill:#840000; fill-opacity:1.0; 
stroke:#840000; stroke-width:680; stroke-opacity:1; 
stroke-linecap:round; stroke-linejoin:round;">
</g>
<g style="fill:#840000; fill-opacity:0.0; 
stroke:#840000; stroke-width:680; stroke-opacity:1; 
stroke-linecap:round; stroke-linejoin:round;">
<path d="M8740 6477
L8740 6597
" />
</g>
<g style="fill:#840000; fill-opacity:1.0; 
stroke:#840000; stroke-width:0; stroke-opacity:1; 
stroke-linecap:round; stroke-linejoin:round;">
<circle cx="7240.72" cy="6537.4" r="700" /> 
</g>
<g style="fill:#840000; fill-opacity:1.0; 
stroke:#840000; stroke-width:78.7402; stroke-opacity:1; 
stroke-linecap:round; stroke-linejoin:round;">
</g>
<g style="fill:#840000; fill-opacity:1.0; 
stroke:#840000; stroke-width:0; stroke-opacity:1; 
stroke-linecap:round; stroke-linejoin:round;">
<circle cx="2469.07" cy="20551.2" r="700" /> 
</g>
<g style="fill:#840000; fill-opacity:1.0; 
stroke:#840000; stroke-width:78.7402; stroke-opacity:1; 
stroke-linecap:round; stroke-linejoin:round;">
</g>
<g style="fill:#840000; fill-opacity:1.0; 
stroke:#840000; stroke-width:0; stroke-opacity:1; 
stroke-linecap:round; stroke-linejoin:round;">
<circle cx="19004.5" cy="4015.75" r="700" /> 
</g>
<g style="fill:#840000; fill-opacity:1.0; 
stroke:#840000; stroke-width:78.7402; stroke-opacity:1; 
stroke-linecap:round; stroke-linejoin:round;">
</g>
<g style="fill:#840000; fill-opacity:1.0; 
stroke:#840000; stroke-width:0; stroke-opacity:1; 
stroke-linecap:round; stroke-linejoin:round;">
<circle cx="2469.07" cy="4015.75" r="700" /> 
</g>
<g style="fill:#840000; fill-opacity:1.0; 
stroke:#840000; stroke-width:78.7402; stroke-opacity:1; 
stroke-linecap:round; stroke-linejoin:round;">
</g>
<g style="fill:#840000; fill-opacity:1.0; 
stroke:#840000; stroke-width:0; stroke-opacity:1; 
stroke-linecap:round; stroke-linejoin:round;">
<circle cx="19004.5" cy="20551.2" r="700" /> 
</g>
<g style="fill:#840000; fill-opacity:1.0; 
stroke:#840000; stroke-width:78.7402; stroke-opacity:1; 
stroke-linecap:round; stroke-linejoin:round;">
</g>
<g style="fill:#840000; fill-opacity:1.0; 
stroke:#840000; stroke-width:0; stroke-opacity:1; 
stroke-linecap:round; stroke-linejoin:round;">
<circle cx="17240.7" cy="11606.3" r="590.551" /> 
</g>
<g style="fill:#840000; fill-opacity:1.0; 
stroke:#840000; stroke-width:78.7402; stroke-opacity:1; 
stroke-linecap:round; stroke-linejoin:round;">
</g>
<g style="fill:#C2C2C2; fill-opacity:1.0; 
stroke:#C2C2C2; stroke-width:78.7402; stroke-opacity:1; 
stroke-linecap:round; stroke-linejoin:round;">
</g>
<g style="fill:#C2C2C2; fill-opacity:1.0; 
stroke:#C2C2C2; stroke-width:0; stroke-opacity:1; 
stroke-linecap:round; stroke-linejoin:round;">
<circle cx="8490.72" cy="16287.4" r="118.11" /> 
</g>
<g style="fill:#C2C2C2; fill-opacity:1.0; 
stroke:#C2C2C2; stroke-width:78.7402; stroke-opacity:1; 
stroke-linecap:round; stroke-linejoin:round;">
</g>
<g style="fill:#C2C2C2; fill-opacity:1.0; 
stroke:#C2C2C2; stroke-width:0; stroke-opacity:1; 
stroke-linecap:round; stroke-linejoin:round;">
<circle cx="7490.72" cy="16287.4" r="118.11" /> 
</g>
<g style="fill:#C2C2C2; fill-opacity:1.0; 
stroke:#C2C2C2; stroke-width:78.7402; stroke-opacity:1; 
stroke-linecap:round; stroke-linejoin:round;">
</g>
<g style="fill:#C2C2C2; fill-opacity:1.0; 
stroke:#C2C2C2; stroke-width:0; stroke-opacity:1; 
stroke-linecap:round; stroke-linejoin:round;">
<circle cx="8490.72" cy="18037.4" r="118.11" /> 
</g>
<g style="fill:#C2C2C2; fill-opacity:1.0; 
stroke:#C2C2C2; stroke-width:78.7402; stroke-opacity:1; 
stroke-linecap:round; stroke-linejoin:round;">
</g>
<g style="fill:#C2C2C2; fill-opacity:1.0; 
stroke:#C2C2C2; stroke-width:0; stroke-opacity:1; 
stroke-linecap:round; stroke-linejoin:round;">
<circle cx="6240.72" cy="18037.4" r="118.11" /> 
</g>
<g style="fill:#C2C2C2; fill-opacity:1.0; 
stroke:#C2C2C2; stroke-width:78.7402; stroke-opacity:1; 
stroke-linecap:round; stroke-linejoin:round;">
</g>
<g style="fill:#C2C2C2; fill-opacity:1.0; 
stroke:#C2C2C2; stroke-width:0; stroke-opacity:1; 
stroke-linecap:round; stroke-linejoin:round;">
<circle cx="10990.7" cy="15787.4" r="118.11" /> 
</g>
<g style="fill:#C2C2C2; fill-opacity:1.0; 
stroke:#C2C2C2; stroke-width:78.7402; stroke-opacity:1; 
stroke-linecap:round; stroke-linejoin:round;">
</g>
<g style="fill:#C2C2C2; fill-opacity:1.0; 
stroke:#C2C2C2; stroke-width:0; stroke-opacity:1; 
stroke-linecap:round; stroke-linejoin:round;">
<circle cx="10990.7" cy="14787.4" r="118.11" /> 
</g>
<g style="fill:#C2C2C2; fill-opacity:1.0; 
stroke:#C2C2C2; stroke-width:78.7402; stroke-opacity:1; 
stroke-linecap:round; stroke-linejoin:round;">
</g>
<g style="fill:#008400; fill-opacity:1.0; 
stroke:#008400; stroke-width:78.7402; stroke-opacity:1; 
stroke-linecap:round; stroke-linejoin:round;">
</g>
<g style="fill:#008400; fill-opacity:1.0; 
stroke:#008400; stroke-width:98.4252; stroke-opacity:1; 
stroke-linecap:round; stroke-linejoin:round;">
</g>
<g style="fill:#008400; fill-opacity:0.0; 
stroke:#008400; stroke-width:98.4252; stroke-opacity:1; 
stroke-linecap:round; stroke-linejoin:round;">
<path d="M7490 16287
L8490 16287
" />
<path d="M6240 18037
L8490 18037
" />
<path d="M10990 14787
L10990 15787
" />
</g>
<g style="fill:#008400; fill-opacity:1.0; 
stroke:#008400; stroke-width:50; stroke-opacity:1; 
stroke-linecap:round; stroke-linejoin:round;">
<polyline style="fill-rule:evenodd;"
points="19809,2629
20158,2862
20390,3210
20474,3632
20474,20934
20390,21356
20158,21704
19809,21937
19387,22021
2085,22021
1664,21937
1315,21704
1082,21356
998,20934
998,20287
13727,20287
13765,20480
13874,20643
14038,20752
14230,20791
14250,20791
14443,20752
14606,20643
14715,20480
14754,20287
14715,20094
14606,19931
14443,19822
14298,19793
14640,19793
14679,19785
14714,19763
14738,19728
14746,19687
14746,18887
14739,18848
14716,18813
14681,18789
14640,18781
13840,18781
13802,18788
13766,18811
13743,18846
13734,18887
13734,19687
13742,19725
13764,19761
13799,19784
13840,19793
14183,19793
14038,19822
13874,19931
13765,20094
13727,20287
998,20287
998,18537
2227,18537
2265,18730
2374,18893
2538,19002
2730,19041
2750,19041
2943,19002
3106,18893
3215,18730
3254,18537
3215,18344
3106,18181
2957,18081
6018,18081
6052,18162
6114,18225
6196,18259
6284,18259
6366,18225
6401,18190
8329,18190
8364,18225
8446,18259
8534,18259
8616,18225
8678,18163
8712,18081
8712,17993
8678,17911
8616,17849
8535,17815
8446,17815
8365,17849
8329,17884
6401,17884
6366,17849
6285,17815
6196,17815
6115,17849
6052,17911
6018,17993
6018,18081
2957,18081
2943,18072
2798,18043
3140,18043
3179,18035
3214,18013
3238,17978
3246,17937
3246,17137
3239,17098
3216,17063
3181,17039
3140,17031
2340,17031
2302,17038
2266,17061
2243,17096
2234,17137
2234,17937
2242,17975
2264,18011
2299,18034
2340,18043
2683,18043
2538,18072
2374,18181
2265,18344
2227,18537
998,18537
998,16331
7268,16331
7302,16412
7364,16475
7446,16509
7534,16509
7616,16475
7651,16440
8329,16440
8364,16475
8446,16509
8534,16509
8616,16475
8678,16413
8712,16331
8712,16243
8678,16161
8616,16099
8535,16065
8446,16065
8365,16099
8329,16134
7651,16134
7616,16099
7535,16065
7446,16065
7365,16099
7302,16161
7268,16243
7268,16331
998,16331
998,14831
10768,14831
10802,14912
10837,14948
10837,15626
10802,15661
10768,15743
10768,15831
10802,15912
10864,15975
10946,16009
11034,16009
11116,15975
11178,15913
11212,15831
11212,15743
11178,15661
11143,15626
11143,14948
11178,14913
11212,14831
11212,14743
11178,14661
11116,14599
11035,14565
10946,14565
10865,14599
10802,14661
10768,14743
10768,14831
998,14831
998,14287
2227,14287
2260,14457
2357,14601
2501,14697
2670,14731
2810,14731
2980,14697
3124,14601
3220,14457
3254,14287
3220,14117
3124,13973
2980,13877
2810,13843
2670,13843
2501,13877
2357,13973
2260,14117
2227,14287
998,14287
998,13287
2227,13287
2260,13457
2357,13601
2501,13697
2670,13731
2810,13731
2980,13697
3124,13601
3220,13457
3254,13287
3220,13117
3124,12973
2980,12877
2810,12843
2670,12843
2501,12877
2357,12973
2260,13117
2227,13287
998,13287
998,12287
2227,12287
2260,12457
2357,12601
2501,12697
2670,12731
2810,12731
2980,12697
3124,12601
3220,12457
3254,12287
3220,12117
3124,11973
2980,11877
2810,11843
2670,11843
2501,11877
2357,11973
2260,12117
2227,12287
998,12287
998,11743
16546,11743
16651,11999
16846,12194
17102,12300
17378,12300
17633,12195
17828,12000
17934,11745
17935,11468
17829,11213
17634,11018
17379,10912
17103,10911
16847,11017
16652,11212
16546,11467
16546,11743
998,11743
998,11287
2227,11287
2260,11457
2357,11601
2501,11697
2670,11731
2810,11731
2980,11697
3124,11601
3220,11457
3254,11287
3220,11117
3124,10973
2980,10877
2810,10843
2670,10843
2501,10877
2357,10973
2260,11117
2227,11287
998,11287
998,10287
2227,10287
2260,10457
2357,10601
2501,10697
2670,10731
2810,10731
2980,10697
3124,10601
3220,10457
3254,10287
3220,10117
3124,9973
2980,9877
2810,9843
2670,9843
2501,9877
2357,9973
2260,10117
2227,10287
998,10287
998,8947
2234,8947
2234,9627
2242,9665
2264,9701
2299,9724
2340,9733
3140,9733
3179,9725
3214,9703
3238,9668
3246,9627
3246,8947
3239,8908
3216,8873
3181,8849
3140,8841
2340,8841
2302,8848
2266,8871
2243,8906
2234,8947
998,8947
998,7215
6668,7215
6748,7342
7094,7469
7461,7454
7732,7342
7812,7215
7240,6643
6668,7215
998,7215
998,6390
6309,6390
6323,6758
6436,7029
6562,7109
7134,6537
7346,6537
7918,7109
8045,7029
8172,6683
8163,6467
8296,6467
8296,6607
8330,6777
8426,6921
8570,7017
8740,7051
8910,7017
9054,6921
9150,6777
9166,6696
9436,6696
9558,6992
9784,7218
10080,7341
10399,7341
10695,7219
10921,6993
11044,6697
11044,6378
10922,6082
10696,5856
10401,5733
10081,5733
9786,5855
9559,6081
9437,6376
9436,6696
9166,6696
9184,6607
9184,6467
9150,6297
9054,6153
8910,6057
8740,6023
8570,6057
8426,6153
8330,6297
8296,6467
8163,6467
8157,6316
8045,6045
7918,5965
7346,6537
7134,6537
6562,5965
6436,6045
6309,6390
998,6390
998,5859
6668,5859
7240,6431
7812,5859
7732,5732
7387,5605
7019,5620
6748,5732
6668,5859
998,5859
998,3632
1082,3210
1315,2862
1664,2629
2085,2545
19387,2545
19809,2629
" /> 
</g>
<g style="fill:#FFFFFF; fill-opacity:1.0; 
stroke:#FFFFFF; stroke-width:50; stroke-opacity:1; 
stroke-linecap:round; stroke-linejoin:round;">
</g>
<g style="fill:#FFFFFF; fill-opacity:1.0; 
stroke:#FFFFFF; stroke-width:0; stroke-opacity:1; 
stroke-linecap:round; stroke-linejoin:round;">
<circle cx="8490.72" cy="16287.4" r="78.7402" /> 
</g>
<g style="fill:#FFFFFF; fill-opacity:1.0; 
stroke:#FFFFFF; stroke-width:78.7402; stroke-opacity:1; 
stroke-linecap:round; stroke-linejoin:round;">
</g>
<g style="fill:#FFFFFF; fill-opacity:1.0; 
stroke:#FFFFFF; stroke-width:0; stroke-opacity:1; 
stroke-linecap:round; stroke-linejoin:round;">
<circle cx="7490.72" cy="16287.4" r="78.7402" /> 
</g>
<g style="fill:#FFFFFF; fill-opacity:1.0; 
stroke:#FFFFFF; stroke-width:78.7402; stroke-opacity:1; 
stroke-linecap:round; stroke-linejoin:round;">
</g>
<g style="fill:#FFFFFF; fill-opacity:1.0; 
stroke:#FFFFFF; stroke-width:0; stroke-opacity:1; 
stroke-linecap:round; stroke-linejoin:round;">
<circle cx="8490.72" cy="18037.4" r="78.7402" /> 
</g>
<g style="fill:#FFFFFF; fill-opacity:1.0; 
stroke:#FFFFFF; stroke-width:78.7402; stroke-opacity:1; 
stroke-linecap:round; stroke-linejoin:round;">
</g>
<g style="fill:#FFFFFF; fill-opacity:1.0; 
stroke:#FFFFFF; stroke-width:0; stroke-opacity:1; 
stroke-linecap:round; stroke-linejoin:round;">
<circle cx="6240.72" cy="18037.4" r="78.7402" /> 
</g>
<g style="fill:#FFFFFF; fill-opacity:1.0; 
stroke:#FFFFFF; stroke-width:78.7402; stroke-opacity:1; 
stroke-linecap:round; stroke-linejoin:round;">
</g>
<g style="fill:#FFFFFF; fill-opacity:1.0; 
stroke:#FFFFFF; stroke-width:0; stroke-opacity:1; 
stroke-linecap:round; stroke-linejoin:round;">
<circle cx="10990.7" cy="15787.4" r="78.7402" /> 
</g>
<g style="fill:#FFFFFF; fill-opacity:1.0; 
stroke:#FFFFFF; stroke-width:78.7402; stroke-opacity:1; 
stroke-linecap:round; stroke-linejoin:round;">
</g>
<g style="fill:#FFFFFF; fill-opacity:1.0; 
stroke:#FFFFFF; stroke-width:0; stroke-opacity:1; 
stroke-linecap:round; stroke-linejoin:round;">
<circle cx="10990.7" cy="14787.4" r="78.7402" /> 
</g>
<g style="fill:#FFFFFF; fill-opacity:1.0; 
stroke:#FFFFFF; stroke-width:78.7402; stroke-opacity:1; 
stroke-linecap:round; stroke-linejoin:round;">
</g>
<g style="fill:#FFFFFF; fill-opacity:1.0; 
stroke:#FFFFFF; stroke-width:0; stroke-opacity:1; 
stroke-linecap:round; stroke-linejoin:round;">
<circle cx="14240.7" cy="19287.4" r="200" /> 
</g>
<g style="fill:#FFFFFF; fill-opacity:1.0; 
stroke:#FFFFFF; stroke-width:78.7402; stroke-opacity:1; 
stroke-linecap:round; stroke-linejoin:round;">
</g>
<g style="fill:#FFFFFF; fill-opacity:1.0; 
stroke:#FFFFFF; stroke-width:0; stroke-opacity:1; 
stroke-linecap:round; stroke-linejoin:round;">
<circle cx="14240.7" cy="20287.4" r="200" /> 
</g>
<g style="fill:#FFFFFF; fill-opacity:1.0; 
stroke:#FFFFFF; stroke-width:78.7402; stroke-opacity:1; 
stroke-linecap:round; stroke-linejoin:round;">
</g>
<g style="fill:#FFFFFF; fill-opacity:1.0; 
stroke:#FFFFFF; stroke-width:0; stroke-opacity:1; 
stroke-linecap:round; stroke-linejoin:round;">
<circle cx="2740.72" cy="17537.4" r="200" /> 
</g>
<g style="fill:#FFFFFF; fill-opacity:1.0; 
stroke:#FFFFFF; stroke-width:78.7402; stroke-opacity:1; 
stroke-linecap:round; stroke-linejoin:round;">
</g>
<g style="fill:#FFFFFF; fill-opacity:1.0; 
stroke:#FFFFFF; stroke-width:0; stroke-opacity:1; 
stroke-linecap:round; stroke-linejoin:round;">
<circle cx="2740.72" cy="18537.4" r="200" /> 
</g>
<g style="fill:#FFFFFF; fill-opacity:1.0; 
stroke:#FFFFFF; stroke-width:78.7402; stroke-opacity:1; 
stroke-linecap:round; stroke-linejoin:round;">
</g>
<g style="fill:#FFFFFF; fill-opacity:1.0; 
stroke:#FFFFFF; stroke-width:0; stroke-opacity:1; 
stroke-linecap:round; stroke-linejoin:round;">
<circle cx="2740.72" cy="9287.4" r="200" /> 
</g>
<g style="fill:#FFFFFF; fill-opacity:1.0; 
stroke:#FFFFFF; stroke-width:78.7402; stroke-opacity:1; 
stroke-linecap:round; stroke-linejoin:round;">
</g>
<g style="fill:#FFFFFF; fill-opacity:1.0; 
stroke:#FFFFFF; stroke-width:0; stroke-opacity:1; 
stroke-linecap:round; stroke-linejoin:round;">
<circle cx="2740.72" cy="10287.4" r="200" /> 
</g>
<g style="fill:#FFFFFF; fill-opacity:1.0; 
stroke:#FFFFFF; stroke-width:78.7402; stroke-opacity:1; 
stroke-linecap:round; stroke-linejoin:round;">
</g>
<g style="fill:#FFFFFF; fill-opacity:1.0; 
stroke:#FFFFFF; stroke-width:0; stroke-opacity:1; 
stroke-linecap:round; stroke-linejoin:round;">
<circle cx="2740.72" cy="11287.4" r="200" /> 
</g>
<g style="fill:#FFFFFF; fill-opacity:1.0; 
stroke:#FFFFFF; stroke-width:78.7402; stroke-opacity:1; 
stroke-linecap:round; stroke-linejoin:round;">
</g>
<g style="fill:#FFFFFF; fill-opacity:1.0; 
stroke:#FFFFFF; stroke-width:0; stroke-opacity:1; 
stroke-linecap:round; stroke-linejoin:round;">
<circle cx="2740.72" cy="12287.4" r="200" /> 
</g>
<g style="fill:#FFFFFF; fill-opacity:1.0; 
stroke:#FFFFFF; stroke-width:78.7402; stroke-opacity:1; 
stroke-linecap:round; stroke-linejoin:round;">
</g>
<g style="fill:#FFFFFF; fill-opacity:1.0; 
stroke:#FFFFFF; stroke-width:0; stroke-opacity:1; 
stroke-linecap:round; stroke-linejoin:round;">
<circle cx="2740.72" cy="13287.4" r="200" /> 
</g>
<g style="fill:#FFFFFF; fill-opacity:1.0; 
stroke:#FFFFFF; stroke-width:78.7402; stroke-opacity:1; 
stroke-linecap:round; stroke-linejoin:round;">
</g>
<g style="fill:#FFFFFF; fill-opacity:1.0; 
stroke:#FFFFFF; stroke-width:0; stroke-opacity:1; 
stroke-linecap:round; stroke-linejoin:round;">
<circle cx="2740.72" cy="14287.4" r="200" /> 
</g>
<g style="fill:#FFFFFF; fill-opacity:1.0; 
stroke:#FFFFFF; stroke-width:78.7402; stroke-opacity:1; 
stroke-linecap:round; stroke-linejoin:round;">
</g>
<g style="fill:#FFFFFF; fill-opacity:1.0; 
stroke:#FFFFFF; stroke-width:0; stroke-opacity:1; 
stroke-linecap:round; stroke-linejoin:round;">
<circle cx="10240.7" cy="6537.4" r="400" /> 
</g>
<g style="fill:#FFFFFF; fill-opacity:1.0; 
stroke:#FFFFFF; stroke-width:78.7402; stroke-opacity:1; 
stroke-linecap:round; stroke-linejoin:round;">
</g>
<g style="fill:#FFFFFF; fill-opacity:1.0; 
stroke:#FFFFFF; stroke-width:0; stroke-opacity:1; 
stroke-linecap:round; stroke-linejoin:round;">
<circle cx="8740.72" cy="6537.4" r="200" /> 
</g>
<g style="fill:#FFFFFF; fill-opacity:1.0; 
stroke:#FFFFFF; stroke-width:78.7402; stroke-opacity:1; 
stroke-linecap:round; stroke-linejoin:round;">
</g>
<g style="fill:#FFFFFF; fill-opacity:1.0; 
stroke:#FFFFFF; stroke-width:0; stroke-opacity:1; 
stroke-linecap:round; stroke-linejoin:round;">
<circle cx="7240.72" cy="6537.4" r="400" /> 
</g>
<g style="fill:#FFFFFF; fill-opacity:1.0; 
stroke:#FFFFFF; stroke-width:78.7402; stroke-opacity:1; 
stroke-linecap:round; stroke-linejoin:round;">
</g>
<g style="fill:#FFFFFF; fill-opacity:1.0; 
stroke:#FFFFFF; stroke-width:0; stroke-opacity:1; 
stroke-linecap:round; stroke-linejoin:round;">
<circle cx="2469.07" cy="20551.2" r="600" /> 
</g>
<g style="fill:#FFFFFF; fill-opacity:1.0; 
stroke:#FFFFFF; stroke-width:78.7402; stroke-opacity:1; 
stroke-linecap:round; stroke-linejoin:round;">
</g>
<g style="fill:#FFFFFF; fill-opacity:1.0; 
stroke:#FFFFFF; stroke-width:0; stroke-opacity:1; 
stroke-linecap:round; stroke-linejoin:round;">
<circle cx="19004.5" cy="4015.75" r="600" /> 
</g>
<g style="fill:#FFFFFF; fill-opacity:1.0; 
stroke:#FFFFFF; stroke-width:78.7402; stroke-opacity:1; 
stroke-linecap:round; stroke-linejoin:round;">
</g>
<g style="fill:#FFFFFF; fill-opacity:1.0; 
stroke:#FFFFFF; stroke-width:0; stroke-opacity:1; 
stroke-linecap:round; stroke-linejoin:round;">
<circle cx="2469.07" cy="4015.75" r="600" /> 
</g>
<g style="fill:#FFFFFF; fill-opacity:1.0; 
stroke:#FFFFFF; stroke-width:78.7402; stroke-opacity:1; 
stroke-linecap:round; stroke-linejoin:round;">
</g>
<g style="fill:#FFFFFF; fill-opacity:1.0; 
stroke:#FFFFFF; stroke-width:0; stroke-opacity:1; 
stroke-linecap:round; stroke-linejoin:round;">
<circle cx="19004.5" cy="20551.2" r="600" /> 
</g>
<g style="fill:#FFFFFF; fill-opacity:1.0; 
stroke:#FFFFFF; stroke-width:78.7402; stroke-opacity:1; 
stroke-linecap:round; stroke-linejoin:round;">
</g>
<g style="fill:#FFFFFF; fill-opacity:1.0; 
stroke:#FFFFFF; stroke-width:0; stroke-opacity:1; 
stroke-linecap:round; stroke-linejoin:round;">
<circle cx="17240.7" cy="11606.3" r="413.386" /> 
</g>
<g style="fill:#FFFFFF; fill-opacity:1.0; 
stroke:#FFFFFF; stroke-width:78.7402; stroke-opacity:1; 
stroke-linecap:round; stroke-linejoin:round;">
</g>
<g style="fill:#000000; fill-opacity:1.0; 
stroke:#000000; stroke-width:78.7402; stroke-opacity:1; 
stroke-linecap:round; stroke-linejoin:round;">
</g>
<g style="fill:#840000; fill-opacity:1.0; 
stroke:#840000; stroke-width:78.7402; stroke-opacity:1; 
stroke-linecap:round; stroke-linejoin:round;">
</g>
<g style="fill:#840000; fill-opacity:1.0; 
stroke:#840000; stroke-width:0; stroke-opacity:1; 
stroke-linecap:round; stroke-linejoin:round;">
<polyline style="fill-rule:evenodd;"
points="13840,19687
13840,18887
14640,18887
14640,19687
13840,19687
" /> 
</g>
<g style="fill:#840000; fill-opacity:1.0; 
stroke:#840000; stroke-width:800; stroke-opacity:1; 
stroke-linecap:round; stroke-linejoin:round;">
</g>
<g style="fill:#840000; fill-opacity:0.0; 
stroke:#840000; stroke-width:800; stroke-opacity:1; 
stroke-linecap:round; stroke-linejoin:round;">
<path d="M14240 20287
L14240 20287
" />
</g>
<g style="fill:#840000; fill-opacity:0.0; 
stroke:#840000; stroke-width:0; stroke-opacity:1; 
stroke-linecap:round; stroke-linejoin:round;">
</g>
<g style="fill:#840000; fill-opacity:1.0; 
stroke:#840000; stroke-width:0; stroke-opacity:1; 
stroke-linecap:round; stroke-linejoin:round;">
<polyline style="fill-rule:evenodd;"
points="2340,17937
2340,17137
3140,17137
3140,17937
2340,17937
" /> 
</g>
<g style="fill:#840000; fill-opacity:1.0; 
stroke:#840000; stroke-width:800; stroke-opacity:1; 
stroke-linecap:round; stroke-linejoin:round;">
</g>
<g style="fill:#840000; fill-opacity:0.0; 
stroke:#840000; stroke-width:800; stroke-opacity:1; 
stroke-linecap:round; stroke-linejoin:round;">
<path d="M2740 18537
L2740 18537
" />
</g>
<g style="fill:#840000; fill-opacity:0.0; 
stroke:#840000; stroke-width:0; stroke-opacity:1; 
stroke-linecap:round; stroke-linejoin:round;">
</g>
<g style="fill:#840000; fill-opacity:1.0; 
stroke:#840000; stroke-width:0; stroke-opacity:1; 
stroke-linecap:round; stroke-linejoin:round;">
<polyline style="fill-rule:evenodd;"
points="2340,9627
2340,8947
3140,8947
3140,9627
2340,9627
" /> 
</g>
<g style="fill:#840000; fill-opacity:1.0; 
stroke:#840000; stroke-width:680; stroke-opacity:1; 
stroke-linecap:round; stroke-linejoin:round;">
</g>
<g style="fill:#840000; fill-opacity:0.0; 
stroke:#840000; stroke-width:680; stroke-opacity:1; 
stroke-linecap:round; stroke-linejoin:round;">
<path d="M2680 10287
L2800 10287
" />
<path d="M2680 11287
L2800 11287
" />
<path d="M2680 12287
L2800 12287
" />
<path d="M2680 13287
L2800 13287
" />
<path d="M2680 14287
L2800 14287
" />
</g>
<g style="fill:#840000; fill-opacity:0.0; 
stroke:#840000; stroke-width:0; stroke-opacity:1; 
stroke-linecap:round; stroke-linejoin:round;">
</g>
<g style="fill:#840000; fill-opacity:1.0; 
stroke:#840000; stroke-width:0; stroke-opacity:1; 
stroke-linecap:round; stroke-linejoin:round;">
<polyline style="fill-rule:evenodd;"
points="11609,21419
11609,22167
11058,22167
11058,21419
11609,21419
" /> 
<polyline style="fill-rule:evenodd;"
points="6433,21025
6433,21773
5882,21773
5882,21025
6433,21025
" /> 
<polyline style="fill-rule:evenodd;"
points="9346,20572
9346,19982
9660,19982
9660,20572
9346,20572
" /> 
<polyline style="fill-rule:evenodd;"
points="8913,20493
8913,19903
9227,19903
9227,20493
8913,20493
" /> 
<polyline style="fill-rule:evenodd;"
points="8481,20572
8481,19982
8795,19982
8795,20572
8481,20572
" /> 
<polyline style="fill-rule:evenodd;"
points="8048,20651
8048,20061
8362,20061
8362,20651
8048,20651
" /> 
<polyline style="fill-rule:evenodd;"
points="7615,20572
7615,19982
7929,19982
7929,20572
7615,20572
" /> 
<polyline style="fill-rule:evenodd;"
points="7181,20651
7181,20061
7495,20061
7495,20651
7181,20651
" /> 
<polyline style="fill-rule:evenodd;"
points="6748,20572
6748,19982
7062,19982
7062,20572
6748,20572
" /> 
<polyline style="fill-rule:evenodd;"
points="6315,20572
6315,19982
6629,19982
6629,20572
6315,20572
" /> 
<polyline style="fill-rule:evenodd;"
points="7141,15947
7141,16498
6433,16498
6433,15947
7141,15947
" /> 
<polyline style="fill-rule:evenodd;"
points="9384,15947
9384,16498
8676,16498
8676,15947
9384,15947
" /> 
<circle cx="10240.7" cy="6537.4" r="700" /> 
</g>
<g style="fill:#840000; fill-opacity:1.0; 
stroke:#840000; stroke-width:78.7402; stroke-opacity:1; 
stroke-linecap:round; stroke-linejoin:round;">
</g>
<g style="fill:#840000; fill-opacity:1.0; 
stroke:#840000; stroke-width:680; stroke-opacity:1; 
stroke-linecap:round; stroke-linejoin:round;">
</g>
<g style="fill:#840000; fill-opacity:0.0; 
stroke:#840000; stroke-width:680; stroke-opacity:1; 
stroke-linecap:round; stroke-linejoin:round;">
<path d="M8740 6477
L8740 6597
" />
</g>
<g style="fill:#840000; fill-opacity:1.0; 
stroke:#840000; stroke-width:0; stroke-opacity:1; 
stroke-linecap:round; stroke-linejoin:round;">
<circle cx="7240.72" cy="6537.4" r="700" /> 
</g>
<g style="fill:#840000; fill-opacity:1.0; 
stroke:#840000; stroke-width:78.7402; stroke-opacity:1; 
stroke-linecap:round; stroke-linejoin:round;">
</g>
<g style="fill:#840000; fill-opacity:1.0; 
stroke:#840000; stroke-width:0; stroke-opacity:1; 
stroke-linecap:round; stroke-linejoin:round;">
<polyline style="fill-rule:evenodd;"
points="8649,11455
8335,11455
8335,11101
8649,11101
8649,11455
" /> 
<polyline style="fill-rule:evenodd;"
points="9397,11455
9083,11455
9083,11101
9397,11101
9397,11455
" /> 
<polyline style="fill-rule:evenodd;"
points="9023,10669
8709,10669
8709,10315
9023,10315
9023,10669
" /> 
<polyline style="fill-rule:evenodd;"
points="7634,11110
7634,11464
7437,11464
7437,11110
7634,11110
" /> 
<polyline style="fill-rule:evenodd;"
points="7043,11110
7043,11464
6847,11464
6847,11110
7043,11110
" /> 
<polyline style="fill-rule:evenodd;"
points="10097,11464
10097,11110
10293,11110
10293,11464
10097,11464
" /> 
<polyline style="fill-rule:evenodd;"
points="10687,11464
10687,11110
10884,11110
10884,11464
10687,11464
" /> 
<polyline style="fill-rule:evenodd;"
points="10884,10110
10884,10464
10687,10464
10687,10110
10884,10110
" /> 
<polyline style="fill-rule:evenodd;"
points="10293,10110
10293,10464
10097,10464
10097,10110
10293,10110
" /> 
<polyline style="fill-rule:evenodd;"
points="6847,10464
6847,10110
7043,10110
7043,10464
6847,10464
" /> 
<polyline style="fill-rule:evenodd;"
points="7437,10464
7437,10110
7634,10110
7634,10464
7437,10464
" /> 
<circle cx="2469.07" cy="20551.2" r="700" /> 
</g>
<g style="fill:#840000; fill-opacity:1.0; 
stroke:#840000; stroke-width:78.7402; stroke-opacity:1; 
stroke-linecap:round; stroke-linejoin:round;">
</g>
<g style="fill:#840000; fill-opacity:1.0; 
stroke:#840000; stroke-width:0; stroke-opacity:1; 
stroke-linecap:round; stroke-linejoin:round;">
<circle cx="19004.5" cy="4015.75" r="700" /> 
</g>
<g style="fill:#840000; fill-opacity:1.0; 
stroke:#840000; stroke-width:78.7402; stroke-opacity:1; 
stroke-linecap:round; stroke-linejoin:round;">
</g>
<g style="fill:#840000; fill-opacity:1.0; 
stroke:#840000; stroke-width:0; stroke-opacity:1; 
stroke-linecap:round; stroke-linejoin:round;">
<circle cx="2469.07" cy="4015.75" r="700" /> 
</g>
<g style="fill:#840000; fill-opacity:1.0; 
stroke:#840000; stroke-width:78.7402; stroke-opacity:1; 
stroke-linecap:round; stroke-linejoin:round;">
</g>
<g style="fill:#840000; fill-opacity:1.0; 
stroke:#840000; stroke-width:0; stroke-opacity:1; 
stroke-linecap:round; stroke-linejoin:round;">
<circle cx="19004.5" cy="20551.2" r="700" /> 
</g>
<g style="fill:#840000; fill-opacity:1.0; 
stroke:#840000; stroke-width:78.7402; stroke-opacity:1; 
stroke-linecap:round; stroke-linejoin:round;">
</g>
<g style="fill:#840000; fill-opacity:1.0; 
stroke:#840000; stroke-width:0; stroke-opacity:1; 
stroke-linecap:round; stroke-linejoin:round;">
<polyline style="fill-rule:evenodd;"
points="17890,7452
16591,7452
16591,5720
17890,5720
17890,7452
" /> 
<polyline style="fill-rule:evenodd;"
points="15469,11330
13933,11330
13933,8889
15469,8889
15469,11330
" /> 
<polyline style="fill-rule:evenodd;"
points="20547,11330
19012,11330
19012,8889
20547,8889
20547,11330
" /> 
<circle cx="17240.7" cy="11606.3" r="590.551" /> 
</g>
<g style="fill:#840000; fill-opacity:1.0; 
stroke:#840000; stroke-width:78.7402; stroke-opacity:1; 
stroke-linecap:round; stroke-linejoin:round;">
</g>
<g style="fill:#840000; fill-opacity:1.0; 
stroke:#840000; stroke-width:0; stroke-opacity:1; 
stroke-linecap:round; stroke-linejoin:round;">
<polyline style="fill-rule:evenodd;"
points="13769,4330
13769,3701
15028,3701
15028,4330
13769,4330
" /> 
<polyline style="fill-rule:evenodd;"
points="15893,4330
15893,3701
17152,3701
17152,4330
15893,4330
" /> 
<polyline style="fill-rule:evenodd;"
points="4746,5484
4746,5090
5534,5090
5534,5484
4746,5484
" /> 
<polyline style="fill-rule:evenodd;"
points="3447,6484
3447,6090
4234,6090
4234,6484
3447,6484
" /> 
<polyline style="fill-rule:evenodd;"
points="4746,7484
4746,7090
5534,7090
5534,7484
4746,7484
" /> 
<polyline style="fill-rule:evenodd;"
points="3447,8484
3447,8090
4234,8090
4234,8484
3447,8484
" /> 
<polyline style="fill-rule:evenodd;"
points="4746,9484
4746,9090
5534,9090
5534,9484
4746,9484
" /> 
<polyline style="fill-rule:evenodd;"
points="3447,10484
3447,10090
4234,10090
4234,10484
3447,10484
" /> 
<polyline style="fill-rule:evenodd;"
points="4746,11484
4746,11090
5534,11090
5534,11484
4746,11484
" /> 
<polyline style="fill-rule:evenodd;"
points="3447,12484
3447,12090
4234,12090
4234,12484
3447,12484
" /> 
<polyline style="fill-rule:evenodd;"
points="4746,13484
4746,13090
5534,13090
5534,13484
4746,13484
" /> 
<polyline style="fill-rule:evenodd;"
points="3447,14484
3447,14090
4234,14090
4234,14484
3447,14484
" /> 
<polyline style="fill-rule:evenodd;"
points="4746,15484
4746,15090
5534,15090
5534,15484
4746,15484
" /> 
<polyline style="fill-rule:evenodd;"
points="3447,16484
3447,16090
4234,16090
4234,16484
3447,16484
" /> 
<polyline style="fill-rule:evenodd;"
points="4746,17484
4746,17090
5534,17090
5534,17484
4746,17484
" /> 
<polyline style="fill-rule:evenodd;"
points="3447,18484
3447,18090
4234,18090
4234,18484
3447,18484
" /> 
<polyline style="fill-rule:evenodd;"
points="4746,19484
4746,19090
5534,19090
5534,19484
4746,19484
" /> 
<polyline style="fill-rule:evenodd;"
points="3447,20484
3447,20090
4234,20090
4234,20484
3447,20484
" /> 
<polyline style="fill-rule:evenodd;"
points="12746,9484
12746,9090
13534,9090
13534,9484
12746,9484
" /> 
<polyline style="fill-rule:evenodd;"
points="11447,10484
11447,10090
12234,10090
12234,10484
11447,10484
" /> 
<polyline style="fill-rule:evenodd;"
points="12746,11484
12746,11090
13534,11090
13534,11484
12746,11484
" /> 
<polyline style="fill-rule:evenodd;"
points="11447,12484
11447,12090
12234,12090
12234,12484
11447,12484
" /> 
<polyline style="fill-rule:evenodd;"
points="12746,13484
12746,13090
13534,13090
13534,13484
12746,13484
" /> 
<polyline style="fill-rule:evenodd;"
points="11447,14484
11447,14090
12234,14090
12234,14484
11447,14484
" /> 
<polyline style="fill-rule:evenodd;"
points="12746,15484
12746,15090
13534,15090
13534,15484
12746,15484
" /> 
<polyline style="fill-rule:evenodd;"
points="11447,16484
11447,16090
12234,16090
12234,16484
11447,16484
" /> 
<polyline style="fill-rule:evenodd;"
points="12746,17484
12746,17090
13534,17090
13534,17484
12746,17484
" /> 
<polyline style="fill-rule:evenodd;"
points="11447,18484
11447,18090
12234,18090
12234,18484
11447,18484
" /> 
<polyline style="fill-rule:evenodd;"
points="12746,19484
12746,19090
13534,19090
13534,19484
12746,19484
" /> 
<polyline style="fill-rule:evenodd;"
points="11447,20484
11447,20090
12234,20090
12234,20484
11447,20484
" /> 
<circle cx="18990.7" cy="6287.4" r="196.85" /> 
</g>
<g style="fill:#840000; fill-opacity:1.0; 
stroke:#840000; stroke-width:78.7402; stroke-opacity:1; 
stroke-linecap:round; stroke-linejoin:round;">
</g>
<g style="fill:#840000; fill-opacity:1.0; 
stroke:#840000; stroke-width:0; stroke-opacity:1; 
stroke-linecap:round; stroke-linejoin:round;">
<circle cx="16990.7" cy="20787.4" r="196.85" /> 
</g>
<g style="fill:#840000; fill-opacity:1.0; 
stroke:#840000; stroke-width:78.7402; stroke-opacity:1; 
stroke-linecap:round; stroke-linejoin:round;">
</g>
<g style="fill:#840000; fill-opacity:1.0; 
stroke:#840000; stroke-width:0; stroke-opacity:1; 
stroke-linecap:round; stroke-linejoin:round;">
<circle cx="2469.07" cy="5984.25" r="196.85" /> 
</g>
<g style="fill:#840000; fill-opacity:1.0; 
stroke:#840000; stroke-width:78.7402; stroke-opacity:1; 
stroke-linecap:round; stroke-linejoin:round;">
</g>
<g style="fill:#C2C2C2; fill-opacity:1.0; 
stroke:#C2C2C2; stroke-width:78.7402; stroke-opacity:1; 
stroke-linecap:round; stroke-linejoin:round;">
</g>
<g style="fill:#C2C2C2; fill-opacity:1.0; 
stroke:#C2C2C2; stroke-width:0; stroke-opacity:1; 
stroke-linecap:round; stroke-linejoin:round;">
<circle cx="8490.72" cy="16287.4" r="118.11" /> 
</g>
<g style="fill:#C2C2C2; fill-opacity:1.0; 
stroke:#C2C2C2; stroke-width:78.7402; stroke-opacity:1; 
stroke-linecap:round; stroke-linejoin:round;">
</g>
<g style="fill:#C2C2C2; fill-opacity:1.0; 
stroke:#C2C2C2; stroke-width:0; stroke-opacity:1; 
stroke-linecap:round; stroke-linejoin:round;">
<circle cx="7490.72" cy="16287.4" r="118.11" /> 
</g>
<g style="fill:#C2C2C2; fill-opacity:1.0; 
stroke:#C2C2C2; stroke-width:78.7402; stroke-opacity:1; 
stroke-linecap:round; stroke-linejoin:round;">
</g>
<g style="fill:#C2C2C2; fill-opacity:1.0; 
stroke:#C2C2C2; stroke-width:0; stroke-opacity:1; 
stroke-linecap:round; stroke-linejoin:round;">
<circle cx="8490.72" cy="18037.4" r="118.11" /> 
</g>
<g style="fill:#C2C2C2; fill-opacity:1.0; 
stroke:#C2C2C2; stroke-width:78.7402; stroke-opacity:1; 
stroke-linecap:round; stroke-linejoin:round;">
</g>
<g style="fill:#C2C2C2; fill-opacity:1.0; 
stroke:#C2C2C2; stroke-width:0; stroke-opacity:1; 
stroke-linecap:round; stroke-linejoin:round;">
<circle cx="6240.72" cy="18037.4" r="118.11" /> 
</g>
<g style="fill:#C2C2C2; fill-opacity:1.0; 
stroke:#C2C2C2; stroke-width:78.7402; stroke-opacity:1; 
stroke-linecap:round; stroke-linejoin:round;">
</g>
<g style="fill:#C2C2C2; fill-opacity:1.0; 
stroke:#C2C2C2; stroke-width:0; stroke-opacity:1; 
stroke-linecap:round; stroke-linejoin:round;">
<circle cx="10990.7" cy="15787.4" r="118.11" /> 
</g>
<g style="fill:#C2C2C2; fill-opacity:1.0; 
stroke:#C2C2C2; stroke-width:78.7402; stroke-opacity:1; 
stroke-linecap:round; stroke-linejoin:round;">
</g>
<g style="fill:#C2C2C2; fill-opacity:1.0; 
stroke:#C2C2C2; stroke-width:0; stroke-opacity:1; 
stroke-linecap:round; stroke-linejoin:round;">
<circle cx="10990.7" cy="14787.4" r="118.11" /> 
</g>
<g style="fill:#C2C2C2; fill-opacity:1.0; 
stroke:#C2C2C2; stroke-width:78.7402; stroke-opacity:1; 
stroke-linecap:round; stroke-linejoin:round;">
</g>
<g style="fill:#840000; fill-opacity:1.0; 
stroke:#840000; stroke-width:78.7402; stroke-opacity:1; 
stroke-linecap:round; stroke-linejoin:round;">
</g>
<g style="fill:#840000; fill-opacity:1.0; 
stroke:#840000; stroke-width:98.4252; stroke-opacity:1; 
stroke-linecap:round; stroke-linejoin:round;">
</g>
<g style="fill:#840000; fill-opacity:0.0; 
stroke:#840000; stroke-width:98.4252; stroke-opacity:1; 
stroke-linecap:round; stroke-linejoin:round;">
<path d="M13140 9287
L13140 6586
" />
<path d="M13240 6787
L13240 6586
" />
<path d="M13240 6687
L13240 6787
" />
<path d="M13140 6586
L13240 6687
" />
<path d="M10785 10287
L10785 7082
" />
<path d="M10785 7082
L10240 6537
" />
</g>
<g style="fill:#840000; fill-opacity:0.0; 
stroke:#840000; stroke-width:2000; stroke-opacity:1; 
stroke-linecap:round; stroke-linejoin:round;">
<path d="M14399 4015
L14399 6586
" />
<path d="M14490 6537
L14490 6586
" />
<path d="M14448 6537
L14490 6537
" />
</g>
<g style="fill:#840000; fill-opacity:0.0; 
stroke:#840000; stroke-width:98.4252; stroke-opacity:1; 
stroke-linecap:round; stroke-linejoin:round;">
<path d="M14399 6586
L14448 6537
" />
</g>
<g style="fill:#840000; fill-opacity:0.0; 
stroke:#840000; stroke-width:2000; stroke-opacity:1; 
stroke-linecap:round; stroke-linejoin:round;">
<path d="M17240 6586
L14490 6586
" />
<path d="M14490 6586
L13240 6586
" />
<path d="M13240 6586
L10289 6586
" />
</g>
<g style="fill:#840000; fill-opacity:0.0; 
stroke:#840000; stroke-width:98.4252; stroke-opacity:1; 
stroke-linecap:round; stroke-linejoin:round;">
<path d="M10289 6586
L10240 6537
" />
<path d="M6945 10287
L6945 9832
" />
<path d="M8740 9287
L8740 6537
" />
<path d="M8490 9537
L8740 9287
" />
<path d="M7240 9537
L8490 9537
" />
<path d="M6945 9832
L7240 9537
" />
<path d="M7535 11287
L8484 11287
" />
<path d="M8484 11287
L8492 11278
" />
<path d="M10195 11287
L9249 11287
" />
<path d="M9249 11287
L9240 11278
" />
<path d="M10195 10287
L9072 10287
" />
<path d="M9072 10287
L8866 10492
" />
<path d="M7535 10287
L8661 10287
" />
<path d="M8661 10287
L8866 10492
" />
<path d="M8205 20356
L8205 19752
" />
<path d="M6990 15287
L6990 11332
" />
<path d="M7240 15537
L6990 15287
" />
<path d="M7740 15537
L7240 15537
" />
<path d="M7990 15787
L7740 15537
" />
<path d="M7990 19537
L7990 15787
" />
<path d="M8205 19752
L7990 19537
" />
<path d="M6990 11332
L6945 11287
" />
<path d="M3841 6287
L5990 6287
" />
<path d="M6490 11287
L6945 11287
" />
<path d="M6240 11037
L6490 11287
" />
<path d="M6240 6537
L6240 11037
" />
<path d="M5990 6287
L6240 6537
" />
<path d="M6787 16223
L7426 16223
" />
<path d="M8554 16223
L9030 16223
" />
<path d="M8490 16287
L8554 16223
" />
<path d="M7426 16223
L7490 16287
" />
<path d="M2740 9287
L5140 9287
" />
<path d="M3841 10287
L2740 10287
" />
<path d="M5140 11287
L2740 11287
" />
<path d="M3841 12287
L2740 12287
" />
<path d="M5140 13287
L2740 13287
" />
<path d="M2740 14287
L3841 14287
" />
<path d="M5140 15287
L5740 15287
" />
<path d="M7772 19819
L7772 20277
" />
<path d="M7490 19537
L7772 19819
" />
<path d="M7490 17287
L7490 19537
" />
<path d="M7240 17037
L7490 17287
" />
<path d="M6240 17037
L7240 17037
" />
<path d="M5990 16787
L6240 17037
" />
<path d="M5990 15537
L5990 16787
" />
<path d="M5740 15287
L5990 15537
" />
<path d="M8490 18037
L8490 19537
" />
<path d="M3841 16287
L3990 16287
" />
<path d="M3990 16287
L4490 16787
" />
<path d="M8638 19685
L8638 20277
" />
<path d="M8490 19537
L8638 19685
" />
<path d="M4740 18037
L6240 18037
" />
<path d="M4490 17787
L4740 18037
" />
<path d="M4490 16787
L4490 17787
" />
<path d="M5140 17287
L6490 17287
" />
<path d="M6905 19702
L6905 20277
" />
<path d="M6740 19537
L6905 19702
" />
<path d="M6740 17537
L6740 19537
" />
<path d="M6490 17287
L6740 17537
" />
<path d="M4768 17283
L5244 17283
" />
<path d="M2740 17537
L3490 17537
" />
<path d="M3841 17887
L3841 18287
" />
<path d="M3490 17537
L3841 17887
" />
<path d="M5140 19287
L3490 19287
" />
<path d="M3490 19287
L2740 18537
" />
<path d="M9070 20198
L9070 19707
" />
<path d="M9990 15287
L13140 15287
" />
<path d="M9740 15537
L9990 15287
" />
<path d="M9740 16787
L9740 15537
" />
<path d="M9240 17287
L9740 16787
" />
<path d="M9240 19537
L9240 17287
" />
<path d="M9070 19707
L9240 19537
" />
<path d="M10785 11287
L10785 11582
" />
<path d="M11240 18287
L11841 18287
" />
<path d="M10990 18037
L11240 18287
" />
<path d="M10990 15787
L10990 18037
" />
<path d="M10990 11787
L10990 14787
" />
<path d="M10785 11582
L10990 11787
" />
<path d="M13140 19287
L14240 19287
" />
<path d="M11841 20287
L14240 20287
" />
</g>
<g style="fill:#840000; fill-opacity:1.0; 
stroke:#840000; stroke-width:50; stroke-opacity:1; 
stroke-linecap:round; stroke-linejoin:round;">
<polyline style="fill-rule:evenodd;"
points="19809,2629
20158,2862
20390,3210
20474,3632
20474,8783
19012,8783
18973,8791
18938,8813
18914,8848
18906,8889
18906,11330
18913,11369
18936,11404
18971,11428
19012,11436
20474,11436
20474,20934
20390,21356
20158,21704
19809,21937
19387,22021
11834,22021
11834,21924
11777,21868
11408,21868
11408,21876
11258,21876
11258,21868
10889,21868
10833,21924
10833,22021
2085,22021
1664,21937
1315,21704
1199,21530
5657,21530
5657,21818
5691,21900
5754,21964
5837,21998
6026,21998
6082,21942
6082,21474
6232,21474
6232,21942
6288,21998
6477,21998
6560,21964
6623,21900
6658,21818
6658,21530
6601,21474
6232,21474
6082,21474
5713,21474
5657,21530
1199,21530
1095,21374
10833,21374
10833,21662
10889,21718
11258,21718
11258,21250
11408,21250
11408,21718
11777,21718
11834,21662
11834,21374
11799,21291
11736,21228
11653,21194
11464,21194
11408,21250
11258,21250
11202,21194
11013,21194
10930,21228
10867,21291
10833,21374
1095,21374
1082,21356
1007,20980
5657,20980
5657,21268
5713,21324
6082,21324
6082,20856
6232,20856
6232,21324
6601,21324
6658,21268
6658,20980
6623,20897
6617,20891
16465,20891
16545,21084
16692,21232
16885,21312
17094,21312
17287,21232
17435,21085
17515,20892
17515,20683
17436,20490
17288,20342
17095,20262
16886,20262
16693,20342
16545,20489
16465,20682
16465,20891
6617,20891
6560,20834
6477,20800
6288,20800
6232,20856
6082,20856
6026,20800
5837,20800
5754,20834
5691,20897
5657,20980
1007,20980
998,20934
998,20090
3341,20090
3341,20484
3348,20522
3371,20558
3406,20581
3447,20590
4234,20590
4273,20582
4308,20560
4332,20525
4340,20484
4340,20090
4333,20052
4310,20016
4275,19993
4234,19984
3447,19984
3408,19992
3373,20014
3349,20049
3341,20090
998,20090
998,18537
2227,18537
2265,18730
2374,18893
2538,19002
2730,19041
2750,19041
2943,19002
2971,18984
3382,19395
3432,19428
3490,19440
4640,19440
4640,19484
4648,19522
4670,19558
4705,19581
4746,19590
5534,19590
5572,19582
5607,19560
5631,19525
5639,19484
5639,19090
5632,19052
5609,19016
5575,18993
5534,18984
4746,18984
4708,18992
4672,19014
4649,19049
4640,19090
4640,19134
3554,19134
3189,18769
3215,18730
3254,18537
3215,18344
3106,18181
2943,18072
2798,18043
3140,18043
3179,18035
3214,18013
3238,17978
3246,17937
3246,17690
3427,17690
3688,17951
3688,17984
3447,17984
3408,17992
3373,18014
3349,18049
3341,18090
3341,18484
3348,18522
3371,18558
3406,18581
3447,18590
4234,18590
4273,18582
4308,18560
4332,18525
4340,18484
4340,18090
4333,18052
4310,18016
4275,17993
4234,17984
3994,17984
3994,17887
3982,17829
3949,17779
3598,17429
3598,17428
3549,17396
3490,17384
3246,17384
3246,17137
3239,17098
3216,17063
3181,17039
3140,17031
2340,17031
2302,17038
2266,17061
2243,17096
2234,17137
2234,17937
2242,17975
2264,18011
2299,18034
2340,18043
2683,18043
2538,18072
2374,18181
2265,18344
2227,18537
998,18537
998,14287
2227,14287
2260,14457
2357,14601
2501,14697
2670,14731
2810,14731
2980,14697
3124,14601
3220,14457
3223,14440
3341,14440
3341,14484
3348,14522
3371,14558
3406,14581
3447,14590
4234,14590
4273,14582
4308,14560
4332,14525
4340,14484
4340,14090
4333,14052
4310,14016
4275,13993
4234,13984
3447,13984
3408,13992
3373,14014
3349,14049
3341,14090
3341,14134
3223,14134
3220,14117
3124,13973
2980,13877
2810,13843
2670,13843
2501,13877
2357,13973
2260,14117
2227,14287
998,14287
998,13287
2227,13287
2260,13457
2357,13601
2501,13697
2670,13731
2810,13731
2980,13697
3124,13601
3220,13457
3223,13440
4640,13440
4640,13484
4648,13522
4670,13558
4705,13581
4746,13590
5534,13590
5572,13582
5607,13560
5631,13525
5639,13484
5639,13090
5632,13052
5609,13016
5575,12993
5534,12984
4746,12984
4708,12992
4672,13014
4649,13049
4640,13090
4640,13134
3223,13134
3220,13117
3124,12973
2980,12877
2810,12843
2670,12843
2501,12877
2357,12973
2260,13117
2227,13287
998,13287
998,12287
2227,12287
2260,12457
2357,12601
2501,12697
2670,12731
2810,12731
2980,12697
3124,12601
3220,12457
3223,12440
3341,12440
3341,12484
3348,12522
3371,12558
3406,12581
3447,12590
4234,12590
4273,12582
4308,12560
4332,12525
4340,12484
4340,12090
4333,12052
4310,12016
4275,11993
4234,11984
3447,11984
3408,11992
3373,12014
3349,12049
3341,12090
3341,12134
3223,12134
3220,12117
3124,11973
2980,11877
2810,11843
2670,11843
2501,11877
2357,11973
2260,12117
2227,12287
998,12287
998,11287
2227,11287
2260,11457
2357,11601
2501,11697
2670,11731
2810,11731
2980,11697
3124,11601
3220,11457
3223,11440
4640,11440
4640,11484
4648,11522
4670,11558
4705,11581
4746,11590
5534,11590
5572,11582
5607,11560
5631,11525
5639,11484
5639,11090
5632,11052
5609,11016
5575,10993
5534,10984
4746,10984
4708,10992
4672,11014
4649,11049
4640,11090
4640,11134
3223,11134
3220,11117
3124,10973
2980,10877
2810,10843
2670,10843
2501,10877
2357,10973
2260,11117
2227,11287
998,11287
998,10287
2227,10287
2260,10457
2357,10601
2501,10697
2670,10731
2810,10731
2980,10697
3124,10601
3220,10457
3223,10440
3341,10440
3341,10484
3348,10522
3371,10558
3406,10581
3447,10590
4234,10590
4273,10582
4308,10560
4332,10525
4340,10484
4340,10090
4333,10052
4310,10016
4275,9993
4234,9984
3447,9984
3408,9992
3373,10014
3349,10049
3341,10090
3341,10134
3223,10134
3220,10117
3124,9973
2980,9877
2810,9843
2670,9843
2501,9877
2357,9973
2260,10117
2227,10287
998,10287
998,8947
2234,8947
2234,9627
2242,9665
2264,9701
2299,9724
2340,9733
3140,9733
3179,9725
3214,9703
3238,9668
3246,9627
3246,9440
4640,9440
4640,9484
4648,9522
4670,9558
4705,9581
4746,9590
5534,9590
5572,9582
5607,9560
5631,9525
5639,9484
5639,9090
5632,9052
5609,9016
5575,8993
5534,8984
4746,8984
4708,8992
4672,9014
4649,9049
4640,9090
4640,9134
3246,9134
3246,8947
3239,8908
3216,8873
3181,8849
3140,8841
2340,8841
2302,8848
2266,8871
2243,8906
2234,8947
998,8947
998,8418
3222,8418
3222,8529
3256,8611
3319,8674
3402,8709
3709,8709
3766,8653
3766,8362
3916,8362
3916,8653
3972,8709
4279,8709
4362,8674
4425,8611
4459,8529
4459,8418
4403,8362
3916,8362
3766,8362
3278,8362
3222,8418
998,8418
998,8045
3222,8045
3222,8156
3278,8212
3766,8212
3766,7921
3916,7921
3916,8212
4403,8212
4459,8156
4459,8045
4425,7963
4362,7899
4279,7865
3972,7865
3916,7921
3766,7921
3709,7865
3402,7865
3319,7899
3256,7963
3222,8045
998,8045
998,7090
4640,7090
4640,7484
4648,7522
4670,7558
4705,7581
4746,7590
5534,7590
5572,7582
5607,7560
5631,7525
5639,7484
5639,7090
5632,7052
5609,7016
5575,6993
5534,6984
4746,6984
4708,6992
4672,7014
4649,7049
4640,7090
998,7090
998,6088
1943,6088
2023,6281
2171,6429
2364,6509
2573,6509
2766,6429
2913,6282
2993,6090
3341,6090
3341,6484
3348,6522
3371,6558
3406,6581
3447,6590
4234,6590
4273,6582
4308,6560
4332,6525
4340,6484
4340,6440
5927,6440
6087,6600
6087,11037
6099,11095
6127,11137
6132,11145
6382,11395
6432,11428
6490,11440
6741,11440
6741,11464
6748,11503
6771,11538
6805,11562
6837,11568
6837,15287
6849,15345
6875,15384
6882,15395
7132,15645
7182,15678
7240,15690
7677,15690
7837,15850
7837,19537
7849,19595
7851,19599
7882,19645
8052,19815
8052,19955
8048,19955
8031,19958
8028,19943
8005,19908
7970,19884
7929,19876
7925,19876
7925,19819
7914,19760
7880,19711
7643,19474
7643,17287
7642,17283
7632,17228
7598,17179
7348,16929
7348,16928
7299,16896
7240,16884
6304,16884
6143,16724
6143,15947
6327,15947
6327,16498
6335,16537
6357,16572
6392,16596
6433,16604
7141,16604
7180,16597
7215,16574
7239,16540
7247,16498
7247,16376
7287,16376
7302,16412
7364,16475
7446,16509
7534,16509
7616,16475
7678,16413
7712,16331
7712,16243
7678,16161
7616,16099
7535,16065
7446,16065
7432,16071
7426,16070
7247,16070
7247,15947
7240,15909
7217,15874
7182,15850
7141,15842
6433,15842
6395,15849
6359,15872
6336,15906
6327,15947
6143,15947
6143,15537
6133,15484
6132,15478
6098,15429
5848,15179
5799,15146
5740,15134
5639,15134
5639,15090
5632,15052
5609,15016
5575,14993
5534,14984
4746,14984
4708,14992
4672,15014
4649,15049
4640,15090
4640,15484
4648,15522
4670,15558
4705,15581
4746,15590
5534,15590
5572,15582
5607,15560
5631,15525
5639,15484
5639,15440
5677,15440
5837,15600
5837,16787
5849,16845
5875,16884
5882,16895
6121,17134
5639,17134
5639,17090
5632,17052
5609,17016
5575,16993
5534,16984
4746,16984
4708,16992
4672,17014
4649,17049
4643,17076
4643,16787
4632,16728
4598,16679
4340,16420
4340,16090
4333,16052
4310,16016
4275,15993
4234,15984
3447,15984
3408,15992
3373,16014
3349,16049
3341,16090
3341,16484
3348,16522
3371,16558
3406,16581
3447,16590
4077,16590
4337,16850
4337,17787
4349,17845
4375,17884
4382,17895
4632,18145
4682,18178
4740,18190
6079,18190
6114,18225
6196,18259
6284,18259
6366,18225
6428,18163
6462,18081
6462,17993
6428,17911
6366,17849
6285,17815
6196,17815
6115,17849
6079,17884
4804,17884
4643,17724
4643,17499
4648,17522
4670,17558
4705,17581
4746,17590
5534,17590
5572,17582
5607,17560
5631,17525
5639,17484
5639,17440
6427,17440
6587,17600
6587,19537
6599,19595
6601,19599
6632,19645
6752,19765
6752,19876
6748,19876
6710,19883
6689,19897
6670,19884
6629,19876
6315,19876
6277,19883
6241,19906
6218,19941
6209,19982
6209,20572
6217,20610
6239,20646
6274,20669
6315,20678
6629,20678
6668,20670
6689,20657
6707,20669
6748,20678
6956,20678
6956,20696
6990,20778
7054,20842
7136,20876
7207,20876
7263,20820
7263,20431
7255,20431
7255,20281
7263,20281
7263,19892
7207,19836
7136,19836
7058,19868
7058,19702
7047,19643
7013,19594
6893,19474
6893,17537
6883,17484
6882,17478
6848,17429
6609,17190
7177,17190
7337,17350
7337,19537
7349,19595
7351,19599
7382,19645
7596,19859
7540,19836
7469,19836
7413,19892
7413,20281
7421,20281
7421,20431
7413,20431
7413,20820
7469,20876
7540,20876
7623,20842
7686,20778
7720,20696
7720,20678
7929,20678
7947,20674
7950,20689
7972,20725
8007,20748
8048,20757
8362,20757
8401,20749
8436,20727
8460,20692
8463,20674
8481,20678
8795,20678
8834,20670
8869,20648
8893,20613
8896,20595
8913,20599
9227,20599
9245,20595
9248,20610
9270,20646
9305,20669
9346,20678
9660,20678
9699,20670
9734,20648
9758,20613
9766,20572
9766,20090
11341,20090
11341,20484
11348,20522
11371,20558
11406,20581
11447,20590
12234,20590
12273,20582
12308,20560
12332,20525
12340,20484
12340,20440
13757,20440
13765,20480
13874,20643
14038,20752
14230,20791
14250,20791
14443,20752
14606,20643
14715,20480
14754,20287
14715,20094
14606,19931
14443,19822
14298,19793
14640,19793
14679,19785
14714,19763
14738,19728
14746,19687
14746,18887
14739,18848
14716,18813
14681,18789
14640,18781
13840,18781
13802,18788
13766,18811
13743,18846
13734,18887
13734,19134
13639,19134
13639,19090
13632,19052
13609,19016
13575,18993
13534,18984
12746,18984
12708,18992
12672,19014
12649,19049
12640,19090
12640,19484
12648,19522
12670,19558
12705,19581
12746,19590
13534,19590
13572,19582
13607,19560
13631,19525
13639,19484
13639,19440
13734,19440
13734,19687
13742,19725
13764,19761
13799,19784
13840,19793
14183,19793
14038,19822
13874,19931
13765,20094
13757,20134
12340,20134
12340,20090
12333,20052
12310,20016
12275,19993
12234,19984
11447,19984
11408,19992
11373,20014
11349,20049
11341,20090
9766,20090
9766,19982
9759,19943
9736,19908
9701,19884
9660,19876
9346,19876
9329,19879
9326,19864
9303,19829
9268,19805
9227,19797
9223,19797
9223,19770
9348,19645
9379,19599
9382,19595
9393,19537
9393,17350
9848,16895
9856,16884
9882,16845
9893,16787
9893,15831
10768,15831
10802,15912
10837,15948
10837,18037
10849,18095
10875,18134
10882,18145
11132,18395
11182,18428
11240,18440
11341,18440
11341,18484
11348,18522
11371,18558
11406,18581
11447,18590
12234,18590
12273,18582
12308,18560
12332,18525
12340,18484
12340,18090
12333,18052
12310,18016
12275,17993
12234,17984
11447,17984
11408,17992
11373,18014
11349,18049
11341,18090
11341,18134
11304,18134
11143,17974
11143,17090
12640,17090
12640,17484
12648,17522
12670,17558
12705,17581
12746,17590
13534,17590
13572,17582
13607,17560
13631,17525
13639,17484
13639,17090
13632,17052
13609,17016
13575,16993
13534,16984
12746,16984
12708,16992
12672,17014
12649,17049
12640,17090
11143,17090
11143,16090
11341,16090
11341,16484
11348,16522
11371,16558
11406,16581
11447,16590
12234,16590
12273,16582
12308,16560
12332,16525
12340,16484
12340,16090
12333,16052
12310,16016
12275,15993
12234,15984
11447,15984
11408,15992
11373,16014
11349,16049
11341,16090
11143,16090
11143,15948
11178,15913
11212,15831
11212,15743
11178,15661
11116,15599
11035,15565
10946,15565
10865,15599
10802,15661
10768,15743
10768,15831
9893,15831
9893,15600
10054,15440
12640,15440
12640,15484
12648,15522
12670,15558
12705,15581
12746,15590
13534,15590
13572,15582
13607,15560
13631,15525
13639,15484
13639,15090
13632,15052
13609,15016
13575,14993
13534,14984
12746,14984
12708,14992
12672,15014
12649,15049
12640,15090
12640,15134
9990,15134
9932,15146
9882,15179
9632,15429
9599,15478
9587,15537
9587,16724
9132,17179
9099,17228
9087,17287
9087,19474
8962,19599
8929,19648
8917,19707
8917,19797
8913,19797
8875,19804
8839,19827
8816,19862
8812,19880
8795,19876
8791,19876
8791,19685
8780,19626
8746,19577
8643,19474
8643,18198
8678,18163
8712,18081
8712,17993
8678,17911
8616,17849
8535,17815
8446,17815
8365,17849
8302,17911
8268,17993
8268,18081
8302,18162
8337,18198
8337,19537
8349,19595
8351,19599
8382,19645
8485,19748
8485,19876
8481,19876
8443,19883
8407,19906
8384,19941
8380,19959
8362,19955
8358,19955
8358,19752
8347,19693
8313,19644
8143,19474
8143,16331
8268,16331
8302,16412
8364,16475
8446,16509
8534,16509
8570,16494
8570,16498
8578,16537
8600,16572
8635,16596
8676,16604
9384,16604
9423,16597
9458,16574
9482,16540
9490,16498
9490,15947
9483,15909
9460,15874
9425,15850
9384,15842
8676,15842
8638,15849
8602,15872
8579,15906
8570,15947
8570,16070
8554,16070
8549,16071
8535,16065
8446,16065
8365,16099
8302,16161
8268,16243
8268,16331
8143,16331
8143,15787
8132,15728
8098,15679
7848,15429
7848,15428
7799,15396
7740,15384
7304,15384
7143,15224
7143,11494
7149,11464
7149,11110
7331,11110
7331,11464
7339,11503
7361,11538
7396,11562
7437,11570
7634,11570
7672,11563
7708,11540
7731,11505
7740,11464
7740,11440
8229,11440
8229,11455
8237,11494
8259,11529
8294,11553
8335,11561
8649,11561
8688,11554
8723,11531
8747,11496
8755,11455
8755,11101
8977,11101
8977,11455
8985,11494
9007,11529
9042,11553
9083,11561
9397,11561
9436,11554
9471,11531
9495,11496
9503,11455
9503,11440
9991,11440
9991,11464
9998,11503
10021,11538
10055,11562
10097,11570
10293,11570
10332,11563
10367,11540
10391,11505
10399,11464
10399,11110
10581,11110
10581,11464
10589,11503
10611,11538
10633,11552
10633,11582
10644,11641
10670,11679
10677,11690
10837,11850
10837,14626
10802,14661
10768,14743
10768,14831
10802,14912
10864,14975
10946,15009
11034,15009
11116,14975
11178,14913
11212,14831
11212,14743
11178,14661
11143,14626
11143,14090
11341,14090
11341,14484
11348,14522
11371,14558
11406,14581
11447,14590
12234,14590
12273,14582
12308,14560
12332,14525
12340,14484
12340,14090
12333,14052
12310,14016
12275,13993
12234,13984
11447,13984
11408,13992
11373,14014
11349,14049
11341,14090
11143,14090
11143,13090
12640,13090
12640,13484
12648,13522
12670,13558
12705,13581
12746,13590
13534,13590
13572,13582
13607,13560
13631,13525
13639,13484
13639,13090
13632,13052
13609,13016
13575,12993
13534,12984
12746,12984
12708,12992
12672,13014
12649,13049
12640,13090
11143,13090
11143,12090
11341,12090
11341,12484
11348,12522
11371,12558
11406,12581
11447,12590
12234,12590
12273,12582
12308,12560
12332,12525
12340,12484
12340,12090
12333,12052
12310,12016
12275,11993
12234,11984
11447,11984
11408,11992
11373,12014
11349,12049
11341,12090
11143,12090
11143,11787
11134,11743
16546,11743
16651,11999
16846,12194
17102,12300
17378,12300
17633,12195
17828,12000
17934,11745
17935,11468
17829,11213
17634,11018
17379,10912
17103,10911
16847,11017
16652,11212
16546,11467
16546,11743
11134,11743
11132,11728
11098,11679
10958,11539
10981,11505
10990,11464
10990,11110
10986,11090
12640,11090
12640,11484
12648,11522
12670,11558
12705,11581
12746,11590
13534,11590
13572,11582
13607,11560
13631,11525
13639,11484
13639,11090
13632,11052
13609,11016
13575,10993
13534,10984
12746,10984
12708,10992
12672,11014
12649,11049
12640,11090
10986,11090
10982,11071
10960,11036
10925,11012
10884,11004
10687,11004
10649,11011
10613,11034
10590,11069
10581,11110
10399,11110
10392,11071
10369,11036
10335,11012
10293,11004
10097,11004
10058,11011
10023,11034
9999,11069
9991,11110
9991,11134
9503,11134
9503,11101
9496,11063
9473,11028
9438,11004
9397,10996
9083,10996
9045,11003
9009,11026
8986,11060
8977,11101
8755,11101
8748,11063
8725,11028
8690,11004
8649,10996
8335,10996
8297,11003
8261,11026
8238,11060
8229,11101
8229,11134
7740,11134
7740,11110
7732,11071
7710,11036
7675,11012
7634,11004
7437,11004
7399,11011
7363,11034
7340,11069
7331,11110
7149,11110
7142,11071
7119,11036
7085,11012
7043,11004
6847,11004
6808,11011
6773,11034
6749,11069
6741,11110
6741,11134
6554,11134
6393,10974
6393,10110
6741,10110
6741,10464
6748,10503
6771,10538
6805,10562
6847,10570
7043,10570
7082,10563
7117,10540
7141,10505
7149,10464
7149,10110
7331,10110
7331,10464
7339,10503
7361,10538
7396,10562
7437,10570
7634,10570
7672,10563
7708,10540
7731,10505
7740,10464
7740,10440
8597,10440
8603,10446
8603,10669
8611,10708
8633,10743
8668,10767
8709,10775
9023,10775
9062,10768
9097,10745
9121,10710
9129,10669
9129,10446
9135,10440
9991,10440
9991,10464
9998,10503
10021,10538
10055,10562
10097,10570
10293,10570
10332,10563
10367,10540
10391,10505
10399,10464
10399,10110
10392,10071
10369,10036
10335,10012
10293,10004
10097,10004
10058,10011
10023,10034
9999,10069
9991,10110
9991,10134
9072,10134
9013,10146
8963,10179
8933,10210
8800,10210
8769,10179
8719,10146
8661,10134
7740,10134
7740,10110
7732,10071
7710,10036
7675,10012
7634,10004
7437,10004
7399,10011
7363,10034
7340,10069
7331,10110
7149,10110
7142,10071
7119,10036
7098,10021
7098,9896
7304,9690
8490,9690
8549,9678
8598,9645
8848,9395
8882,9345
8893,9287
8893,7020
8910,7017
9054,6921
9150,6777
9184,6607
9184,6586
9186,6586
9270,7008
9509,7367
9867,7606
10289,7690
10633,7690
10633,10022
10613,10034
10590,10069
10581,10110
10581,10464
10589,10503
10611,10538
10646,10562
10687,10570
10884,10570
10922,10563
10958,10540
10981,10505
10990,10464
10990,10110
10986,10090
11341,10090
11341,10484
11348,10522
11371,10558
11406,10581
11447,10590
12234,10590
12273,10582
12308,10560
12332,10525
12340,10484
12340,10241
13708,10241
13708,11375
13742,11458
13806,11521
13888,11555
14570,11555
14626,11499
14626,10185
14776,10185
14776,11499
14832,11555
15513,11555
15596,11521
15659,11458
15694,11375
15694,10241
15637,10185
14776,10185
14626,10185
13764,10185
13708,10241
12340,10241
12340,10090
12333,10052
12310,10016
12275,9993
12234,9984
11447,9984
11408,9992
11373,10014
11349,10049
11341,10090
10986,10090
10982,10071
10960,10036
10938,10021
10938,7690
12987,7690
12987,8984
12746,8984
12708,8992
12672,9014
12649,9049
12640,9090
12640,9484
12648,9522
12670,9558
12705,9581
12746,9590
13534,9590
13572,9582
13607,9560
13631,9525
13639,9484
13639,9090
13632,9052
13609,9016
13575,8993
13534,8984
13293,8984
13293,8845
13708,8845
13708,9978
13764,10035
14626,10035
14626,8721
14776,8721
14776,10035
15637,10035
15694,9978
15694,8845
15659,8762
15596,8699
15513,8664
14832,8664
14776,8721
14626,8721
14570,8664
13888,8664
13806,8699
13742,8762
13708,8845
13293,8845
13293,7690
17240,7690
17663,7606
17734,7558
17890,7558
17928,7551
17964,7528
17987,7493
17996,7452
17996,7383
18021,7367
18260,7008
18344,6586
18305,6391
18465,6391
18545,6584
18692,6732
18885,6812
19094,6812
19287,6732
19435,6585
19515,6392
19515,6183
19436,5990
19288,5842
19095,5762
18886,5762
18693,5842
18545,5989
18465,6182
18465,6391
18305,6391
18260,6164
18021,5806
17996,5789
17996,5720
17988,5682
17966,5646
17931,5623
17890,5614
17734,5614
17663,5566
17240,5482
15502,5482
15502,4146
15668,4146
15668,4375
15702,4457
15766,4520
15848,4555
16391,4555
16448,4498
16448,4090
16598,4090
16598,4498
16654,4555
17197,4555
17280,4520
17343,4457
17377,4375
17377,4146
17321,4090
16598,4090
16448,4090
15724,4090
15668,4146
15502,4146
15502,4015
15431,3656
15668,3656
15668,3884
15724,3940
16448,3940
16448,3532
16598,3532
16598,3940
17321,3940
17377,3884
17377,3656
17343,3573
17280,3510
17197,3476
16654,3476
16598,3532
16448,3532
16391,3476
15848,3476
15766,3510
15702,3573
15668,3656
15431,3656
15418,3593
15179,3235
14821,2996
14399,2912
13976,2996
13618,3235
13379,3593
13295,4015
13295,5482
10289,5482
9867,5566
9509,5806
9270,6164
9186,6586
9184,6586
9184,6467
9150,6297
9054,6153
8910,6057
8740,6023
8570,6057
8426,6153
8330,6297
8296,6467
8296,6607
8330,6777
8426,6921
8570,7017
8587,7020
8587,9224
8427,9384
7240,9384
7182,9396
7133,9428
7132,9429
6837,9724
6804,9774
6792,9832
6792,10022
6773,10034
6749,10069
6741,10110
6393,10110
6393,7215
6668,7215
6748,7342
7094,7469
7461,7454
7732,7342
7812,7215
7240,6643
6668,7215
6393,7215
6393,6927
6436,7029
6562,7109
7134,6537
7346,6537
7918,7109
8045,7029
8172,6683
8157,6316
8045,6045
7918,5965
7346,6537
7134,6537
6562,5965
6436,6045
6309,6389
6098,6179
6049,6146
5990,6134
4340,6134
4340,6090
4333,6052
4310,6016
4275,5993
4234,5984
3447,5984
3408,5992
3373,6014
3349,6049
3341,6090
2993,6090
2993,6089
2994,5880
2985,5859
6668,5859
7240,6431
7812,5859
7732,5732
7387,5605
7019,5620
6748,5732
6668,5859
2985,5859
2914,5687
2766,5539
2573,5459
2365,5459
2172,5538
2024,5686
1944,5879
1943,6088
998,6088
998,5090
4640,5090
4640,5484
4648,5522
4670,5558
4705,5581
4746,5590
5534,5590
5572,5582
5607,5560
5631,5525
5639,5484
5639,5090
5632,5052
5609,5016
5575,4993
5534,4984
4746,4984
4708,4992
4672,5014
4649,5049
4640,5090
998,5090
998,3632
1082,3210
1315,2862
1664,2629
2085,2545
19387,2545
19809,2629
" /> 
</g>
<g style="fill:#FFFFFF; fill-opacity:1.0; 
stroke:#FFFFFF; stroke-width:50; stroke-opacity:1; 
stroke-linecap:round; stroke-linejoin:round;">
</g>
<g style="fill:#FFFFFF; fill-opacity:1.0; 
stroke:#FFFFFF; stroke-width:0; stroke-opacity:1; 
stroke-linecap:round; stroke-linejoin:round;">
<circle cx="8490.72" cy="16287.4" r="78.7402" /> 
</g>
<g style="fill:#FFFFFF; fill-opacity:1.0; 
stroke:#FFFFFF; stroke-width:78.7402; stroke-opacity:1; 
stroke-linecap:round; stroke-linejoin:round;">
</g>
<g style="fill:#FFFFFF; fill-opacity:1.0; 
stroke:#FFFFFF; stroke-width:0; stroke-opacity:1; 
stroke-linecap:round; stroke-linejoin:round;">
<circle cx="7490.72" cy="16287.4" r="78.7402" /> 
</g>
<g style="fill:#FFFFFF; fill-opacity:1.0; 
stroke:#FFFFFF; stroke-width:78.7402; stroke-opacity:1; 
stroke-linecap:round; stroke-linejoin:round;">
</g>
<g style="fill:#FFFFFF; fill-opacity:1.0; 
stroke:#FFFFFF; stroke-width:0; stroke-opacity:1; 
stroke-linecap:round; stroke-linejoin:round;">
<circle cx="8490.72" cy="18037.4" r="78.7402" /> 
</g>
<g style="fill:#FFFFFF; fill-opacity:1.0; 
stroke:#FFFFFF; stroke-width:78.7402; stroke-opacity:1; 
stroke-linecap:round; stroke-linejoin:round;">
</g>
<g style="fill:#FFFFFF; fill-opacity:1.0; 
stroke:#FFFFFF; stroke-width:0; stroke-opacity:1; 
stroke-linecap:round; stroke-linejoin:round;">
<circle cx="6240.72" cy="18037.4" r="78.7402" /> 
</g>
<g style="fill:#FFFFFF; fill-opacity:1.0; 
stroke:#FFFFFF; stroke-width:78.7402; stroke-opacity:1; 
stroke-linecap:round; stroke-linejoin:round;">
</g>
<g style="fill:#FFFFFF; fill-opacity:1.0; 
stroke:#FFFFFF; stroke-width:0; stroke-opacity:1; 
stroke-linecap:round; stroke-linejoin:round;">
<circle cx="10990.7" cy="15787.4" r="78.7402" /> 
</g>
<g style="fill:#FFFFFF; fill-opacity:1.0; 
stroke:#FFFFFF; stroke-width:78.7402; stroke-opacity:1; 
stroke-linecap:round; stroke-linejoin:round;">
</g>
<g style="fill:#FFFFFF; fill-opacity:1.0; 
stroke:#FFFFFF; stroke-width:0; stroke-opacity:1; 
stroke-linecap:round; stroke-linejoin:round;">
<circle cx="10990.7" cy="14787.4" r="78.7402" /> 
</g>
<g style="fill:#FFFFFF; fill-opacity:1.0; 
stroke:#FFFFFF; stroke-width:78.7402; stroke-opacity:1; 
stroke-linecap:round; stroke-linejoin:round;">
</g>
<g style="fill:#FFFFFF; fill-opacity:1.0; 
stroke:#FFFFFF; stroke-width:0; stroke-opacity:1; 
stroke-linecap:round; stroke-linejoin:round;">
<circle cx="14240.7" cy="19287.4" r="200" /> 
</g>
<g style="fill:#FFFFFF; fill-opacity:1.0; 
stroke:#FFFFFF; stroke-width:78.7402; stroke-opacity:1; 
stroke-linecap:round; stroke-linejoin:round;">
</g>
<g style="fill:#FFFFFF; fill-opacity:1.0; 
stroke:#FFFFFF; stroke-width:0; stroke-opacity:1; 
stroke-linecap:round; stroke-linejoin:round;">
<circle cx="14240.7" cy="20287.4" r="200" /> 
</g>
<g style="fill:#FFFFFF; fill-opacity:1.0; 
stroke:#FFFFFF; stroke-width:78.7402; stroke-opacity:1; 
stroke-linecap:round; stroke-linejoin:round;">
</g>
<g style="fill:#FFFFFF; fill-opacity:1.0; 
stroke:#FFFFFF; stroke-width:0; stroke-opacity:1; 
stroke-linecap:round; stroke-linejoin:round;">
<circle cx="2740.72" cy="17537.4" r="200" /> 
</g>
<g style="fill:#FFFFFF; fill-opacity:1.0; 
stroke:#FFFFFF; stroke-width:78.7402; stroke-opacity:1; 
stroke-linecap:round; stroke-linejoin:round;">
</g>
<g style="fill:#FFFFFF; fill-opacity:1.0; 
stroke:#FFFFFF; stroke-width:0; stroke-opacity:1; 
stroke-linecap:round; stroke-linejoin:round;">
<circle cx="2740.72" cy="18537.4" r="200" /> 
</g>
<g style="fill:#FFFFFF; fill-opacity:1.0; 
stroke:#FFFFFF; stroke-width:78.7402; stroke-opacity:1; 
stroke-linecap:round; stroke-linejoin:round;">
</g>
<g style="fill:#FFFFFF; fill-opacity:1.0; 
stroke:#FFFFFF; stroke-width:0; stroke-opacity:1; 
stroke-linecap:round; stroke-linejoin:round;">
<circle cx="2740.72" cy="9287.4" r="200" /> 
</g>
<g style="fill:#FFFFFF; fill-opacity:1.0; 
stroke:#FFFFFF; stroke-width:78.7402; stroke-opacity:1; 
stroke-linecap:round; stroke-linejoin:round;">
</g>
<g style="fill:#FFFFFF; fill-opacity:1.0; 
stroke:#FFFFFF; stroke-width:0; stroke-opacity:1; 
stroke-linecap:round; stroke-linejoin:round;">
<circle cx="2740.72" cy="10287.4" r="200" /> 
</g>
<g style="fill:#FFFFFF; fill-opacity:1.0; 
stroke:#FFFFFF; stroke-width:78.7402; stroke-opacity:1; 
stroke-linecap:round; stroke-linejoin:round;">
</g>
<g style="fill:#FFFFFF; fill-opacity:1.0; 
stroke:#FFFFFF; stroke-width:0; stroke-opacity:1; 
stroke-linecap:round; stroke-linejoin:round;">
<circle cx="2740.72" cy="11287.4" r="200" /> 
</g>
<g style="fill:#FFFFFF; fill-opacity:1.0; 
stroke:#FFFFFF; stroke-width:78.7402; stroke-opacity:1; 
stroke-linecap:round; stroke-linejoin:round;">
</g>
<g style="fill:#FFFFFF; fill-opacity:1.0; 
stroke:#FFFFFF; stroke-width:0; stroke-opacity:1; 
stroke-linecap:round; stroke-linejoin:round;">
<circle cx="2740.72" cy="12287.4" r="200" /> 
</g>
<g style="fill:#FFFFFF; fill-opacity:1.0; 
stroke:#FFFFFF; stroke-width:78.7402; stroke-opacity:1; 
stroke-linecap:round; stroke-linejoin:round;">
</g>
<g style="fill:#FFFFFF; fill-opacity:1.0; 
stroke:#FFFFFF; stroke-width:0; stroke-opacity:1; 
stroke-linecap:round; stroke-linejoin:round;">
<circle cx="2740.72" cy="13287.4" r="200" /> 
</g>
<g style="fill:#FFFFFF; fill-opacity:1.0; 
stroke:#FFFFFF; stroke-width:78.7402; stroke-opacity:1; 
stroke-linecap:round; stroke-linejoin:round;">
</g>
<g style="fill:#FFFFFF; fill-opacity:1.0; 
stroke:#FFFFFF; stroke-width:0; stroke-opacity:1; 
stroke-linecap:round; stroke-linejoin:round;">
<circle cx="2740.72" cy="14287.4" r="200" /> 
</g>
<g style="fill:#FFFFFF; fill-opacity:1.0; 
stroke:#FFFFFF; stroke-width:78.7402; stroke-opacity:1; 
stroke-linecap:round; stroke-linejoin:round;">
</g>
<g style="fill:#FFFFFF; fill-opacity:1.0; 
stroke:#FFFFFF; stroke-width:0; stroke-opacity:1; 
stroke-linecap:round; stroke-linejoin:round;">
<circle cx="10240.7" cy="6537.4" r="400" /> 
</g>
<g style="fill:#FFFFFF; fill-opacity:1.0; 
stroke:#FFFFFF; stroke-width:78.7402; stroke-opacity:1; 
stroke-linecap:round; stroke-linejoin:round;">
</g>
<g style="fill:#FFFFFF; fill-opacity:1.0; 
stroke:#FFFFFF; stroke-width:0; stroke-opacity:1; 
stroke-linecap:round; stroke-linejoin:round;">
<circle cx="8740.72" cy="6537.4" r="200" /> 
</g>
<g style="fill:#FFFFFF; fill-opacity:1.0; 
stroke:#FFFFFF; stroke-width:78.7402; stroke-opacity:1; 
stroke-linecap:round; stroke-linejoin:round;">
</g>
<g style="fill:#FFFFFF; fill-opacity:1.0; 
stroke:#FFFFFF; stroke-width:0; stroke-opacity:1; 
stroke-linecap:round; stroke-linejoin:round;">
<circle cx="7240.72" cy="6537.4" r="400" /> 
</g>
<g style="fill:#FFFFFF; fill-opacity:1.0; 
stroke:#FFFFFF; stroke-width:78.7402; stroke-opacity:1; 
stroke-linecap:round; stroke-linejoin:round;">
</g>
<g style="fill:#FFFFFF; fill-opacity:1.0; 
stroke:#FFFFFF; stroke-width:0; stroke-opacity:1; 
stroke-linecap:round; stroke-linejoin:round;">
<circle cx="2469.07" cy="20551.2" r="600" /> 
</g>
<g style="fill:#FFFFFF; fill-opacity:1.0; 
stroke:#FFFFFF; stroke-width:78.7402; stroke-opacity:1; 
stroke-linecap:round; stroke-linejoin:round;">
</g>
<g style="fill:#FFFFFF; fill-opacity:1.0; 
stroke:#FFFFFF; stroke-width:0; stroke-opacity:1; 
stroke-linecap:round; stroke-linejoin:round;">
<circle cx="19004.5" cy="4015.75" r="600" /> 
</g>
<g style="fill:#FFFFFF; fill-opacity:1.0; 
stroke:#FFFFFF; stroke-width:78.7402; stroke-opacity:1; 
stroke-linecap:round; stroke-linejoin:round;">
</g>
<g style="fill:#FFFFFF; fill-opacity:1.0; 
stroke:#FFFFFF; stroke-width:0; stroke-opacity:1; 
stroke-linecap:round; stroke-linejoin:round;">
<circle cx="2469.07" cy="4015.75" r="600" /> 
</g>
<g style="fill:#FFFFFF; fill-opacity:1.0; 
stroke:#FFFFFF; stroke-width:78.7402; stroke-opacity:1; 
stroke-linecap:round; stroke-linejoin:round;">
</g>
<g style="fill:#FFFFFF; fill-opacity:1.0; 
stroke:#FFFFFF; stroke-width:0; stroke-opacity:1; 
stroke-linecap:round; stroke-linejoin:round;">
<circle cx="19004.5" cy="20551.2" r="600" /> 
</g>
<g style="fill:#FFFFFF; fill-opacity:1.0; 
stroke:#FFFFFF; stroke-width:78.7402; stroke-opacity:1; 
stroke-linecap:round; stroke-linejoin:round;">
</g>
<g style="fill:#FFFFFF; fill-opacity:1.0; 
stroke:#FFFFFF; stroke-width:0; stroke-opacity:1; 
stroke-linecap:round; stroke-linejoin:round;">
<circle cx="17240.7" cy="11606.3" r="413.386" /> 
</g>
<g style="fill:#FFFFFF; fill-opacity:1.0; 
stroke:#FFFFFF; stroke-width:78.7402; stroke-opacity:1; 
stroke-linecap:round; stroke-linejoin:round;">
</g>
<g style="fill:#000000; fill-opacity:1.0; 
stroke:#000000; stroke-width:78.7402; stroke-opacity:1; 
stroke-linecap:round; stroke-linejoin:round;">
</g>
<g style="fill:#008484; fill-opacity:1.0; 
stroke:#008484; stroke-width:78.7402; stroke-opacity:1; 
stroke-linecap:round; stroke-linejoin:round;">
</g>
<g style="fill:#008484; fill-opacity:0.0; 
stroke:#008484; stroke-width:78.7402; stroke-opacity:1; 
stroke-linecap:round; stroke-linejoin:round;">
</g>
<g style="fill:#008484; fill-opacity:0.0; 
stroke:#008484; stroke-width:125; stroke-opacity:1; 
stroke-linecap:round; stroke-linejoin:round;">
<path d="M17038 17763
L17038 17263
" />
<path d="M17324 17763
L17109 17477
" />
<path d="M17324 17263
L17038 17549
" />
<path d="M17538 17763
L17538 17430
" />
<path d="M17538 17263
L17514 17287
L17538 17311
L17562 17287
L17538 17263
L17538 17311
" />
<path d="M17847 17763
L17800 17739
L17776 17692
L17776 17263
" />
<path d="M18109 17763
L18062 17739
L18038 17715
L18014 17668
L18014 17525
L18038 17477
L18062 17454
L18109 17430
L18181 17430
L18228 17454
L18252 17477
L18276 17525
L18276 17668
L18252 17715
L18228 17739
L18181 17763
L18109 17763
" />
<path d="M19109 17763
L18871 17763
L18871 17263
" />
<path d="M19514 17763
L19276 17763
L19276 17263
" />
<path d="M19966 17715
L19943 17739
L19871 17763
L19824 17763
L19752 17739
L19705 17692
L19681 17644
L19657 17549
L19657 17477
L19681 17382
L19705 17335
L19752 17287
L19824 17263
L19871 17263
L19943 17287
L19966 17311
" />
</g>
<g style="fill:#008484; fill-opacity:0.0; 
stroke:#008484; stroke-width:150; stroke-opacity:1; 
stroke-linecap:round; stroke-linejoin:round;">
<path d="M14019 16808
L14019 16208
" />
<path d="M14019 16494
L14362 16494
" />
<path d="M14362 16808
L14362 16208
" />
<path d="M14647 16208
L14647 16694
L14676 16751
L14705 16780
L14762 16808
L14876 16808
L14933 16780
L14962 16751
L14990 16694
L14990 16208
" />
<path d="M15276 16494
L15476 16494
" />
<path d="M15562 16808
L15276 16808
L15276 16208
L15562 16208
" />
<path d="M15933 16523
L15933 16808
" />
<path d="M15733 16208
L15933 16523
L16133 16208
" />
<path d="M17133 16808
L16933 16523
" />
<path d="M16790 16808
L16790 16208
L17019 16208
L17076 16237
L17105 16265
L17133 16323
L17133 16408
L17105 16465
L17076 16494
L17019 16523
L16790 16523
" />
<path d="M17619 16780
L17562 16808
L17447 16808
L17390 16780
L17362 16723
L17362 16494
L17390 16437
L17447 16408
L17562 16408
L17619 16437
L17647 16494
L17647 16551
L17362 16608
" />
<path d="M17847 16408
L17990 16808
L18133 16408
" />
<path d="M19133 16808
L18790 16808
" />
<path d="M18962 16808
L18962 16208
L18905 16294
L18847 16351
L18790 16380
" />
<path d="M19390 16751
L19419 16780
L19390 16808
L19362 16780
L19390 16751
L19390 16808
" />
<path d="M19790 16208
L19847 16208
L19905 16237
L19933 16265
L19962 16323
L19990 16437
L19990 16580
L19962 16694
L19933 16751
L19905 16780
L19847 16808
L19790 16808
L19733 16780
L19705 16751
L19676 16694
L19647 16580
L19647 16437
L19676 16323
L19705 16265
L19733 16237
L19790 16208
" />
</g>
<g style="fill:#008484; fill-opacity:0.0; 
stroke:#008484; stroke-width:59.0551; stroke-opacity:1; 
stroke-linecap:round; stroke-linejoin:round;">
<path d="M14740 19787
L14740 20787
" />
<path d="M14850 18677
L14850 19287
" />
<path d="M14740 19787
L13740 19787
" />
<path d="M13630 19287
L13630 18677
" />
<path d="M13630 18677
L14850 18677
" />
<path d="M13740 19787
L13740 20787
" />
<path d="M13740 20787
L14740 20787
" />
<path d="M3240 18037
L3240 19037
" />
<path d="M3350 16927
L3350 17537
" />
<path d="M3240 18037
L2240 18037
" />
<path d="M2130 17537
L2130 16927
" />
<path d="M2130 16927
L3350 16927
" />
<path d="M2240 18037
L2240 19037
" />
<path d="M2240 19037
L3240 19037
" />
<path d="M3240 9787
L3240 14787
" />
<path d="M3240 14787
L2240 14787
" />
<path d="M2240 14787
L2240 9787
" />
<path d="M3350 8677
L3350 9287
" />
<path d="M3240 9787
L2240 9787
" />
<path d="M2130 9287
L2130 8677
" />
<path d="M2130 8677
L3350 8677
" />
</g>
<g style="fill:#008484; fill-opacity:0.0; 
stroke:#008484; stroke-width:50; stroke-opacity:1; 
stroke-linecap:round; stroke-linejoin:round;">
<path d="M11505 21311
L11505 16036
" />
<path d="M11505 16036
L9493 16036
" />
<path d="M6300 16036
L5975 16036
" />
<path d="M5975 16036
L5975 20878
" />
<path d="M5975 21906
L5975 22038
" />
<path d="M5975 22038
L10964 22038
" />
<path d="M9655 22038
L9655 22275
" />
<path d="M6300 22038
L6300 22275
" />
<path d="M9655 22275
L6300 22275
" />
<path d="M9655 22275
L9655 22668
" />
<path d="M9655 22668
L6300 22668
" />
<path d="M6300 22668
L6300 22285
" />
<path d="M9655 22668
L9655 24000
" />
<path d="M9530 24125
L6425 24125
" />
<path d="M6300 24000
L6300 22668
" />
<path d="M8583 16036
L7274 16036
" />
<path d="M8032 21960
L7924 21960
" />
<path d="M7924 21960
L7924 21744
" />
<path d="M7924 21744
L7816 21744
" />
<path d="M7816 21744
L7978 21581
" />
<path d="M7978 21581
L8141 21744
" />
<path d="M8141 21744
L8032 21744
" />
<path d="M8032 21744
L8032 21960
" />
<path d="M9530.72 24125.4 A125 125 0.0 0 0 9655.72 24000.4 " />
<path d="M6300.72 24000.4 A125 125 0.0 0 0 6425.72 24125.4 " />
<path d="M8237 11593
L9495 11593
" />
<path d="M9495 11593
L9495 10177
" />
<path d="M9495 10177
L8237 10177
" />
<path d="M8237 10177
L8237 11593
" />
<path d="M8000 11514
L7980 11512
" />
<path d="M7980 11512
L7961 11504
" />
<path d="M7961 11504
L7945 11491
" />
<path d="M7945 11491
L7932 11475
" />
<path d="M7932 11475
L7924 11456
" />
<path d="M7924 11456
L7922 11436
" />
<path d="M7922 11436
L7924 11415
" />
<path d="M7924 11415
L7932 11396
" />
<path d="M7932 11396
L7945 11380
" />
<path d="M7945 11380
L7961 11367
" />
<path d="M7961 11367
L7980 11360
" />
<path d="M7980 11360
L8000 11357
" />
<path d="M8000 11357
L8021 11360
" />
<path d="M8021 11360
L8040 11367
" />
<path d="M8040 11367
L8056 11380
" />
<path d="M8056 11380
L8069 11396
" />
<path d="M8069 11396
L8076 11415
" />
<path d="M8076 11415
L8079 11436
" />
<path d="M8079 11436
L8076 11456
" />
<path d="M8076 11456
L8069 11475
" />
<path d="M8069 11475
L8056 11491
" />
<path d="M8056 11491
L8040 11504
" />
<path d="M8040 11504
L8021 11512
" />
<path d="M8021 11512
L8000 11514
" />
</g>
<g style="fill:#008484; fill-opacity:0.0; 
stroke:#008484; stroke-width:59.0551; stroke-opacity:1; 
stroke-linecap:round; stroke-linejoin:round;">
<path d="M7043 11021
L7437 11021
" />
<path d="M7437 11553
L7043 11553
" />
<path d="M10687 11553
L10293 11553
" />
<path d="M10293 11021
L10687 11021
" />
<path d="M10293 10021
L10687 10021
" />
<path d="M10687 10553
L10293 10553
" />
<path d="M7437 10553
L7043 10553
" />
<path d="M7043 10021
L7437 10021
" />
</g>
<g style="fill:#008484; fill-opacity:0.0; 
stroke:#008484; stroke-width:20; stroke-opacity:1; 
stroke-linecap:round; stroke-linejoin:round;">
<circle cx="2469.07" cy="20551.2" r="1150" /> 
<circle cx="19004.5" cy="4015.75" r="1150" /> 
<circle cx="2469.07" cy="4015.75" r="1150" /> 
<circle cx="19004.5" cy="20551.2" r="1150" /> 
</g>
<g style="fill:#008484; fill-opacity:0.0; 
stroke:#008484; stroke-width:59.0551; stroke-opacity:1; 
stroke-linecap:round; stroke-linejoin:round;">
<path d="M19012 12787
L19012 7275
" />
<path d="M19012 7275
L15469 7275
" />
<path d="M15469 7275
L15469 12787
" />
<path d="M17240 12787
L19012 12787
" />
<path d="M17240 12787
L15469 12787
" />
</g>
<g style="fill:#008484; fill-opacity:0.0; 
stroke:#008484; stroke-width:50; stroke-opacity:1; 
stroke-linecap:round; stroke-linejoin:round;">
<path d="M16760 4448
L16760 5314
" />
<path d="M16760 5314
L14556 5314
" />
<path d="M14556 5314
L14162 4920
" />
<path d="M14162 4920
L14162 4448
" />
<path d="M16760 3582
L16760 2716
" />
<path d="M16760 2716
L14556 2716
" />
<path d="M14556 2716
L14162 3110
" />
<path d="M14162 3110
L14162 3582
" />
<path d="M14871 4802
L14477 4802
" />
<path d="M14674 4605
L14674 4999
" />
</g>
<g style="fill:#008484; fill-opacity:0.0; 
stroke:#008484; stroke-width:59.0551; stroke-opacity:1; 
stroke-linecap:round; stroke-linejoin:round;">
<path d="M12490 8787
L12490 9787
" />
<path d="M11990 9287
L12990 9287
" />
<path d="M12490 19787
L12490 20787
" />
<path d="M11990 20287
L12990 20287
" />
<path d="M3990 20287
L4990 20287
" />
<path d="M4490 20787
L4490 19787
" />
<path d="M4490 4787
L4490 5787
" />
<path d="M4990 5287
L3990 5287
" />
<path d="M10990 2287
L12990 2287
" />
<path d="M5990 2287
L3990 2287
" />
<path d="M5990 1287
L5990 3787
" />
<path d="M5990 3787
L10990 3787
" />
<path d="M10990 3787
L10990 1287
" />
<path d="M10990 1287
L5990 1287
" />
<path d="M12990 2287
L12990 22287
" />
<path d="M12990 22287
L3990 22287
" />
<path d="M3990 22287
L3990 2287
" />
<path d="M15012 20446
L15068 20465
L15162 20465
L15200 20446
L15218 20428
L15237 20390
L15237 20353
L15218 20315
L15200 20296
L15162 20278
L15087 20259
L15050 20240
L15031 20221
L15012 20184
L15012 20146
L15031 20109
L15050 20090
L15087 20071
L15181 20071
L15237 20090
" />
<path d="M15406 20465
L15406 20071
L15500 20071
L15556 20090
L15593 20128
L15612 20165
L15631 20240
L15631 20296
L15612 20371
L15593 20409
L15556 20446
L15500 20465
L15406 20465
" />
<path d="M15781 20353
L15968 20353
" />
<path d="M15743 20465
L15875 20071
L16006 20465
" />
<path d="M15022 19446
L15078 19465
L15172 19465
L15209 19446
L15228 19428
L15247 19390
L15247 19353
L15228 19315
L15209 19296
L15172 19278
L15097 19259
L15059 19240
L15040 19221
L15022 19184
L15022 19146
L15040 19109
L15059 19090
L15097 19071
L15190 19071
L15247 19090
" />
<path d="M15640 19428
L15621 19446
L15565 19465
L15528 19465
L15471 19446
L15434 19409
L15415 19371
L15396 19296
L15396 19240
L15415 19165
L15434 19128
L15471 19090
L15528 19071
L15565 19071
L15621 19090
L15640 19109
" />
<path d="M15996 19465
L15809 19465
L15809 19071
" />
<path d="M1190 18321
L1415 18321
" />
<path d="M1303 18715
L1303 18321
" />
<path d="M1509 18321
L1771 18715
" />
<path d="M1771 18321
L1509 18715
" />
<path d="M1425 17715
L1293 17528
" />
<path d="M1200 17715
L1200 17321
L1350 17321
L1387 17340
L1406 17359
L1425 17396
L1425 17453
L1406 17490
L1387 17509
L1350 17528
L1200 17528
" />
<path d="M1556 17321
L1818 17715
" />
<path d="M1818 17321
L1556 17715
" />
<path d="M1209 14353
L1396 14353
" />
<path d="M1172 14465
L1303 14071
L1434 14465
" />
<path d="M1753 14071
L1565 14071
L1546 14259
L1565 14240
L1603 14221
L1696 14221
L1734 14240
L1753 14259
L1771 14296
L1771 14390
L1753 14428
L1734 14446
L1696 14465
L1603 14465
L1565 14446
L1546 14428
" />
<path d="M1209 13353
L1396 13353
" />
<path d="M1172 13465
L1303 13071
L1434 13465
" />
<path d="M1734 13203
L1734 13465
" />
<path d="M1640 13053
L1546 13334
L1790 13334
" />
<path d="M1209 12353
L1396 12353
" />
<path d="M1172 12465
L1303 12071
L1434 12465
" />
<path d="M1528 12071
L1771 12071
L1640 12221
L1696 12221
L1734 12240
L1753 12259
L1771 12296
L1771 12390
L1753 12428
L1734 12446
L1696 12465
L1584 12465
L1546 12446
L1528 12428
" />
<path d="M1209 11353
L1396 11353
" />
<path d="M1172 11465
L1303 11071
L1434 11465
" />
<path d="M1546 11109
L1565 11090
L1603 11071
L1696 11071
L1734 11090
L1753 11109
L1771 11146
L1771 11184
L1753 11240
L1528 11465
L1771 11465
" />
<path d="M1209 10353
L1396 10353
" />
<path d="M1172 10465
L1303 10071
L1434 10465
" />
<path d="M1771 10465
L1546 10465
" />
<path d="M1659 10465
L1659 10071
L1621 10128
L1584 10165
L1546 10184
" />
<path d="M1209 9353
L1396 9353
" />
<path d="M1172 9465
L1303 9071
L1434 9465
" />
<path d="M1640 9071
L1678 9071
L1715 9090
L1734 9109
L1753 9146
L1771 9221
L1771 9315
L1753 9390
L1734 9428
L1715 9446
L1678 9465
L1640 9465
L1603 9446
L1584 9428
L1565 9390
L1546 9315
L1546 9221
L1565 9146
L1584 9109
L1603 9090
L1640 9071
" />
</g>
<g style="fill:#008484; fill-opacity:0.0; 
stroke:#008484; stroke-width:60; stroke-opacity:1; 
stroke-linecap:round; stroke-linejoin:round;">
<path d="M9485 15449
L9543 15468
L9638 15468
L9676 15449
L9695 15430
L9714 15392
L9714 15354
L9695 15315
L9676 15296
L9638 15277
L9562 15258
L9524 15239
L9505 15220
L9485 15182
L9485 15144
L9505 15106
L9524 15087
L9562 15068
L9657 15068
L9714 15087
" />
<path d="M9885 15468
L9885 15068
L9981 15068
L10038 15087
L10076 15125
L10095 15163
L10114 15239
L10114 15296
L10095 15373
L10076 15411
L10038 15449
L9981 15468
L9885 15468
" />
<path d="M10495 15468
L10266 15468
" />
<path d="M10381 15468
L10381 15068
L10343 15125
L10305 15163
L10266 15182
" />
</g>
<g style="fill:#008484; fill-opacity:0.0; 
stroke:#008484; stroke-width:100; stroke-opacity:1; 
stroke-linecap:round; stroke-linejoin:round;">
<path d="M7456 5137
L7684 5137
" />
<path d="M7570 5537
L7570 5137
" />
<path d="M7894 5137
L7970 5137
L8008 5156
L8046 5194
L8065 5270
L8065 5403
L8046 5480
L8008 5518
L7970 5537
L7894 5537
L7856 5518
L7818 5480
L7799 5403
L7799 5270
L7818 5194
L7856 5156
L7894 5137
" />
<path d="M8142 5575
L8446 5575
" />
<path d="M8732 5537
L8542 5537
L8542 5137
" />
<path d="M8865 5327
L8999 5327
" />
<path d="M9056 5537
L8865 5537
L8865 5137
L9056 5137
" />
<path d="M9227 5537
L9227 5137
L9323 5137
L9380 5156
L9418 5194
L9437 5232
L9456 5308
L9456 5365
L9437 5442
L9418 5480
L9380 5518
L9323 5537
L9227 5537
" />
<path d="M9608 5518
L9665 5537
L9761 5537
L9799 5518
L9818 5499
L9837 5461
L9837 5422
L9818 5384
L9799 5365
L9761 5346
L9684 5327
L9646 5308
L9627 5289
L9608 5251
L9608 5213
L9627 5175
L9646 5156
L9684 5137
L9780 5137
L9837 5156
" />
<path d="M8921 8637
L8521 8637
L8521 8542
L8540 8485
L8578 8446
L8616 8427
L8693 8408
L8750 8408
L8826 8427
L8864 8446
L8902 8485
L8921 8542
L8921 8637
" />
<path d="M8807 8256
L8807 8065
" />
<path d="M8921 8294
L8521 8161
L8921 8027
" />
<path d="M8521 7951
L8521 7723
" />
<path d="M8921 7837
L8521 7837
" />
<path d="M8807 7608
L8807 7418
" />
<path d="M8921 7646
L8521 7513
L8921 7380
" />
<path d="M7040 8342
L7021 8380
L7021 8437
L7040 8494
L7078 8532
L7116 8551
L7193 8570
L7250 8570
L7326 8551
L7364 8532
L7402 8494
L7421 8437
L7421 8399
L7402 8342
L7383 8323
L7250 8323
L7250 8399
" />
<path d="M7421 8151
L7021 8151
L7421 7923
L7021 7923
" />
<path d="M7421 7732
L7021 7732
L7021 7637
L7040 7580
L7078 7542
L7116 7523
L7193 7504
L7250 7504
L7326 7523
L7364 7542
L7402 7580
L7421 7637
L7421 7732
" />
<path d="M10269 8551
L10269 8246
" />
<path d="M10421 8399
L10116 8399
" />
<path d="M10021 7865
L10021 8056
L10212 8075
L10193 8056
L10174 8018
L10174 7923
L10193 7885
L10212 7865
L10250 7846
L10345 7846
L10383 7865
L10402 7885
L10421 7923
L10421 8018
L10402 8056
L10383 8075
" />
<path d="M10021 7732
L10421 7599
L10021 7465
" />
</g>
<g style="fill:#C2C200; fill-opacity:0.0; 
stroke:#C2C200; stroke-width:100; stroke-opacity:1; 
stroke-linecap:round; stroke-linejoin:round;">
</g>
<g style="fill:#C2C200; fill-opacity:0.0; 
stroke:#C2C200; stroke-width:60; stroke-opacity:1; 
stroke-linecap:round; stroke-linejoin:round;">
<path d="M8828 9854
L8790 9835
L8752 9797
L8695 9740
L8657 9721
L8619 9721
" />
<path d="M8638 9816
L8600 9797
L8561 9759
L8542 9683
L8542 9550
L8561 9473
L8600 9435
L8638 9416
L8714 9416
L8752 9435
L8790 9473
L8809 9550
L8809 9683
L8790 9759
L8752 9797
L8714 9816
L8638 9816
" />
<path d="M9190 9816
L8961 9816
" />
<path d="M9076 9816
L9076 9416
L9038 9473
L9000 9512
L8961 9531
" />
</g>
<g style="fill:#C2C200; fill-opacity:0.0; 
stroke:#C2C200; stroke-width:59.0551; stroke-opacity:1; 
stroke-linecap:round; stroke-linejoin:round;">
<path d="M7175 12215
L7043 12028
" />
<path d="M6950 12215
L6950 11821
L7100 11821
L7137 11840
L7156 11859
L7175 11896
L7175 11953
L7156 11990
L7137 12009
L7100 12028
L6950 12028
" />
<path d="M7550 12215
L7325 12215
" />
<path d="M7437 12215
L7437 11821
L7400 11878
L7362 11915
L7325 11934
" />
<path d="M10425 12215
L10293 12028
" />
<path d="M10200 12215
L10200 11821
L10350 11821
L10387 11840
L10406 11859
L10425 11896
L10425 11953
L10406 11990
L10387 12009
L10350 12028
L10200 12028
" />
<path d="M10575 11859
L10593 11840
L10631 11821
L10725 11821
L10762 11840
L10781 11859
L10800 11896
L10800 11934
L10781 11990
L10556 12215
L10800 12215
" />
<path d="M10425 9715
L10293 9528
" />
<path d="M10200 9715
L10200 9321
L10350 9321
L10387 9340
L10406 9359
L10425 9396
L10425 9453
L10406 9490
L10387 9509
L10350 9528
L10200 9528
" />
<path d="M10556 9321
L10800 9321
L10668 9471
L10725 9471
L10762 9490
L10781 9509
L10800 9546
L10800 9640
L10781 9678
L10762 9696
L10725 9715
L10612 9715
L10575 9696
L10556 9678
" />
<path d="M7175 9715
L7043 9528
" />
<path d="M6950 9715
L6950 9321
L7100 9321
L7137 9340
L7156 9359
L7175 9396
L7175 9453
L7156 9490
L7137 9509
L7100 9528
L6950 9528
" />
<path d="M7512 9453
L7512 9715
" />
<path d="M7418 9303
L7325 9584
L7568 9584
" />
</g>
<g style="fill:#008484; fill-opacity:0.0; 
stroke:#008484; stroke-width:59.0551; stroke-opacity:1; 
stroke-linecap:round; stroke-linejoin:round;">
<path d="M15019 8147
L15037 8166
L15056 8222
L15056 8259
L15037 8316
L15000 8353
L14962 8372
L14887 8391
L14831 8391
L14756 8372
L14719 8353
L14681 8316
L14662 8259
L14662 8222
L14681 8166
L14700 8147
" />
<path d="M14662 7903
L14662 7828
L14681 7791
L14719 7753
L14794 7734
L14925 7734
L15000 7753
L15037 7791
L15056 7828
L15056 7903
L15037 7941
L15000 7978
L14925 7997
L14794 7997
L14719 7978
L14681 7941
L14662 7903
" />
<path d="M15056 7566
L14662 7566
L15056 7341
L14662 7341
" />
<path d="M15056 6947
L15056 7172
" />
<path d="M15056 7059
L14662 7059
L14719 7097
L14756 7134
L14775 7172
" />
</g>
<g style="fill:#C2C200; fill-opacity:0.0; 
stroke:#C2C200; stroke-width:59.0551; stroke-opacity:1; 
stroke-linecap:round; stroke-linejoin:round;">
</g>
<g style="fill:#C2C200; fill-opacity:0.0; 
stroke:#C2C200; stroke-width:60; stroke-opacity:1; 
stroke-linecap:round; stroke-linejoin:round;">
<path d="M17174 3180
L17155 3199
L17097 3218
L17059 3218
L17002 3199
L16964 3161
L16945 3123
L16926 3046
L16926 2989
L16945 2913
L16964 2875
L17002 2837
L17059 2818
L17097 2818
L17155 2837
L17174 2856
" />
<path d="M17555 3218
L17326 3218
" />
<path d="M17440 3218
L17440 2818
L17402 2875
L17364 2913
L17326 2932
" />
</g>
<g style="fill:#008484; fill-opacity:0.0; 
stroke:#008484; stroke-width:60; stroke-opacity:1; 
stroke-linecap:round; stroke-linejoin:round;">
</g>
<g style="fill:#008484; fill-opacity:0.0; 
stroke:#008484; stroke-width:75; stroke-opacity:1; 
stroke-linecap:round; stroke-linejoin:round;">
<path d="M10762 4123
L10762 4365
L10776 4394
L10790 4408
L10819 4423
L10876 4423
L10905 4408
L10919 4394
L10933 4365
L10933 4123
" />
<path d="M11233 4423
L11062 4423
" />
<path d="M11147 4423
L11147 4123
L11119 4165
L11090 4194
L11062 4208
" />
<path d="M5976 4265
L5876 4265
" />
<path d="M5876 4423
L5876 4123
L6019 4123
" />
<path d="M6133 4265
L6233 4265
" />
<path d="M6276 4423
L6133 4423
L6133 4123
L6276 4123
" />
<path d="M6390 4337
L6533 4337
" />
<path d="M6362 4423
L6462 4123
L6562 4423
" />
<path d="M6619 4123
L6790 4123
" />
<path d="M6705 4423
L6705 4123
" />
<path d="M6890 4423
L6890 4123
" />
<path d="M6890 4265
L7062 4265
" />
<path d="M7062 4423
L7062 4123
" />
<path d="M7205 4265
L7305 4265
" />
<path d="M7347 4423
L7205 4423
L7205 4123
L7347 4123
" />
<path d="M7647 4423
L7547 4280
" />
<path d="M7476 4423
L7476 4123
L7590 4123
L7619 4137
L7633 4151
L7647 4180
L7647 4223
L7633 4251
L7619 4265
L7590 4280
L7476 4280
" />
<path d="M7705 4451
L7933 4451
" />
<path d="M8005 4423
L8005 4123
L8105 4337
L8205 4123
L8205 4423
" />
<path d="M8405 4123
L8433 4123
L8462 4137
L8476 4151
L8490 4180
L8505 4237
L8505 4308
L8490 4365
L8476 4394
L8462 4408
L8433 4423
L8405 4423
L8376 4408
L8362 4394
L8347 4365
L8333 4308
L8333 4237
L8347 4180
L8362 4151
L8376 4137
L8405 4123
" />
<path d="M8562 4451
L8790 4451
" />
<path d="M8833 4123
L8905 4423
L8962 4208
L9019 4423
L9090 4123
" />
<path d="M9205 4423
L9205 4123
" />
<path d="M9447 4265
L9347 4265
" />
<path d="M9347 4423
L9347 4123
L9490 4123
" />
<path d="M9605 4423
L9605 4123
" />
</g>
<g style="fill:#000000; fill-opacity:0.0; 
stroke:#000000; stroke-width:75; stroke-opacity:1; 
stroke-linecap:round; stroke-linejoin:round;">
</g>
<g style="fill:#C2C200; fill-opacity:0.0; 
stroke:#C2C200; stroke-width:75; stroke-opacity:1; 
stroke-linecap:round; stroke-linejoin:round;">
</g>
<g style="fill:#C2C200; fill-opacity:0.0; 
stroke:#C2C200; stroke-width:59.0551; stroke-opacity:1; 
stroke-linecap:round; stroke-linejoin:round;">
<path d="M19398.2 22126 A1181.1 1181.1 0.0 0 0 20579.3 20944.9 " />
<path d="M894.263 20944.9 A1181.1 1181.1 0.0 0 0 2075.37 22126 " />
<path d="M2075.37 2440.94 A1181.1 1181.1 0.0 0 0 894.263 3622.05 " />
<path d="M20579.3 3622.05 A1181.1 1181.1 0.0 0 0 19398.2 2440.94 " />
<path d="M894 20944
L894 3622
" />
<path d="M19398 22125
L2075 22125
" />
<path d="M20579 3622
L20579 20944
" />
<path d="M2075 2440
L19398 2440
" />
</g> 
</svg>
