M48
;DRILL file {KiCad 4.0.5+dfsg1-4} date Mon Apr  9 20:40:24 2018
;FORMAT={2:4/ absolute / inch / suppress leading zeros}
FMAT,2
INCH,TZ
T1C0.016
T2C0.040
T3C0.080
T4C0.120
T5C0.083
%
G90
G05
M72
T1
X27000Y-37250
X28250Y-35500
X29250Y-35500
X29250Y-37250
X31750Y-34000
X31750Y-35000
T2
X23500Y-25500
X23500Y-26500
X23500Y-28500
X23500Y-29500
X23500Y-30500
X23500Y-31500
X23500Y-32500
X23500Y-33500
X23500Y-35500
X23500Y-36500
X29500Y-25750
X35000Y-38500
X35000Y-39500
T3
X28000Y-25750
X31000Y-25750
T4
X23228Y-23228
X23228Y-39764
X39764Y-23228
X39764Y-39764
T5
X38000Y-30819
T0
M30
