G04 #@! TF.FileFunction,Paste,Top*
%FSLAX46Y46*%
G04 Gerber Fmt 4.6, Leading zero omitted, Abs format (unit mm)*
G04 Created by KiCad (PCBNEW 4.0.7) date Monday, May 07, 2018 'AMt' 09:05:24 AM*
%MOMM*%
%LPD*%
G01*
G04 APERTURE LIST*
%ADD10C,0.100000*%
%ADD11R,0.797560X0.899160*%
%ADD12R,0.500000X0.900000*%
%ADD13R,3.300000X4.400000*%
%ADD14R,3.900000X6.200000*%
%ADD15R,3.197860X1.597660*%
%ADD16R,2.000000X1.000000*%
G04 APERTURE END LIST*
D10*
D11*
X74300040Y-77448220D03*
X76199960Y-77448220D03*
X75250000Y-75451780D03*
D12*
X71870000Y-77470000D03*
X70370000Y-77470000D03*
X78625000Y-77470000D03*
X80125000Y-77470000D03*
X80125000Y-74930000D03*
X78625000Y-74930000D03*
X70370000Y-74930000D03*
X71870000Y-74930000D03*
D13*
X96520000Y-65530000D03*
D14*
X90070000Y-74480000D03*
X102970000Y-74480000D03*
D15*
X89302520Y-59000000D03*
X94697480Y-59000000D03*
D16*
X86105000Y-72390000D03*
X82805000Y-74930000D03*
X86105000Y-77470000D03*
X82805000Y-80010000D03*
X86105000Y-82550000D03*
X82805000Y-85090000D03*
X86105000Y-87630000D03*
X82805000Y-90170000D03*
X86105000Y-92710000D03*
X82805000Y-95250000D03*
X86105000Y-97790000D03*
X82805000Y-100330000D03*
X65785000Y-82450000D03*
X62485000Y-84990000D03*
X65785000Y-87530000D03*
X62485000Y-90070000D03*
X65785000Y-92610000D03*
X62485000Y-95150000D03*
X65785000Y-97690000D03*
X62485000Y-100230000D03*
X65785000Y-62130000D03*
X62485000Y-64670000D03*
X65785000Y-67210000D03*
X62485000Y-69750000D03*
X65785000Y-72290000D03*
X62485000Y-74830000D03*
X65785000Y-77370000D03*
X62485000Y-79910000D03*
M02*
