M48
;DRILL file {KiCad 4.0.7} date Monday, May 07, 2018 'AMt' 09:05:27 AM
;FORMAT={-:-/ absolute / inch / decimal}
FMAT,2
INCH,TZ
T1C0.016
T2C0.020
T3C0.040
T4C0.080
T5C0.120
T6C0.083
%
G90
G05
M72
T1
X2.7Y-4.
X2.825Y-3.4
X2.9Y-3.5
X2.925Y-3.6
X2.975Y-3.125
X3.025Y-3.45
X3.075Y-3.85
X3.1Y-3.65
X3.125Y-3.5
X3.65Y-2.8
X3.65Y-2.85
X3.65Y-2.9
X3.65Y-2.95
X3.65Y-3.
X3.675Y-2.775
X3.675Y-2.825
X3.675Y-2.875
X3.675Y-2.925
X3.675Y-2.975
X3.7Y-2.75
X3.7Y-2.8
X3.7Y-2.85
X3.7Y-2.9
X3.7Y-2.95
T2
X2.9258Y-4.05
X2.975Y-4.05
X3.0258Y-4.05
X3.075Y-4.05
T3
X2.35Y-2.55
X2.35Y-2.65
X2.35Y-2.85
X2.35Y-2.95
X2.35Y-3.05
X2.35Y-3.15
X2.35Y-3.25
X2.35Y-3.35
X2.35Y-3.55
X2.35Y-3.65
X2.95Y-2.575
X3.5Y-3.85
X3.5Y-3.95
T4
X2.8Y-2.575
X3.1Y-2.575
T5
X2.3228Y-2.3228
X2.3228Y-3.9764
X3.9764Y-2.3228
X3.9764Y-3.9764
T6
X3.8Y-3.0819
T0
M30
