G04 #@! TF.FileFunction,Soldermask,Top*
%FSLAX46Y46*%
G04 Gerber Fmt 4.6, Leading zero omitted, Abs format (unit mm)*
G04 Created by KiCad (PCBNEW 4.0.5+dfsg1-4) date Tue Apr 10 17:10:47 2018*
%MOMM*%
%LPD*%
G01*
G04 APERTURE LIST*
%ADD10C,0.100000*%
%ADD11R,2.432000X2.432000*%
%ADD12O,2.432000X2.432000*%
%ADD13R,2.432000X2.127200*%
%ADD14O,2.432000X2.127200*%
%ADD15R,1.799540X2.299920*%
%ADD16R,1.197560X1.898600*%
%ADD17R,2.198320X1.799540*%
%ADD18R,1.197560X1.299160*%
%ADD19R,0.900000X1.300000*%
%ADD20C,3.956000*%
%ADD21R,3.700000X4.800000*%
%ADD22R,4.300000X6.600000*%
%ADD23C,3.400000*%
%ADD24R,3.597860X1.997660*%
%ADD25R,2.400000X1.400000*%
%ADD26C,2.540000*%
%ADD27O,2.127200X2.432000*%
G04 APERTURE END LIST*
D10*
D11*
X59690000Y-64770000D03*
D12*
X59690000Y-67310000D03*
D11*
X88900000Y-97790000D03*
D12*
X88900000Y-100330000D03*
D11*
X59690000Y-90170000D03*
D12*
X59690000Y-92710000D03*
D13*
X59690000Y-72390000D03*
D14*
X59690000Y-74930000D03*
X59690000Y-77470000D03*
X59690000Y-80010000D03*
X59690000Y-82550000D03*
X59690000Y-85090000D03*
D15*
X81516220Y-104155240D03*
X68369180Y-103154480D03*
D16*
X76868020Y-100304600D03*
X75768200Y-100103940D03*
X74670920Y-100304600D03*
X73571100Y-100505260D03*
X72471280Y-100304600D03*
X71368920Y-100505260D03*
X70269100Y-100304600D03*
X69169280Y-100304600D03*
D17*
X69969380Y-90007440D03*
X75666600Y-90007440D03*
D18*
X74300040Y-77448220D03*
X76199960Y-77448220D03*
X75250000Y-75451780D03*
D19*
X71870000Y-77470000D03*
X70370000Y-77470000D03*
X78625000Y-77470000D03*
X80125000Y-77470000D03*
X80125000Y-74930000D03*
X78625000Y-74930000D03*
X70370000Y-74930000D03*
X71870000Y-74930000D03*
D20*
X59000000Y-101000000D03*
X101000000Y-59000000D03*
X59000000Y-59000000D03*
X101000000Y-101000000D03*
D21*
X96520000Y-65530000D03*
D22*
X90070000Y-74480000D03*
X102970000Y-74480000D03*
D23*
X96520000Y-78280000D03*
D24*
X89302520Y-59000000D03*
X94697480Y-59000000D03*
D25*
X86105000Y-72390000D03*
X82805000Y-74930000D03*
X86105000Y-77470000D03*
X82805000Y-80010000D03*
X86105000Y-82550000D03*
X82805000Y-85090000D03*
X86105000Y-87630000D03*
X82805000Y-90170000D03*
X86105000Y-92710000D03*
X82805000Y-95250000D03*
X86105000Y-97790000D03*
X82805000Y-100330000D03*
D26*
X100965000Y-64770000D03*
X95885000Y-101600000D03*
X65000000Y-59000000D03*
D20*
X78740000Y-65405000D03*
D27*
X74930000Y-65405000D03*
D20*
X71120000Y-65405000D03*
D25*
X65785000Y-82450000D03*
X62485000Y-84990000D03*
X65785000Y-87530000D03*
X62485000Y-90070000D03*
X65785000Y-92610000D03*
X62485000Y-95150000D03*
X65785000Y-97690000D03*
X62485000Y-100230000D03*
X65785000Y-62130000D03*
X62485000Y-64670000D03*
X65785000Y-67210000D03*
X62485000Y-69750000D03*
X65785000Y-72290000D03*
X62485000Y-74830000D03*
X65785000Y-77370000D03*
X62485000Y-79910000D03*
M02*
