G04 #@! TF.FileFunction,Soldermask,Top*
%FSLAX46Y46*%
G04 Gerber Fmt 4.6, Leading zero omitted, Abs format (unit mm)*
G04 Created by KiCad (PCBNEW 4.0.7) date Monday, May 07, 2018 'AMt' 09:05:24 AM*
%MOMM*%
%LPD*%
G01*
G04 APERTURE LIST*
%ADD10C,0.100000*%
%ADD11C,1.416000*%
%ADD12R,2.432000X2.432000*%
%ADD13O,2.432000X2.432000*%
%ADD14R,2.432000X2.127200*%
%ADD15O,2.432000X2.127200*%
%ADD16R,1.197560X1.299160*%
%ADD17R,0.900000X1.300000*%
%ADD18C,3.956000*%
%ADD19R,3.700000X4.800000*%
%ADD20R,4.300000X6.600000*%
%ADD21C,3.400000*%
%ADD22R,3.597860X1.997660*%
%ADD23R,2.400000X1.400000*%
%ADD24C,2.540000*%
%ADD25O,2.127200X2.432000*%
G04 APERTURE END LIST*
D10*
D11*
X78105000Y-102870000D03*
X76855000Y-102870000D03*
X75565000Y-102870000D03*
X74315000Y-102870000D03*
D12*
X59690000Y-64770000D03*
D13*
X59690000Y-67310000D03*
D12*
X88900000Y-97790000D03*
D13*
X88900000Y-100330000D03*
D12*
X59690000Y-90170000D03*
D13*
X59690000Y-92710000D03*
D14*
X59690000Y-72390000D03*
D15*
X59690000Y-74930000D03*
X59690000Y-77470000D03*
X59690000Y-80010000D03*
X59690000Y-82550000D03*
X59690000Y-85090000D03*
D16*
X74300040Y-77448220D03*
X76199960Y-77448220D03*
X75250000Y-75451780D03*
D17*
X71870000Y-77470000D03*
X70370000Y-77470000D03*
X78625000Y-77470000D03*
X80125000Y-77470000D03*
X80125000Y-74930000D03*
X78625000Y-74930000D03*
X70370000Y-74930000D03*
X71870000Y-74930000D03*
D18*
X59000000Y-101000000D03*
X101000000Y-59000000D03*
X59000000Y-59000000D03*
X101000000Y-101000000D03*
D19*
X96520000Y-65530000D03*
D20*
X90070000Y-74480000D03*
X102970000Y-74480000D03*
D21*
X96520000Y-78280000D03*
D22*
X89302520Y-59000000D03*
X94697480Y-59000000D03*
D23*
X86105000Y-72390000D03*
X82805000Y-74930000D03*
X86105000Y-77470000D03*
X82805000Y-80010000D03*
X86105000Y-82550000D03*
X82805000Y-85090000D03*
X86105000Y-87630000D03*
X82805000Y-90170000D03*
X86105000Y-92710000D03*
X82805000Y-95250000D03*
X86105000Y-97790000D03*
X82805000Y-100330000D03*
D24*
X100965000Y-64770000D03*
X95885000Y-101600000D03*
X65000000Y-59000000D03*
D18*
X78740000Y-65405000D03*
D25*
X74930000Y-65405000D03*
D18*
X71120000Y-65405000D03*
D23*
X65785000Y-82450000D03*
X62485000Y-84990000D03*
X65785000Y-87530000D03*
X62485000Y-90070000D03*
X65785000Y-92610000D03*
X62485000Y-95150000D03*
X65785000Y-97690000D03*
X62485000Y-100230000D03*
X65785000Y-62130000D03*
X62485000Y-64670000D03*
X65785000Y-67210000D03*
X62485000Y-69750000D03*
X65785000Y-72290000D03*
X62485000Y-74830000D03*
X65785000Y-77370000D03*
X62485000Y-79910000D03*
M02*
