G04 #@! TF.FileFunction,Paste,Top*
%FSLAX46Y46*%
G04 Gerber Fmt 4.6, Leading zero omitted, Abs format (unit mm)*
G04 Created by KiCad (PCBNEW 4.0.5+dfsg1-4) date Mon Apr  9 20:40:12 2018*
%MOMM*%
%LPD*%
G01*
G04 APERTURE LIST*
%ADD10C,0.100000*%
%ADD11R,1.399540X1.899920*%
%ADD12R,0.797560X1.498600*%
%ADD13R,1.798320X1.399540*%
%ADD14R,0.797560X0.899160*%
%ADD15R,0.500000X0.900000*%
%ADD16R,3.300000X4.400000*%
%ADD17R,3.900000X6.200000*%
%ADD18R,3.197860X1.597660*%
%ADD19R,2.000000X1.000000*%
G04 APERTURE END LIST*
D10*
D11*
X81516220Y-104155240D03*
X68369180Y-103154480D03*
D12*
X76868020Y-100304600D03*
X75768200Y-100103940D03*
X74670920Y-100304600D03*
X73571100Y-100505260D03*
X72471280Y-100304600D03*
X71368920Y-100505260D03*
X70269100Y-100304600D03*
X69169280Y-100304600D03*
D13*
X69969380Y-90007440D03*
X75666600Y-90007440D03*
D14*
X74300040Y-77448220D03*
X76199960Y-77448220D03*
X75250000Y-75451780D03*
D15*
X71870000Y-77470000D03*
X70370000Y-77470000D03*
X78625000Y-77470000D03*
X80125000Y-77470000D03*
X80125000Y-74930000D03*
X78625000Y-74930000D03*
X70370000Y-74930000D03*
X71870000Y-74930000D03*
D16*
X96520000Y-65530000D03*
D17*
X90070000Y-74480000D03*
X102970000Y-74480000D03*
D18*
X89302520Y-59000000D03*
X94697480Y-59000000D03*
D19*
X65785000Y-62230000D03*
X62485000Y-64770000D03*
X65785000Y-67310000D03*
X62485000Y-69850000D03*
X65785000Y-72390000D03*
X62485000Y-74930000D03*
X65785000Y-77470000D03*
X62485000Y-80010000D03*
X65785000Y-82550000D03*
X62485000Y-85090000D03*
X65785000Y-87630000D03*
X62485000Y-90170000D03*
X65785000Y-92710000D03*
X62485000Y-95250000D03*
X65785000Y-97790000D03*
X62485000Y-100330000D03*
X86105000Y-72390000D03*
X82805000Y-74930000D03*
X86105000Y-77470000D03*
X82805000Y-80010000D03*
X86105000Y-82550000D03*
X82805000Y-85090000D03*
X86105000Y-87630000D03*
X82805000Y-90170000D03*
X86105000Y-92710000D03*
X82805000Y-95250000D03*
X86105000Y-97790000D03*
X82805000Y-100330000D03*
M02*
