G04 #@! TF.FileFunction,Copper,L1,Top,Signal*
%FSLAX46Y46*%
G04 Gerber Fmt 4.6, Leading zero omitted, Abs format (unit mm)*
G04 Created by KiCad (PCBNEW 4.0.7) date Monday, May 07, 2018 'AMt' 09:05:24 AM*
%MOMM*%
%LPD*%
G01*
G04 APERTURE LIST*
%ADD10C,0.100000*%
%ADD11C,1.016000*%
%ADD12R,2.032000X2.032000*%
%ADD13O,2.032000X2.032000*%
%ADD14R,2.032000X1.727200*%
%ADD15O,2.032000X1.727200*%
%ADD16R,0.797560X0.899160*%
%ADD17R,0.500000X0.900000*%
%ADD18C,3.556000*%
%ADD19R,3.300000X4.400000*%
%ADD20R,3.900000X6.200000*%
%ADD21C,3.000000*%
%ADD22R,3.197860X1.597660*%
%ADD23R,2.000000X1.000000*%
%ADD24C,1.000000*%
%ADD25O,1.727200X2.032000*%
%ADD26C,0.600000*%
%ADD27C,0.250000*%
%ADD28C,5.080000*%
%ADD29C,0.635000*%
G04 APERTURE END LIST*
D10*
D11*
X78105000Y-102870000D03*
X76855000Y-102870000D03*
X75565000Y-102870000D03*
X74315000Y-102870000D03*
D12*
X59690000Y-64770000D03*
D13*
X59690000Y-67310000D03*
D12*
X88900000Y-97790000D03*
D13*
X88900000Y-100330000D03*
D12*
X59690000Y-90170000D03*
D13*
X59690000Y-92710000D03*
D14*
X59690000Y-72390000D03*
D15*
X59690000Y-74930000D03*
X59690000Y-77470000D03*
X59690000Y-80010000D03*
X59690000Y-82550000D03*
X59690000Y-85090000D03*
D16*
X74300040Y-77448220D03*
X76199960Y-77448220D03*
X75250000Y-75451780D03*
D17*
X71870000Y-77470000D03*
X70370000Y-77470000D03*
X78625000Y-77470000D03*
X80125000Y-77470000D03*
X80125000Y-74930000D03*
X78625000Y-74930000D03*
X70370000Y-74930000D03*
X71870000Y-74930000D03*
D18*
X59000000Y-101000000D03*
X101000000Y-59000000D03*
X59000000Y-59000000D03*
X101000000Y-101000000D03*
D19*
X96520000Y-65530000D03*
D20*
X90070000Y-74480000D03*
X102970000Y-74480000D03*
D21*
X96520000Y-78280000D03*
D22*
X89302520Y-59000000D03*
X94697480Y-59000000D03*
D23*
X86105000Y-72390000D03*
X82805000Y-74930000D03*
X86105000Y-77470000D03*
X82805000Y-80010000D03*
X86105000Y-82550000D03*
X82805000Y-85090000D03*
X86105000Y-87630000D03*
X82805000Y-90170000D03*
X86105000Y-92710000D03*
X82805000Y-95250000D03*
X86105000Y-97790000D03*
X82805000Y-100330000D03*
D24*
X100965000Y-64770000D03*
X95885000Y-101600000D03*
X65000000Y-59000000D03*
D18*
X78740000Y-65405000D03*
D25*
X74930000Y-65405000D03*
D18*
X71120000Y-65405000D03*
D23*
X65785000Y-82450000D03*
X62485000Y-84990000D03*
X65785000Y-87530000D03*
X62485000Y-90070000D03*
X65785000Y-92610000D03*
X62485000Y-95150000D03*
X65785000Y-97690000D03*
X62485000Y-100230000D03*
X65785000Y-62130000D03*
X62485000Y-64670000D03*
X65785000Y-67210000D03*
X62485000Y-69750000D03*
X65785000Y-72290000D03*
X62485000Y-74830000D03*
X65785000Y-77370000D03*
X62485000Y-79910000D03*
D26*
X78105000Y-97790000D03*
X92710000Y-76200000D03*
X92710000Y-74930000D03*
X92710000Y-73660000D03*
X92710000Y-72390000D03*
X92710000Y-71120000D03*
X93345000Y-71755000D03*
X93345000Y-73025000D03*
X93345000Y-74295000D03*
X93345000Y-75565000D03*
X93980000Y-74930000D03*
X93980000Y-73660000D03*
X93980000Y-72390000D03*
X93980000Y-71120000D03*
X93980000Y-69850000D03*
X93345000Y-70485000D03*
X68580000Y-101600000D03*
X75565000Y-79375000D03*
X79375000Y-88900000D03*
X73660000Y-88900000D03*
X71755000Y-86360000D03*
X76835000Y-87630000D03*
X74295000Y-91440000D03*
X78740000Y-92710000D03*
D27*
X86105000Y-72390000D02*
X86105000Y-65530000D01*
X86360000Y-66040000D02*
X86360000Y-65530000D01*
X86360000Y-65785000D02*
X86360000Y-66040000D01*
X86105000Y-65530000D02*
X86360000Y-65785000D01*
X80125000Y-74930000D02*
X80125000Y-66790000D01*
X80125000Y-66790000D02*
X78740000Y-65405000D01*
D28*
X89302520Y-59000000D02*
X89302520Y-65530000D01*
X89535000Y-65405000D02*
X89535000Y-65530000D01*
X89427520Y-65405000D02*
X89535000Y-65405000D01*
D27*
X89302520Y-65530000D02*
X89427520Y-65405000D01*
D28*
X96520000Y-65530000D02*
X89535000Y-65530000D01*
X89535000Y-65530000D02*
X86360000Y-65530000D01*
X86360000Y-65530000D02*
X78865000Y-65530000D01*
D27*
X78865000Y-65530000D02*
X78740000Y-65405000D01*
X70370000Y-74930000D02*
X70370000Y-73775000D01*
X74930000Y-72390000D02*
X74930000Y-65405000D01*
X74295000Y-73025000D02*
X74930000Y-72390000D01*
X71120000Y-73025000D02*
X74295000Y-73025000D01*
X70370000Y-73775000D02*
X71120000Y-73025000D01*
X90070000Y-74480000D02*
X90990000Y-74480000D01*
X90990000Y-74480000D02*
X92710000Y-76200000D01*
X92710000Y-74930000D02*
X92710000Y-73660000D01*
X92710000Y-72390000D02*
X92710000Y-71120000D01*
X93345000Y-71755000D02*
X93345000Y-73025000D01*
X93345000Y-74295000D02*
X93345000Y-75565000D01*
X93980000Y-74930000D02*
X93980000Y-73660000D01*
X93980000Y-72390000D02*
X93980000Y-71120000D01*
X93980000Y-69850000D02*
X93345000Y-70485000D01*
X71870000Y-77470000D02*
X74278260Y-77470000D01*
X74278260Y-77470000D02*
X74300040Y-77448220D01*
X78625000Y-77470000D02*
X76221740Y-77470000D01*
X76221740Y-77470000D02*
X76199960Y-77448220D01*
X78625000Y-74930000D02*
X75771780Y-74930000D01*
X75771780Y-74930000D02*
X75250000Y-75451780D01*
X71870000Y-74930000D02*
X74728220Y-74930000D01*
X74728220Y-74930000D02*
X75250000Y-75451780D01*
X70485000Y-78740000D02*
X70485000Y-77585000D01*
X71120000Y-79375000D02*
X70485000Y-78740000D01*
X75565000Y-79375000D02*
X71120000Y-79375000D01*
X70485000Y-77585000D02*
X70370000Y-77470000D01*
X70485000Y-77585000D02*
X70370000Y-77470000D01*
X62485000Y-64770000D02*
X67945000Y-64770000D01*
X69215000Y-77470000D02*
X70370000Y-77470000D01*
X68580000Y-76835000D02*
X69215000Y-77470000D01*
X68580000Y-65405000D02*
X68580000Y-76835000D01*
X67945000Y-64770000D02*
X68580000Y-65405000D01*
X73660000Y-88900000D02*
X79375000Y-88900000D01*
X65785000Y-62230000D02*
X62230000Y-62230000D01*
X62230000Y-62230000D02*
X59690000Y-64770000D01*
X59690000Y-72390000D02*
X65785000Y-72390000D01*
X62485000Y-74930000D02*
X59690000Y-74930000D01*
X65785000Y-77470000D02*
X59690000Y-77470000D01*
X62485000Y-80010000D02*
X59690000Y-80010000D01*
X80125000Y-77470000D02*
X83185000Y-77470000D01*
X87630000Y-95250000D02*
X82805000Y-95250000D01*
X88265000Y-94615000D02*
X87630000Y-95250000D01*
X88265000Y-80645000D02*
X88265000Y-94615000D01*
X87630000Y-80010000D02*
X88265000Y-80645000D01*
X85725000Y-80010000D02*
X87630000Y-80010000D01*
X83185000Y-77470000D02*
X85725000Y-80010000D01*
X86105000Y-97790000D02*
X88900000Y-97790000D01*
X82805000Y-100330000D02*
X88900000Y-100330000D01*
X65785000Y-82550000D02*
X59690000Y-82550000D01*
X59690000Y-85090000D02*
X62485000Y-85090000D01*
X59690000Y-90170000D02*
X62230000Y-92710000D01*
X62230000Y-92710000D02*
X62230000Y-94995000D01*
X62230000Y-94995000D02*
X62485000Y-95250000D01*
X59690000Y-92710000D02*
X59690000Y-95885000D01*
X61595000Y-97790000D02*
X65785000Y-97790000D01*
X59690000Y-95885000D02*
X61595000Y-97790000D01*
X71755000Y-86360000D02*
X77470000Y-86360000D01*
X78740000Y-87630000D02*
X86105000Y-87630000D01*
X77470000Y-86360000D02*
X78740000Y-87630000D01*
X67210000Y-87530000D02*
X65785000Y-87530000D01*
X67310000Y-87630000D02*
X67210000Y-87530000D01*
X76835000Y-87630000D02*
X67310000Y-87630000D01*
X74295000Y-91440000D02*
X69215000Y-91440000D01*
X69215000Y-91440000D02*
X67945000Y-90170000D01*
X67945000Y-90170000D02*
X62585000Y-90170000D01*
X62585000Y-90170000D02*
X62485000Y-90070000D01*
X62485000Y-90170000D02*
X62865000Y-90170000D01*
X67210000Y-92610000D02*
X65785000Y-92610000D01*
X67310000Y-92710000D02*
X67210000Y-92610000D01*
X78740000Y-92710000D02*
X67310000Y-92710000D01*
X64840000Y-92700000D02*
X66050000Y-92700000D01*
D29*
G36*
X86832950Y-56530430D02*
X86075871Y-57663478D01*
X85810020Y-59000000D01*
X85810020Y-62037500D01*
X78865000Y-62037500D01*
X77528478Y-62303351D01*
X76395430Y-63060430D01*
X75937861Y-63745230D01*
X75624991Y-63536177D01*
X74930000Y-63397935D01*
X74235009Y-63536177D01*
X73645823Y-63929858D01*
X73252142Y-64519044D01*
X73113900Y-65214035D01*
X73113900Y-65595965D01*
X73252142Y-66290956D01*
X73645823Y-66880142D01*
X73852500Y-67018239D01*
X73852500Y-71943685D01*
X73848684Y-71947500D01*
X71120005Y-71947500D01*
X71120000Y-71947499D01*
X70707658Y-72029520D01*
X70567642Y-72123076D01*
X70358092Y-72263092D01*
X70358090Y-72263095D01*
X69657500Y-72963684D01*
X69657500Y-65405005D01*
X69657501Y-65405000D01*
X69575480Y-64992659D01*
X69486498Y-64859487D01*
X69341908Y-64643092D01*
X69341905Y-64643090D01*
X68706908Y-64008092D01*
X68357342Y-63774520D01*
X67945000Y-63692499D01*
X67944995Y-63692500D01*
X64309614Y-63692500D01*
X64181135Y-63492838D01*
X63909883Y-63307500D01*
X64089360Y-63307500D01*
X64407164Y-63524646D01*
X64785000Y-63601160D01*
X66785000Y-63601160D01*
X67137975Y-63534743D01*
X67462162Y-63326135D01*
X67679646Y-63007836D01*
X67756160Y-62630000D01*
X67756160Y-61630000D01*
X67689743Y-61277025D01*
X67481135Y-60952838D01*
X67162836Y-60735354D01*
X66785000Y-60658840D01*
X64785000Y-60658840D01*
X64432025Y-60725257D01*
X64107838Y-60933865D01*
X63958451Y-61152500D01*
X62230000Y-61152500D01*
X61817659Y-61234520D01*
X61468092Y-61468092D01*
X61468090Y-61468095D01*
X60153344Y-62782840D01*
X58674000Y-62782840D01*
X58321025Y-62849257D01*
X57996838Y-63057865D01*
X57779354Y-63376164D01*
X57702840Y-63754000D01*
X57702840Y-65786000D01*
X57769257Y-66138975D01*
X57977865Y-66463162D01*
X58062433Y-66520945D01*
X57885617Y-66942110D01*
X57882187Y-66959379D01*
X58056108Y-67246500D01*
X59626500Y-67246500D01*
X59626500Y-67226500D01*
X59753500Y-67226500D01*
X59753500Y-67246500D01*
X61323892Y-67246500D01*
X61497813Y-66959379D01*
X61494383Y-66942110D01*
X61318690Y-66523621D01*
X61383162Y-66482135D01*
X61600646Y-66163836D01*
X61605238Y-66141160D01*
X63485000Y-66141160D01*
X63837975Y-66074743D01*
X64162162Y-65866135D01*
X64174895Y-65847500D01*
X64366377Y-65847500D01*
X64107838Y-66013865D01*
X63890354Y-66332164D01*
X63813840Y-66710000D01*
X63813840Y-67710000D01*
X63880257Y-68062975D01*
X64088865Y-68387162D01*
X64407164Y-68604646D01*
X64785000Y-68681160D01*
X66785000Y-68681160D01*
X67137975Y-68614743D01*
X67462162Y-68406135D01*
X67502500Y-68347098D01*
X67502500Y-71146040D01*
X67481135Y-71112838D01*
X67162836Y-70895354D01*
X66785000Y-70818840D01*
X64785000Y-70818840D01*
X64432025Y-70885257D01*
X64107838Y-71093865D01*
X63958451Y-71312500D01*
X61636912Y-71312500D01*
X61610743Y-71173425D01*
X61547730Y-71075500D01*
X62215125Y-71075500D01*
X62421500Y-70869125D01*
X62421500Y-69813500D01*
X62548500Y-69813500D01*
X62548500Y-70869125D01*
X62754875Y-71075500D01*
X63649202Y-71075500D01*
X63952608Y-70949825D01*
X64184825Y-70717608D01*
X64310500Y-70414202D01*
X64310500Y-70019875D01*
X64104125Y-69813500D01*
X62548500Y-69813500D01*
X62421500Y-69813500D01*
X60865875Y-69813500D01*
X60659500Y-70019875D01*
X60659500Y-70414202D01*
X60719011Y-70557875D01*
X60706000Y-70555240D01*
X58674000Y-70555240D01*
X58321025Y-70621657D01*
X57996838Y-70830265D01*
X57779354Y-71148564D01*
X57702840Y-71526400D01*
X57702840Y-73253600D01*
X57769257Y-73606575D01*
X57977865Y-73930762D01*
X58009861Y-73952624D01*
X57821177Y-74235009D01*
X57682935Y-74930000D01*
X57821177Y-75624991D01*
X58205385Y-76200000D01*
X57821177Y-76775009D01*
X57682935Y-77470000D01*
X57821177Y-78164991D01*
X58205385Y-78740000D01*
X57821177Y-79315009D01*
X57682935Y-80010000D01*
X57821177Y-80704991D01*
X58205385Y-81280000D01*
X57821177Y-81855009D01*
X57682935Y-82550000D01*
X57821177Y-83244991D01*
X58205385Y-83820000D01*
X57821177Y-84395009D01*
X57682935Y-85090000D01*
X57821177Y-85784991D01*
X58214858Y-86374177D01*
X58804044Y-86767858D01*
X59499035Y-86906100D01*
X59880965Y-86906100D01*
X60575956Y-86767858D01*
X61139633Y-86391221D01*
X61485000Y-86461160D01*
X63485000Y-86461160D01*
X63837975Y-86394743D01*
X64162162Y-86186135D01*
X64379646Y-85867836D01*
X64456160Y-85490000D01*
X64456160Y-84490000D01*
X64389743Y-84137025D01*
X64181135Y-83812838D01*
X63909883Y-83627500D01*
X64089360Y-83627500D01*
X64407164Y-83844646D01*
X64785000Y-83921160D01*
X66785000Y-83921160D01*
X67137975Y-83854743D01*
X67462162Y-83646135D01*
X67679646Y-83327836D01*
X67756160Y-82950000D01*
X67756160Y-81950000D01*
X67689743Y-81597025D01*
X67481135Y-81272838D01*
X67162836Y-81055354D01*
X66785000Y-80978840D01*
X64785000Y-80978840D01*
X64432025Y-81045257D01*
X64107838Y-81253865D01*
X63958451Y-81472500D01*
X61303239Y-81472500D01*
X61204215Y-81324299D01*
X61485000Y-81381160D01*
X63485000Y-81381160D01*
X63837975Y-81314743D01*
X64162162Y-81106135D01*
X64379646Y-80787836D01*
X64456160Y-80410000D01*
X64456160Y-79410000D01*
X64389743Y-79057025D01*
X64181135Y-78732838D01*
X63909883Y-78547500D01*
X64089360Y-78547500D01*
X64407164Y-78764646D01*
X64785000Y-78841160D01*
X66785000Y-78841160D01*
X67137975Y-78774743D01*
X67462162Y-78566135D01*
X67679646Y-78247836D01*
X67756160Y-77870000D01*
X67756160Y-77504220D01*
X67818092Y-77596908D01*
X68453090Y-78231905D01*
X68453092Y-78231908D01*
X68674010Y-78379520D01*
X68802659Y-78465480D01*
X69215000Y-78547501D01*
X69215005Y-78547500D01*
X69391908Y-78547500D01*
X69407500Y-78571730D01*
X69407500Y-78739995D01*
X69407499Y-78740000D01*
X69489520Y-79152342D01*
X69723092Y-79501908D01*
X70358090Y-80136905D01*
X70358092Y-80136908D01*
X70688856Y-80357916D01*
X70707659Y-80370480D01*
X71120000Y-80452501D01*
X71120005Y-80452500D01*
X74893846Y-80452500D01*
X75314769Y-80627282D01*
X75813045Y-80627717D01*
X76273557Y-80437437D01*
X76626199Y-80085411D01*
X76817282Y-79625231D01*
X76817717Y-79126955D01*
X76703009Y-78849340D01*
X76951715Y-78802543D01*
X77275902Y-78593935D01*
X77307630Y-78547500D01*
X77646908Y-78547500D01*
X77678865Y-78597162D01*
X77997164Y-78814646D01*
X78375000Y-78891160D01*
X78875000Y-78891160D01*
X79227975Y-78824743D01*
X79374216Y-78730640D01*
X79497164Y-78814646D01*
X79875000Y-78891160D01*
X80375000Y-78891160D01*
X80727975Y-78824743D01*
X81052162Y-78616135D01*
X81099058Y-78547500D01*
X81758976Y-78547500D01*
X81452025Y-78605257D01*
X81127838Y-78813865D01*
X80910354Y-79132164D01*
X80833840Y-79510000D01*
X80833840Y-80510000D01*
X80900257Y-80862975D01*
X81108865Y-81187162D01*
X81427164Y-81404646D01*
X81805000Y-81481160D01*
X83805000Y-81481160D01*
X84157975Y-81414743D01*
X84482162Y-81206135D01*
X84699646Y-80887836D01*
X84763534Y-80572349D01*
X84963090Y-80771905D01*
X84963092Y-80771908D01*
X85312659Y-81005480D01*
X85681463Y-81078840D01*
X85105000Y-81078840D01*
X84752025Y-81145257D01*
X84427838Y-81353865D01*
X84210354Y-81672164D01*
X84133840Y-82050000D01*
X84133840Y-83050000D01*
X84200257Y-83402975D01*
X84408865Y-83727162D01*
X84727164Y-83944646D01*
X85105000Y-84021160D01*
X87105000Y-84021160D01*
X87187500Y-84005637D01*
X87187500Y-86175547D01*
X87105000Y-86158840D01*
X85105000Y-86158840D01*
X84752025Y-86225257D01*
X84427838Y-86433865D01*
X84346778Y-86552500D01*
X83851024Y-86552500D01*
X84157975Y-86494743D01*
X84482162Y-86286135D01*
X84699646Y-85967836D01*
X84776160Y-85590000D01*
X84776160Y-84590000D01*
X84709743Y-84237025D01*
X84501135Y-83912838D01*
X84182836Y-83695354D01*
X83805000Y-83618840D01*
X81805000Y-83618840D01*
X81452025Y-83685257D01*
X81127838Y-83893865D01*
X80910354Y-84212164D01*
X80833840Y-84590000D01*
X80833840Y-85590000D01*
X80900257Y-85942975D01*
X81108865Y-86267162D01*
X81427164Y-86484646D01*
X81762236Y-86552500D01*
X79186315Y-86552500D01*
X78231908Y-85598092D01*
X77882342Y-85364520D01*
X77470000Y-85282499D01*
X77469995Y-85282500D01*
X72426154Y-85282500D01*
X72005231Y-85107718D01*
X71506955Y-85107283D01*
X71046443Y-85297563D01*
X70693801Y-85649589D01*
X70502718Y-86109769D01*
X70502331Y-86552500D01*
X67649251Y-86552500D01*
X67622342Y-86534520D01*
X67594477Y-86528977D01*
X67481135Y-86352838D01*
X67162836Y-86135354D01*
X66785000Y-86058840D01*
X64785000Y-86058840D01*
X64432025Y-86125257D01*
X64107838Y-86333865D01*
X63890354Y-86652164D01*
X63813840Y-87030000D01*
X63813840Y-88030000D01*
X63880257Y-88382975D01*
X64088865Y-88707162D01*
X64407164Y-88924646D01*
X64785000Y-89001160D01*
X66785000Y-89001160D01*
X67137975Y-88934743D01*
X67462162Y-88726135D01*
X67474895Y-88707500D01*
X72407668Y-88707500D01*
X72407283Y-89148045D01*
X72597563Y-89608557D01*
X72949589Y-89961199D01*
X73409769Y-90152282D01*
X73908045Y-90152717D01*
X74332102Y-89977500D01*
X78703846Y-89977500D01*
X79124769Y-90152282D01*
X79623045Y-90152717D01*
X80083557Y-89962437D01*
X80436199Y-89610411D01*
X80627282Y-89150231D01*
X80627669Y-88707500D01*
X81758976Y-88707500D01*
X81452025Y-88765257D01*
X81127838Y-88973865D01*
X80910354Y-89292164D01*
X80833840Y-89670000D01*
X80833840Y-90670000D01*
X80900257Y-91022975D01*
X81108865Y-91347162D01*
X81427164Y-91564646D01*
X81805000Y-91641160D01*
X83805000Y-91641160D01*
X84157975Y-91574743D01*
X84482162Y-91366135D01*
X84699646Y-91047836D01*
X84776160Y-90670000D01*
X84776160Y-89670000D01*
X84709743Y-89317025D01*
X84501135Y-88992838D01*
X84182836Y-88775354D01*
X83847764Y-88707500D01*
X84344734Y-88707500D01*
X84408865Y-88807162D01*
X84727164Y-89024646D01*
X85105000Y-89101160D01*
X87105000Y-89101160D01*
X87187500Y-89085637D01*
X87187500Y-91255547D01*
X87105000Y-91238840D01*
X85105000Y-91238840D01*
X84752025Y-91305257D01*
X84427838Y-91513865D01*
X84210354Y-91832164D01*
X84133840Y-92210000D01*
X84133840Y-93210000D01*
X84200257Y-93562975D01*
X84408865Y-93887162D01*
X84727164Y-94104646D01*
X85062236Y-94172500D01*
X84565266Y-94172500D01*
X84501135Y-94072838D01*
X84182836Y-93855354D01*
X83805000Y-93778840D01*
X81805000Y-93778840D01*
X81452025Y-93845257D01*
X81127838Y-94053865D01*
X80910354Y-94372164D01*
X80833840Y-94750000D01*
X80833840Y-95750000D01*
X80900257Y-96102975D01*
X81108865Y-96427162D01*
X81427164Y-96644646D01*
X81805000Y-96721160D01*
X83805000Y-96721160D01*
X84157975Y-96654743D01*
X84482162Y-96446135D01*
X84563222Y-96327500D01*
X85058976Y-96327500D01*
X84752025Y-96385257D01*
X84427838Y-96593865D01*
X84210354Y-96912164D01*
X84133840Y-97290000D01*
X84133840Y-98290000D01*
X84200257Y-98642975D01*
X84408865Y-98967162D01*
X84727164Y-99184646D01*
X85062236Y-99252500D01*
X84565266Y-99252500D01*
X84501135Y-99152838D01*
X84182836Y-98935354D01*
X83805000Y-98858840D01*
X81805000Y-98858840D01*
X81452025Y-98925257D01*
X81127838Y-99133865D01*
X80910354Y-99452164D01*
X80833840Y-99830000D01*
X80833840Y-100830000D01*
X80900257Y-101182975D01*
X81108865Y-101507162D01*
X81427164Y-101724646D01*
X81805000Y-101801160D01*
X83805000Y-101801160D01*
X84157975Y-101734743D01*
X84482162Y-101526135D01*
X84563222Y-101407500D01*
X87259393Y-101407500D01*
X87469495Y-101721940D01*
X88108123Y-102148657D01*
X88861435Y-102298500D01*
X88938565Y-102298500D01*
X89691877Y-102148657D01*
X90042485Y-101914388D01*
X94297225Y-101914388D01*
X94538398Y-102498072D01*
X94984579Y-102945032D01*
X95567841Y-103187224D01*
X96199388Y-103187775D01*
X96783072Y-102946602D01*
X97230032Y-102500421D01*
X97472224Y-101917159D01*
X97472775Y-101285612D01*
X97231602Y-100701928D01*
X96785421Y-100254968D01*
X96202159Y-100012776D01*
X95570612Y-100012225D01*
X94986928Y-100253398D01*
X94539968Y-100699579D01*
X94297776Y-101282841D01*
X94297225Y-101914388D01*
X90042485Y-101914388D01*
X90330505Y-101721940D01*
X90757222Y-101083312D01*
X90907065Y-100330000D01*
X90757222Y-99576688D01*
X90650923Y-99417599D01*
X90810646Y-99183836D01*
X90887160Y-98806000D01*
X90887160Y-96774000D01*
X90820743Y-96421025D01*
X90612135Y-96096838D01*
X90293836Y-95879354D01*
X89916000Y-95802840D01*
X88600976Y-95802840D01*
X89026905Y-95376910D01*
X89026908Y-95376908D01*
X89260480Y-95027341D01*
X89266913Y-94995000D01*
X89342501Y-94615000D01*
X89342500Y-94614995D01*
X89342500Y-80645005D01*
X89342501Y-80645000D01*
X89260480Y-80232659D01*
X89026908Y-79883092D01*
X89026905Y-79883090D01*
X88391908Y-79248092D01*
X88042342Y-79014520D01*
X87630000Y-78932499D01*
X87629995Y-78932500D01*
X87151024Y-78932500D01*
X87457975Y-78874743D01*
X87627445Y-78765692D01*
X94067076Y-78765692D01*
X94439660Y-79667415D01*
X95128957Y-80357916D01*
X96030027Y-80732073D01*
X97005692Y-80732924D01*
X97907415Y-80360340D01*
X98597916Y-79671043D01*
X98972073Y-78769973D01*
X98972924Y-77794308D01*
X98600340Y-76892585D01*
X97911043Y-76202084D01*
X97009973Y-75827927D01*
X96034308Y-75827076D01*
X95132585Y-76199660D01*
X94442084Y-76888957D01*
X94067927Y-77790027D01*
X94067076Y-78765692D01*
X87627445Y-78765692D01*
X87782162Y-78666135D01*
X87999646Y-78347836D01*
X88076160Y-77970000D01*
X88076160Y-76970000D01*
X88009743Y-76617025D01*
X87801135Y-76292838D01*
X87482836Y-76075354D01*
X87105000Y-75998840D01*
X85105000Y-75998840D01*
X84752025Y-76065257D01*
X84427838Y-76273865D01*
X84210354Y-76592164D01*
X84146466Y-76907650D01*
X83946908Y-76708092D01*
X83597342Y-76474520D01*
X83228541Y-76401160D01*
X83805000Y-76401160D01*
X84157975Y-76334743D01*
X84482162Y-76126135D01*
X84699646Y-75807836D01*
X84776160Y-75430000D01*
X84776160Y-74430000D01*
X84709743Y-74077025D01*
X84501135Y-73752838D01*
X84182836Y-73535354D01*
X83805000Y-73458840D01*
X81805000Y-73458840D01*
X81452025Y-73525257D01*
X81202500Y-73685821D01*
X81202500Y-69022500D01*
X85027500Y-69022500D01*
X85027500Y-70933423D01*
X84752025Y-70985257D01*
X84427838Y-71193865D01*
X84210354Y-71512164D01*
X84133840Y-71890000D01*
X84133840Y-72890000D01*
X84200257Y-73242975D01*
X84408865Y-73567162D01*
X84727164Y-73784646D01*
X85105000Y-73861160D01*
X87105000Y-73861160D01*
X87457975Y-73794743D01*
X87782162Y-73586135D01*
X87999646Y-73267836D01*
X88076160Y-72890000D01*
X88076160Y-71890000D01*
X88009743Y-71537025D01*
X87801135Y-71212838D01*
X87482836Y-70995354D01*
X87182500Y-70934534D01*
X87182500Y-69022500D01*
X96520000Y-69022500D01*
X97856522Y-68756649D01*
X97939567Y-68701160D01*
X98170000Y-68701160D01*
X98522975Y-68634743D01*
X98847162Y-68426135D01*
X99064646Y-68107836D01*
X99128753Y-67791268D01*
X99746649Y-66866522D01*
X99924118Y-65974326D01*
X100064579Y-66115032D01*
X100647841Y-66357224D01*
X101279388Y-66357775D01*
X101863072Y-66116602D01*
X102310032Y-65670421D01*
X102552224Y-65087159D01*
X102552775Y-64455612D01*
X102311602Y-63871928D01*
X101865421Y-63424968D01*
X101282159Y-63182776D01*
X100650612Y-63182225D01*
X100066928Y-63423398D01*
X99619968Y-63869579D01*
X99585573Y-63952411D01*
X99129976Y-63270562D01*
X99074743Y-62977025D01*
X98866135Y-62652838D01*
X98547836Y-62435354D01*
X98170000Y-62358840D01*
X97939567Y-62358840D01*
X97856522Y-62303351D01*
X96520000Y-62037500D01*
X92795020Y-62037500D01*
X92795020Y-60566618D01*
X92934348Y-60624330D01*
X94427605Y-60624330D01*
X94633980Y-60417955D01*
X94633980Y-59063500D01*
X94760980Y-59063500D01*
X94760980Y-60417955D01*
X94967355Y-60624330D01*
X96460612Y-60624330D01*
X96764018Y-60498655D01*
X96996235Y-60266438D01*
X97121910Y-59963032D01*
X97121910Y-59269875D01*
X96915535Y-59063500D01*
X94760980Y-59063500D01*
X94633980Y-59063500D01*
X94613980Y-59063500D01*
X94613980Y-58936500D01*
X94633980Y-58936500D01*
X94633980Y-57582045D01*
X94760980Y-57582045D01*
X94760980Y-58936500D01*
X96915535Y-58936500D01*
X97121910Y-58730125D01*
X97121910Y-58036968D01*
X96996235Y-57733562D01*
X96764018Y-57501345D01*
X96460612Y-57375670D01*
X94967355Y-57375670D01*
X94760980Y-57582045D01*
X94633980Y-57582045D01*
X94427605Y-57375670D01*
X92934348Y-57375670D01*
X92630942Y-57501345D01*
X92504992Y-57627295D01*
X91772090Y-56530430D01*
X91019403Y-56027500D01*
X101898800Y-56027500D01*
X102747139Y-56196245D01*
X103380534Y-56619466D01*
X103803755Y-57252861D01*
X103972500Y-58101200D01*
X103972500Y-70408840D01*
X101020000Y-70408840D01*
X100667025Y-70475257D01*
X100342838Y-70683865D01*
X100125354Y-71002164D01*
X100048840Y-71380000D01*
X100048840Y-77580000D01*
X100115257Y-77932975D01*
X100323865Y-78257162D01*
X100642164Y-78474646D01*
X101020000Y-78551160D01*
X103972500Y-78551160D01*
X103972500Y-101898800D01*
X103803755Y-102747139D01*
X103380534Y-103380534D01*
X102747139Y-103803755D01*
X101898800Y-103972500D01*
X79067838Y-103972500D01*
X79342430Y-103698387D01*
X79565246Y-103161786D01*
X79565753Y-102580763D01*
X79343874Y-102043774D01*
X78933387Y-101632570D01*
X78396786Y-101409754D01*
X77815763Y-101409247D01*
X77479837Y-101548049D01*
X77146786Y-101409754D01*
X76565763Y-101409247D01*
X76209787Y-101556333D01*
X75856786Y-101409754D01*
X75275763Y-101409247D01*
X74939837Y-101548049D01*
X74606786Y-101409754D01*
X74025763Y-101409247D01*
X73488774Y-101631126D01*
X73077570Y-102041613D01*
X72854754Y-102578214D01*
X72854247Y-103159237D01*
X73076126Y-103696226D01*
X73351918Y-103972500D01*
X58101200Y-103972500D01*
X57252861Y-103803755D01*
X56619466Y-103380534D01*
X56196245Y-102747139D01*
X56027500Y-101898800D01*
X56027500Y-92710000D01*
X57682935Y-92710000D01*
X57832778Y-93463312D01*
X58259495Y-94101940D01*
X58612500Y-94337810D01*
X58612500Y-95884995D01*
X58612499Y-95885000D01*
X58694520Y-96297342D01*
X58928092Y-96646908D01*
X60833090Y-98551905D01*
X60833092Y-98551908D01*
X61142789Y-98758840D01*
X61182659Y-98785480D01*
X61260807Y-98801025D01*
X61132025Y-98825257D01*
X60807838Y-99033865D01*
X60590354Y-99352164D01*
X60513840Y-99730000D01*
X60513840Y-100730000D01*
X60580257Y-101082975D01*
X60788865Y-101407162D01*
X61107164Y-101624646D01*
X61485000Y-101701160D01*
X63485000Y-101701160D01*
X63837975Y-101634743D01*
X64162162Y-101426135D01*
X64379646Y-101107836D01*
X64456160Y-100730000D01*
X64456160Y-99730000D01*
X64389743Y-99377025D01*
X64181135Y-99052838D01*
X63909883Y-98867500D01*
X64089360Y-98867500D01*
X64407164Y-99084646D01*
X64785000Y-99161160D01*
X66785000Y-99161160D01*
X67137975Y-99094743D01*
X67462162Y-98886135D01*
X67679646Y-98567836D01*
X67756160Y-98190000D01*
X67756160Y-97190000D01*
X67689743Y-96837025D01*
X67481135Y-96512838D01*
X67162836Y-96295354D01*
X66785000Y-96218840D01*
X64785000Y-96218840D01*
X64432025Y-96285257D01*
X64107838Y-96493865D01*
X63958451Y-96712500D01*
X62041315Y-96712500D01*
X61949975Y-96621160D01*
X63485000Y-96621160D01*
X63837975Y-96554743D01*
X64162162Y-96346135D01*
X64379646Y-96027836D01*
X64456160Y-95650000D01*
X64456160Y-94650000D01*
X64389743Y-94297025D01*
X64181135Y-93972838D01*
X63862836Y-93755354D01*
X63485000Y-93678840D01*
X63307500Y-93678840D01*
X63307500Y-92710000D01*
X63225480Y-92297659D01*
X62991908Y-91948092D01*
X62991905Y-91948090D01*
X62584975Y-91541160D01*
X63485000Y-91541160D01*
X63837975Y-91474743D01*
X64162162Y-91266135D01*
X64174895Y-91247500D01*
X64366377Y-91247500D01*
X64107838Y-91413865D01*
X63890354Y-91732164D01*
X63813840Y-92110000D01*
X63813840Y-92441897D01*
X63762500Y-92700000D01*
X63813840Y-92958103D01*
X63813840Y-93110000D01*
X63880257Y-93462975D01*
X64088865Y-93787162D01*
X64407164Y-94004646D01*
X64785000Y-94081160D01*
X66785000Y-94081160D01*
X67137975Y-94014743D01*
X67462162Y-93806135D01*
X67474895Y-93787500D01*
X78068846Y-93787500D01*
X78489769Y-93962282D01*
X78988045Y-93962717D01*
X79448557Y-93772437D01*
X79801199Y-93420411D01*
X79992282Y-92960231D01*
X79992717Y-92461955D01*
X79802437Y-92001443D01*
X79450411Y-91648801D01*
X78990231Y-91457718D01*
X78491955Y-91457283D01*
X78067898Y-91632500D01*
X75547332Y-91632500D01*
X75547717Y-91191955D01*
X75357437Y-90731443D01*
X75005411Y-90378801D01*
X74545231Y-90187718D01*
X74046955Y-90187283D01*
X73622898Y-90362500D01*
X69661315Y-90362500D01*
X68706908Y-89408092D01*
X68357342Y-89174520D01*
X67945000Y-89092499D01*
X67944995Y-89092500D01*
X64309614Y-89092500D01*
X64181135Y-88892838D01*
X63862836Y-88675354D01*
X63485000Y-88598840D01*
X61485000Y-88598840D01*
X61481112Y-88599572D01*
X61402135Y-88476838D01*
X61083836Y-88259354D01*
X60706000Y-88182840D01*
X58674000Y-88182840D01*
X58321025Y-88249257D01*
X57996838Y-88457865D01*
X57779354Y-88776164D01*
X57702840Y-89154000D01*
X57702840Y-91186000D01*
X57769257Y-91538975D01*
X57937345Y-91800192D01*
X57832778Y-91956688D01*
X57682935Y-92710000D01*
X56027500Y-92710000D01*
X56027500Y-67660621D01*
X57882187Y-67660621D01*
X57885617Y-67677890D01*
X58163753Y-68340393D01*
X58674246Y-68846028D01*
X59339378Y-69117817D01*
X59626500Y-68944034D01*
X59626500Y-67373500D01*
X59753500Y-67373500D01*
X59753500Y-68944034D01*
X60040622Y-69117817D01*
X60118980Y-69085798D01*
X60659500Y-69085798D01*
X60659500Y-69480125D01*
X60865875Y-69686500D01*
X62421500Y-69686500D01*
X62421500Y-68630875D01*
X62548500Y-68630875D01*
X62548500Y-69686500D01*
X64104125Y-69686500D01*
X64310500Y-69480125D01*
X64310500Y-69085798D01*
X64184825Y-68782392D01*
X63952608Y-68550175D01*
X63649202Y-68424500D01*
X62754875Y-68424500D01*
X62548500Y-68630875D01*
X62421500Y-68630875D01*
X62215125Y-68424500D01*
X61320798Y-68424500D01*
X61017392Y-68550175D01*
X60785175Y-68782392D01*
X60659500Y-69085798D01*
X60118980Y-69085798D01*
X60705754Y-68846028D01*
X61216247Y-68340393D01*
X61494383Y-67677890D01*
X61497813Y-67660621D01*
X61323892Y-67373500D01*
X59753500Y-67373500D01*
X59626500Y-67373500D01*
X58056108Y-67373500D01*
X57882187Y-67660621D01*
X56027500Y-67660621D01*
X56027500Y-59314388D01*
X63412225Y-59314388D01*
X63653398Y-59898072D01*
X64099579Y-60345032D01*
X64682841Y-60587224D01*
X65314388Y-60587775D01*
X65898072Y-60346602D01*
X66345032Y-59900421D01*
X66587224Y-59317159D01*
X66587775Y-58685612D01*
X66346602Y-58101928D01*
X65900421Y-57654968D01*
X65317159Y-57412776D01*
X64685612Y-57412225D01*
X64101928Y-57653398D01*
X63654968Y-58099579D01*
X63412776Y-58682841D01*
X63412225Y-59314388D01*
X56027500Y-59314388D01*
X56027500Y-58101200D01*
X56196245Y-57252861D01*
X56619466Y-56619466D01*
X57252861Y-56196245D01*
X58101200Y-56027500D01*
X87585637Y-56027500D01*
X86832950Y-56530430D01*
X86832950Y-56530430D01*
G37*
X86832950Y-56530430D02*
X86075871Y-57663478D01*
X85810020Y-59000000D01*
X85810020Y-62037500D01*
X78865000Y-62037500D01*
X77528478Y-62303351D01*
X76395430Y-63060430D01*
X75937861Y-63745230D01*
X75624991Y-63536177D01*
X74930000Y-63397935D01*
X74235009Y-63536177D01*
X73645823Y-63929858D01*
X73252142Y-64519044D01*
X73113900Y-65214035D01*
X73113900Y-65595965D01*
X73252142Y-66290956D01*
X73645823Y-66880142D01*
X73852500Y-67018239D01*
X73852500Y-71943685D01*
X73848684Y-71947500D01*
X71120005Y-71947500D01*
X71120000Y-71947499D01*
X70707658Y-72029520D01*
X70567642Y-72123076D01*
X70358092Y-72263092D01*
X70358090Y-72263095D01*
X69657500Y-72963684D01*
X69657500Y-65405005D01*
X69657501Y-65405000D01*
X69575480Y-64992659D01*
X69486498Y-64859487D01*
X69341908Y-64643092D01*
X69341905Y-64643090D01*
X68706908Y-64008092D01*
X68357342Y-63774520D01*
X67945000Y-63692499D01*
X67944995Y-63692500D01*
X64309614Y-63692500D01*
X64181135Y-63492838D01*
X63909883Y-63307500D01*
X64089360Y-63307500D01*
X64407164Y-63524646D01*
X64785000Y-63601160D01*
X66785000Y-63601160D01*
X67137975Y-63534743D01*
X67462162Y-63326135D01*
X67679646Y-63007836D01*
X67756160Y-62630000D01*
X67756160Y-61630000D01*
X67689743Y-61277025D01*
X67481135Y-60952838D01*
X67162836Y-60735354D01*
X66785000Y-60658840D01*
X64785000Y-60658840D01*
X64432025Y-60725257D01*
X64107838Y-60933865D01*
X63958451Y-61152500D01*
X62230000Y-61152500D01*
X61817659Y-61234520D01*
X61468092Y-61468092D01*
X61468090Y-61468095D01*
X60153344Y-62782840D01*
X58674000Y-62782840D01*
X58321025Y-62849257D01*
X57996838Y-63057865D01*
X57779354Y-63376164D01*
X57702840Y-63754000D01*
X57702840Y-65786000D01*
X57769257Y-66138975D01*
X57977865Y-66463162D01*
X58062433Y-66520945D01*
X57885617Y-66942110D01*
X57882187Y-66959379D01*
X58056108Y-67246500D01*
X59626500Y-67246500D01*
X59626500Y-67226500D01*
X59753500Y-67226500D01*
X59753500Y-67246500D01*
X61323892Y-67246500D01*
X61497813Y-66959379D01*
X61494383Y-66942110D01*
X61318690Y-66523621D01*
X61383162Y-66482135D01*
X61600646Y-66163836D01*
X61605238Y-66141160D01*
X63485000Y-66141160D01*
X63837975Y-66074743D01*
X64162162Y-65866135D01*
X64174895Y-65847500D01*
X64366377Y-65847500D01*
X64107838Y-66013865D01*
X63890354Y-66332164D01*
X63813840Y-66710000D01*
X63813840Y-67710000D01*
X63880257Y-68062975D01*
X64088865Y-68387162D01*
X64407164Y-68604646D01*
X64785000Y-68681160D01*
X66785000Y-68681160D01*
X67137975Y-68614743D01*
X67462162Y-68406135D01*
X67502500Y-68347098D01*
X67502500Y-71146040D01*
X67481135Y-71112838D01*
X67162836Y-70895354D01*
X66785000Y-70818840D01*
X64785000Y-70818840D01*
X64432025Y-70885257D01*
X64107838Y-71093865D01*
X63958451Y-71312500D01*
X61636912Y-71312500D01*
X61610743Y-71173425D01*
X61547730Y-71075500D01*
X62215125Y-71075500D01*
X62421500Y-70869125D01*
X62421500Y-69813500D01*
X62548500Y-69813500D01*
X62548500Y-70869125D01*
X62754875Y-71075500D01*
X63649202Y-71075500D01*
X63952608Y-70949825D01*
X64184825Y-70717608D01*
X64310500Y-70414202D01*
X64310500Y-70019875D01*
X64104125Y-69813500D01*
X62548500Y-69813500D01*
X62421500Y-69813500D01*
X60865875Y-69813500D01*
X60659500Y-70019875D01*
X60659500Y-70414202D01*
X60719011Y-70557875D01*
X60706000Y-70555240D01*
X58674000Y-70555240D01*
X58321025Y-70621657D01*
X57996838Y-70830265D01*
X57779354Y-71148564D01*
X57702840Y-71526400D01*
X57702840Y-73253600D01*
X57769257Y-73606575D01*
X57977865Y-73930762D01*
X58009861Y-73952624D01*
X57821177Y-74235009D01*
X57682935Y-74930000D01*
X57821177Y-75624991D01*
X58205385Y-76200000D01*
X57821177Y-76775009D01*
X57682935Y-77470000D01*
X57821177Y-78164991D01*
X58205385Y-78740000D01*
X57821177Y-79315009D01*
X57682935Y-80010000D01*
X57821177Y-80704991D01*
X58205385Y-81280000D01*
X57821177Y-81855009D01*
X57682935Y-82550000D01*
X57821177Y-83244991D01*
X58205385Y-83820000D01*
X57821177Y-84395009D01*
X57682935Y-85090000D01*
X57821177Y-85784991D01*
X58214858Y-86374177D01*
X58804044Y-86767858D01*
X59499035Y-86906100D01*
X59880965Y-86906100D01*
X60575956Y-86767858D01*
X61139633Y-86391221D01*
X61485000Y-86461160D01*
X63485000Y-86461160D01*
X63837975Y-86394743D01*
X64162162Y-86186135D01*
X64379646Y-85867836D01*
X64456160Y-85490000D01*
X64456160Y-84490000D01*
X64389743Y-84137025D01*
X64181135Y-83812838D01*
X63909883Y-83627500D01*
X64089360Y-83627500D01*
X64407164Y-83844646D01*
X64785000Y-83921160D01*
X66785000Y-83921160D01*
X67137975Y-83854743D01*
X67462162Y-83646135D01*
X67679646Y-83327836D01*
X67756160Y-82950000D01*
X67756160Y-81950000D01*
X67689743Y-81597025D01*
X67481135Y-81272838D01*
X67162836Y-81055354D01*
X66785000Y-80978840D01*
X64785000Y-80978840D01*
X64432025Y-81045257D01*
X64107838Y-81253865D01*
X63958451Y-81472500D01*
X61303239Y-81472500D01*
X61204215Y-81324299D01*
X61485000Y-81381160D01*
X63485000Y-81381160D01*
X63837975Y-81314743D01*
X64162162Y-81106135D01*
X64379646Y-80787836D01*
X64456160Y-80410000D01*
X64456160Y-79410000D01*
X64389743Y-79057025D01*
X64181135Y-78732838D01*
X63909883Y-78547500D01*
X64089360Y-78547500D01*
X64407164Y-78764646D01*
X64785000Y-78841160D01*
X66785000Y-78841160D01*
X67137975Y-78774743D01*
X67462162Y-78566135D01*
X67679646Y-78247836D01*
X67756160Y-77870000D01*
X67756160Y-77504220D01*
X67818092Y-77596908D01*
X68453090Y-78231905D01*
X68453092Y-78231908D01*
X68674010Y-78379520D01*
X68802659Y-78465480D01*
X69215000Y-78547501D01*
X69215005Y-78547500D01*
X69391908Y-78547500D01*
X69407500Y-78571730D01*
X69407500Y-78739995D01*
X69407499Y-78740000D01*
X69489520Y-79152342D01*
X69723092Y-79501908D01*
X70358090Y-80136905D01*
X70358092Y-80136908D01*
X70688856Y-80357916D01*
X70707659Y-80370480D01*
X71120000Y-80452501D01*
X71120005Y-80452500D01*
X74893846Y-80452500D01*
X75314769Y-80627282D01*
X75813045Y-80627717D01*
X76273557Y-80437437D01*
X76626199Y-80085411D01*
X76817282Y-79625231D01*
X76817717Y-79126955D01*
X76703009Y-78849340D01*
X76951715Y-78802543D01*
X77275902Y-78593935D01*
X77307630Y-78547500D01*
X77646908Y-78547500D01*
X77678865Y-78597162D01*
X77997164Y-78814646D01*
X78375000Y-78891160D01*
X78875000Y-78891160D01*
X79227975Y-78824743D01*
X79374216Y-78730640D01*
X79497164Y-78814646D01*
X79875000Y-78891160D01*
X80375000Y-78891160D01*
X80727975Y-78824743D01*
X81052162Y-78616135D01*
X81099058Y-78547500D01*
X81758976Y-78547500D01*
X81452025Y-78605257D01*
X81127838Y-78813865D01*
X80910354Y-79132164D01*
X80833840Y-79510000D01*
X80833840Y-80510000D01*
X80900257Y-80862975D01*
X81108865Y-81187162D01*
X81427164Y-81404646D01*
X81805000Y-81481160D01*
X83805000Y-81481160D01*
X84157975Y-81414743D01*
X84482162Y-81206135D01*
X84699646Y-80887836D01*
X84763534Y-80572349D01*
X84963090Y-80771905D01*
X84963092Y-80771908D01*
X85312659Y-81005480D01*
X85681463Y-81078840D01*
X85105000Y-81078840D01*
X84752025Y-81145257D01*
X84427838Y-81353865D01*
X84210354Y-81672164D01*
X84133840Y-82050000D01*
X84133840Y-83050000D01*
X84200257Y-83402975D01*
X84408865Y-83727162D01*
X84727164Y-83944646D01*
X85105000Y-84021160D01*
X87105000Y-84021160D01*
X87187500Y-84005637D01*
X87187500Y-86175547D01*
X87105000Y-86158840D01*
X85105000Y-86158840D01*
X84752025Y-86225257D01*
X84427838Y-86433865D01*
X84346778Y-86552500D01*
X83851024Y-86552500D01*
X84157975Y-86494743D01*
X84482162Y-86286135D01*
X84699646Y-85967836D01*
X84776160Y-85590000D01*
X84776160Y-84590000D01*
X84709743Y-84237025D01*
X84501135Y-83912838D01*
X84182836Y-83695354D01*
X83805000Y-83618840D01*
X81805000Y-83618840D01*
X81452025Y-83685257D01*
X81127838Y-83893865D01*
X80910354Y-84212164D01*
X80833840Y-84590000D01*
X80833840Y-85590000D01*
X80900257Y-85942975D01*
X81108865Y-86267162D01*
X81427164Y-86484646D01*
X81762236Y-86552500D01*
X79186315Y-86552500D01*
X78231908Y-85598092D01*
X77882342Y-85364520D01*
X77470000Y-85282499D01*
X77469995Y-85282500D01*
X72426154Y-85282500D01*
X72005231Y-85107718D01*
X71506955Y-85107283D01*
X71046443Y-85297563D01*
X70693801Y-85649589D01*
X70502718Y-86109769D01*
X70502331Y-86552500D01*
X67649251Y-86552500D01*
X67622342Y-86534520D01*
X67594477Y-86528977D01*
X67481135Y-86352838D01*
X67162836Y-86135354D01*
X66785000Y-86058840D01*
X64785000Y-86058840D01*
X64432025Y-86125257D01*
X64107838Y-86333865D01*
X63890354Y-86652164D01*
X63813840Y-87030000D01*
X63813840Y-88030000D01*
X63880257Y-88382975D01*
X64088865Y-88707162D01*
X64407164Y-88924646D01*
X64785000Y-89001160D01*
X66785000Y-89001160D01*
X67137975Y-88934743D01*
X67462162Y-88726135D01*
X67474895Y-88707500D01*
X72407668Y-88707500D01*
X72407283Y-89148045D01*
X72597563Y-89608557D01*
X72949589Y-89961199D01*
X73409769Y-90152282D01*
X73908045Y-90152717D01*
X74332102Y-89977500D01*
X78703846Y-89977500D01*
X79124769Y-90152282D01*
X79623045Y-90152717D01*
X80083557Y-89962437D01*
X80436199Y-89610411D01*
X80627282Y-89150231D01*
X80627669Y-88707500D01*
X81758976Y-88707500D01*
X81452025Y-88765257D01*
X81127838Y-88973865D01*
X80910354Y-89292164D01*
X80833840Y-89670000D01*
X80833840Y-90670000D01*
X80900257Y-91022975D01*
X81108865Y-91347162D01*
X81427164Y-91564646D01*
X81805000Y-91641160D01*
X83805000Y-91641160D01*
X84157975Y-91574743D01*
X84482162Y-91366135D01*
X84699646Y-91047836D01*
X84776160Y-90670000D01*
X84776160Y-89670000D01*
X84709743Y-89317025D01*
X84501135Y-88992838D01*
X84182836Y-88775354D01*
X83847764Y-88707500D01*
X84344734Y-88707500D01*
X84408865Y-88807162D01*
X84727164Y-89024646D01*
X85105000Y-89101160D01*
X87105000Y-89101160D01*
X87187500Y-89085637D01*
X87187500Y-91255547D01*
X87105000Y-91238840D01*
X85105000Y-91238840D01*
X84752025Y-91305257D01*
X84427838Y-91513865D01*
X84210354Y-91832164D01*
X84133840Y-92210000D01*
X84133840Y-93210000D01*
X84200257Y-93562975D01*
X84408865Y-93887162D01*
X84727164Y-94104646D01*
X85062236Y-94172500D01*
X84565266Y-94172500D01*
X84501135Y-94072838D01*
X84182836Y-93855354D01*
X83805000Y-93778840D01*
X81805000Y-93778840D01*
X81452025Y-93845257D01*
X81127838Y-94053865D01*
X80910354Y-94372164D01*
X80833840Y-94750000D01*
X80833840Y-95750000D01*
X80900257Y-96102975D01*
X81108865Y-96427162D01*
X81427164Y-96644646D01*
X81805000Y-96721160D01*
X83805000Y-96721160D01*
X84157975Y-96654743D01*
X84482162Y-96446135D01*
X84563222Y-96327500D01*
X85058976Y-96327500D01*
X84752025Y-96385257D01*
X84427838Y-96593865D01*
X84210354Y-96912164D01*
X84133840Y-97290000D01*
X84133840Y-98290000D01*
X84200257Y-98642975D01*
X84408865Y-98967162D01*
X84727164Y-99184646D01*
X85062236Y-99252500D01*
X84565266Y-99252500D01*
X84501135Y-99152838D01*
X84182836Y-98935354D01*
X83805000Y-98858840D01*
X81805000Y-98858840D01*
X81452025Y-98925257D01*
X81127838Y-99133865D01*
X80910354Y-99452164D01*
X80833840Y-99830000D01*
X80833840Y-100830000D01*
X80900257Y-101182975D01*
X81108865Y-101507162D01*
X81427164Y-101724646D01*
X81805000Y-101801160D01*
X83805000Y-101801160D01*
X84157975Y-101734743D01*
X84482162Y-101526135D01*
X84563222Y-101407500D01*
X87259393Y-101407500D01*
X87469495Y-101721940D01*
X88108123Y-102148657D01*
X88861435Y-102298500D01*
X88938565Y-102298500D01*
X89691877Y-102148657D01*
X90042485Y-101914388D01*
X94297225Y-101914388D01*
X94538398Y-102498072D01*
X94984579Y-102945032D01*
X95567841Y-103187224D01*
X96199388Y-103187775D01*
X96783072Y-102946602D01*
X97230032Y-102500421D01*
X97472224Y-101917159D01*
X97472775Y-101285612D01*
X97231602Y-100701928D01*
X96785421Y-100254968D01*
X96202159Y-100012776D01*
X95570612Y-100012225D01*
X94986928Y-100253398D01*
X94539968Y-100699579D01*
X94297776Y-101282841D01*
X94297225Y-101914388D01*
X90042485Y-101914388D01*
X90330505Y-101721940D01*
X90757222Y-101083312D01*
X90907065Y-100330000D01*
X90757222Y-99576688D01*
X90650923Y-99417599D01*
X90810646Y-99183836D01*
X90887160Y-98806000D01*
X90887160Y-96774000D01*
X90820743Y-96421025D01*
X90612135Y-96096838D01*
X90293836Y-95879354D01*
X89916000Y-95802840D01*
X88600976Y-95802840D01*
X89026905Y-95376910D01*
X89026908Y-95376908D01*
X89260480Y-95027341D01*
X89266913Y-94995000D01*
X89342501Y-94615000D01*
X89342500Y-94614995D01*
X89342500Y-80645005D01*
X89342501Y-80645000D01*
X89260480Y-80232659D01*
X89026908Y-79883092D01*
X89026905Y-79883090D01*
X88391908Y-79248092D01*
X88042342Y-79014520D01*
X87630000Y-78932499D01*
X87629995Y-78932500D01*
X87151024Y-78932500D01*
X87457975Y-78874743D01*
X87627445Y-78765692D01*
X94067076Y-78765692D01*
X94439660Y-79667415D01*
X95128957Y-80357916D01*
X96030027Y-80732073D01*
X97005692Y-80732924D01*
X97907415Y-80360340D01*
X98597916Y-79671043D01*
X98972073Y-78769973D01*
X98972924Y-77794308D01*
X98600340Y-76892585D01*
X97911043Y-76202084D01*
X97009973Y-75827927D01*
X96034308Y-75827076D01*
X95132585Y-76199660D01*
X94442084Y-76888957D01*
X94067927Y-77790027D01*
X94067076Y-78765692D01*
X87627445Y-78765692D01*
X87782162Y-78666135D01*
X87999646Y-78347836D01*
X88076160Y-77970000D01*
X88076160Y-76970000D01*
X88009743Y-76617025D01*
X87801135Y-76292838D01*
X87482836Y-76075354D01*
X87105000Y-75998840D01*
X85105000Y-75998840D01*
X84752025Y-76065257D01*
X84427838Y-76273865D01*
X84210354Y-76592164D01*
X84146466Y-76907650D01*
X83946908Y-76708092D01*
X83597342Y-76474520D01*
X83228541Y-76401160D01*
X83805000Y-76401160D01*
X84157975Y-76334743D01*
X84482162Y-76126135D01*
X84699646Y-75807836D01*
X84776160Y-75430000D01*
X84776160Y-74430000D01*
X84709743Y-74077025D01*
X84501135Y-73752838D01*
X84182836Y-73535354D01*
X83805000Y-73458840D01*
X81805000Y-73458840D01*
X81452025Y-73525257D01*
X81202500Y-73685821D01*
X81202500Y-69022500D01*
X85027500Y-69022500D01*
X85027500Y-70933423D01*
X84752025Y-70985257D01*
X84427838Y-71193865D01*
X84210354Y-71512164D01*
X84133840Y-71890000D01*
X84133840Y-72890000D01*
X84200257Y-73242975D01*
X84408865Y-73567162D01*
X84727164Y-73784646D01*
X85105000Y-73861160D01*
X87105000Y-73861160D01*
X87457975Y-73794743D01*
X87782162Y-73586135D01*
X87999646Y-73267836D01*
X88076160Y-72890000D01*
X88076160Y-71890000D01*
X88009743Y-71537025D01*
X87801135Y-71212838D01*
X87482836Y-70995354D01*
X87182500Y-70934534D01*
X87182500Y-69022500D01*
X96520000Y-69022500D01*
X97856522Y-68756649D01*
X97939567Y-68701160D01*
X98170000Y-68701160D01*
X98522975Y-68634743D01*
X98847162Y-68426135D01*
X99064646Y-68107836D01*
X99128753Y-67791268D01*
X99746649Y-66866522D01*
X99924118Y-65974326D01*
X100064579Y-66115032D01*
X100647841Y-66357224D01*
X101279388Y-66357775D01*
X101863072Y-66116602D01*
X102310032Y-65670421D01*
X102552224Y-65087159D01*
X102552775Y-64455612D01*
X102311602Y-63871928D01*
X101865421Y-63424968D01*
X101282159Y-63182776D01*
X100650612Y-63182225D01*
X100066928Y-63423398D01*
X99619968Y-63869579D01*
X99585573Y-63952411D01*
X99129976Y-63270562D01*
X99074743Y-62977025D01*
X98866135Y-62652838D01*
X98547836Y-62435354D01*
X98170000Y-62358840D01*
X97939567Y-62358840D01*
X97856522Y-62303351D01*
X96520000Y-62037500D01*
X92795020Y-62037500D01*
X92795020Y-60566618D01*
X92934348Y-60624330D01*
X94427605Y-60624330D01*
X94633980Y-60417955D01*
X94633980Y-59063500D01*
X94760980Y-59063500D01*
X94760980Y-60417955D01*
X94967355Y-60624330D01*
X96460612Y-60624330D01*
X96764018Y-60498655D01*
X96996235Y-60266438D01*
X97121910Y-59963032D01*
X97121910Y-59269875D01*
X96915535Y-59063500D01*
X94760980Y-59063500D01*
X94633980Y-59063500D01*
X94613980Y-59063500D01*
X94613980Y-58936500D01*
X94633980Y-58936500D01*
X94633980Y-57582045D01*
X94760980Y-57582045D01*
X94760980Y-58936500D01*
X96915535Y-58936500D01*
X97121910Y-58730125D01*
X97121910Y-58036968D01*
X96996235Y-57733562D01*
X96764018Y-57501345D01*
X96460612Y-57375670D01*
X94967355Y-57375670D01*
X94760980Y-57582045D01*
X94633980Y-57582045D01*
X94427605Y-57375670D01*
X92934348Y-57375670D01*
X92630942Y-57501345D01*
X92504992Y-57627295D01*
X91772090Y-56530430D01*
X91019403Y-56027500D01*
X101898800Y-56027500D01*
X102747139Y-56196245D01*
X103380534Y-56619466D01*
X103803755Y-57252861D01*
X103972500Y-58101200D01*
X103972500Y-70408840D01*
X101020000Y-70408840D01*
X100667025Y-70475257D01*
X100342838Y-70683865D01*
X100125354Y-71002164D01*
X100048840Y-71380000D01*
X100048840Y-77580000D01*
X100115257Y-77932975D01*
X100323865Y-78257162D01*
X100642164Y-78474646D01*
X101020000Y-78551160D01*
X103972500Y-78551160D01*
X103972500Y-101898800D01*
X103803755Y-102747139D01*
X103380534Y-103380534D01*
X102747139Y-103803755D01*
X101898800Y-103972500D01*
X79067838Y-103972500D01*
X79342430Y-103698387D01*
X79565246Y-103161786D01*
X79565753Y-102580763D01*
X79343874Y-102043774D01*
X78933387Y-101632570D01*
X78396786Y-101409754D01*
X77815763Y-101409247D01*
X77479837Y-101548049D01*
X77146786Y-101409754D01*
X76565763Y-101409247D01*
X76209787Y-101556333D01*
X75856786Y-101409754D01*
X75275763Y-101409247D01*
X74939837Y-101548049D01*
X74606786Y-101409754D01*
X74025763Y-101409247D01*
X73488774Y-101631126D01*
X73077570Y-102041613D01*
X72854754Y-102578214D01*
X72854247Y-103159237D01*
X73076126Y-103696226D01*
X73351918Y-103972500D01*
X58101200Y-103972500D01*
X57252861Y-103803755D01*
X56619466Y-103380534D01*
X56196245Y-102747139D01*
X56027500Y-101898800D01*
X56027500Y-92710000D01*
X57682935Y-92710000D01*
X57832778Y-93463312D01*
X58259495Y-94101940D01*
X58612500Y-94337810D01*
X58612500Y-95884995D01*
X58612499Y-95885000D01*
X58694520Y-96297342D01*
X58928092Y-96646908D01*
X60833090Y-98551905D01*
X60833092Y-98551908D01*
X61142789Y-98758840D01*
X61182659Y-98785480D01*
X61260807Y-98801025D01*
X61132025Y-98825257D01*
X60807838Y-99033865D01*
X60590354Y-99352164D01*
X60513840Y-99730000D01*
X60513840Y-100730000D01*
X60580257Y-101082975D01*
X60788865Y-101407162D01*
X61107164Y-101624646D01*
X61485000Y-101701160D01*
X63485000Y-101701160D01*
X63837975Y-101634743D01*
X64162162Y-101426135D01*
X64379646Y-101107836D01*
X64456160Y-100730000D01*
X64456160Y-99730000D01*
X64389743Y-99377025D01*
X64181135Y-99052838D01*
X63909883Y-98867500D01*
X64089360Y-98867500D01*
X64407164Y-99084646D01*
X64785000Y-99161160D01*
X66785000Y-99161160D01*
X67137975Y-99094743D01*
X67462162Y-98886135D01*
X67679646Y-98567836D01*
X67756160Y-98190000D01*
X67756160Y-97190000D01*
X67689743Y-96837025D01*
X67481135Y-96512838D01*
X67162836Y-96295354D01*
X66785000Y-96218840D01*
X64785000Y-96218840D01*
X64432025Y-96285257D01*
X64107838Y-96493865D01*
X63958451Y-96712500D01*
X62041315Y-96712500D01*
X61949975Y-96621160D01*
X63485000Y-96621160D01*
X63837975Y-96554743D01*
X64162162Y-96346135D01*
X64379646Y-96027836D01*
X64456160Y-95650000D01*
X64456160Y-94650000D01*
X64389743Y-94297025D01*
X64181135Y-93972838D01*
X63862836Y-93755354D01*
X63485000Y-93678840D01*
X63307500Y-93678840D01*
X63307500Y-92710000D01*
X63225480Y-92297659D01*
X62991908Y-91948092D01*
X62991905Y-91948090D01*
X62584975Y-91541160D01*
X63485000Y-91541160D01*
X63837975Y-91474743D01*
X64162162Y-91266135D01*
X64174895Y-91247500D01*
X64366377Y-91247500D01*
X64107838Y-91413865D01*
X63890354Y-91732164D01*
X63813840Y-92110000D01*
X63813840Y-92441897D01*
X63762500Y-92700000D01*
X63813840Y-92958103D01*
X63813840Y-93110000D01*
X63880257Y-93462975D01*
X64088865Y-93787162D01*
X64407164Y-94004646D01*
X64785000Y-94081160D01*
X66785000Y-94081160D01*
X67137975Y-94014743D01*
X67462162Y-93806135D01*
X67474895Y-93787500D01*
X78068846Y-93787500D01*
X78489769Y-93962282D01*
X78988045Y-93962717D01*
X79448557Y-93772437D01*
X79801199Y-93420411D01*
X79992282Y-92960231D01*
X79992717Y-92461955D01*
X79802437Y-92001443D01*
X79450411Y-91648801D01*
X78990231Y-91457718D01*
X78491955Y-91457283D01*
X78067898Y-91632500D01*
X75547332Y-91632500D01*
X75547717Y-91191955D01*
X75357437Y-90731443D01*
X75005411Y-90378801D01*
X74545231Y-90187718D01*
X74046955Y-90187283D01*
X73622898Y-90362500D01*
X69661315Y-90362500D01*
X68706908Y-89408092D01*
X68357342Y-89174520D01*
X67945000Y-89092499D01*
X67944995Y-89092500D01*
X64309614Y-89092500D01*
X64181135Y-88892838D01*
X63862836Y-88675354D01*
X63485000Y-88598840D01*
X61485000Y-88598840D01*
X61481112Y-88599572D01*
X61402135Y-88476838D01*
X61083836Y-88259354D01*
X60706000Y-88182840D01*
X58674000Y-88182840D01*
X58321025Y-88249257D01*
X57996838Y-88457865D01*
X57779354Y-88776164D01*
X57702840Y-89154000D01*
X57702840Y-91186000D01*
X57769257Y-91538975D01*
X57937345Y-91800192D01*
X57832778Y-91956688D01*
X57682935Y-92710000D01*
X56027500Y-92710000D01*
X56027500Y-67660621D01*
X57882187Y-67660621D01*
X57885617Y-67677890D01*
X58163753Y-68340393D01*
X58674246Y-68846028D01*
X59339378Y-69117817D01*
X59626500Y-68944034D01*
X59626500Y-67373500D01*
X59753500Y-67373500D01*
X59753500Y-68944034D01*
X60040622Y-69117817D01*
X60118980Y-69085798D01*
X60659500Y-69085798D01*
X60659500Y-69480125D01*
X60865875Y-69686500D01*
X62421500Y-69686500D01*
X62421500Y-68630875D01*
X62548500Y-68630875D01*
X62548500Y-69686500D01*
X64104125Y-69686500D01*
X64310500Y-69480125D01*
X64310500Y-69085798D01*
X64184825Y-68782392D01*
X63952608Y-68550175D01*
X63649202Y-68424500D01*
X62754875Y-68424500D01*
X62548500Y-68630875D01*
X62421500Y-68630875D01*
X62215125Y-68424500D01*
X61320798Y-68424500D01*
X61017392Y-68550175D01*
X60785175Y-68782392D01*
X60659500Y-69085798D01*
X60118980Y-69085798D01*
X60705754Y-68846028D01*
X61216247Y-68340393D01*
X61494383Y-67677890D01*
X61497813Y-67660621D01*
X61323892Y-67373500D01*
X59753500Y-67373500D01*
X59626500Y-67373500D01*
X58056108Y-67373500D01*
X57882187Y-67660621D01*
X56027500Y-67660621D01*
X56027500Y-59314388D01*
X63412225Y-59314388D01*
X63653398Y-59898072D01*
X64099579Y-60345032D01*
X64682841Y-60587224D01*
X65314388Y-60587775D01*
X65898072Y-60346602D01*
X66345032Y-59900421D01*
X66587224Y-59317159D01*
X66587775Y-58685612D01*
X66346602Y-58101928D01*
X65900421Y-57654968D01*
X65317159Y-57412776D01*
X64685612Y-57412225D01*
X64101928Y-57653398D01*
X63654968Y-58099579D01*
X63412776Y-58682841D01*
X63412225Y-59314388D01*
X56027500Y-59314388D01*
X56027500Y-58101200D01*
X56196245Y-57252861D01*
X56619466Y-56619466D01*
X57252861Y-56196245D01*
X58101200Y-56027500D01*
X87585637Y-56027500D01*
X86832950Y-56530430D01*
M02*
