G04 #@! TF.FileFunction,Copper,L2,Bot,Signal*
%FSLAX46Y46*%
G04 Gerber Fmt 4.6, Leading zero omitted, Abs format (unit mm)*
G04 Created by KiCad (PCBNEW 4.0.5+dfsg1-4) date Mon Apr  9 20:40:12 2018*
%MOMM*%
%LPD*%
G01*
G04 APERTURE LIST*
%ADD10C,0.100000*%
%ADD11R,2.032000X2.032000*%
%ADD12O,2.032000X2.032000*%
%ADD13R,2.032000X1.727200*%
%ADD14O,2.032000X1.727200*%
%ADD15C,3.556000*%
%ADD16C,3.000000*%
%ADD17O,1.727200X2.032000*%
%ADD18C,0.600000*%
%ADD19C,0.250000*%
%ADD20C,0.127000*%
G04 APERTURE END LIST*
D10*
D11*
X59690000Y-64770000D03*
D12*
X59690000Y-67310000D03*
D11*
X88900000Y-97790000D03*
D12*
X88900000Y-100330000D03*
D11*
X59690000Y-90170000D03*
D12*
X59690000Y-92710000D03*
D13*
X59690000Y-72390000D03*
D14*
X59690000Y-74930000D03*
X59690000Y-77470000D03*
X59690000Y-80010000D03*
X59690000Y-82550000D03*
X59690000Y-85090000D03*
D15*
X59000000Y-101000000D03*
X101000000Y-59000000D03*
X59000000Y-59000000D03*
X101000000Y-101000000D03*
D16*
X96520000Y-78280000D03*
D15*
X78740000Y-65405000D03*
D17*
X74930000Y-65405000D03*
D15*
X71120000Y-65405000D03*
D18*
X74295000Y-90170000D03*
X71755000Y-90170000D03*
X74295000Y-94615000D03*
X68580000Y-94615000D03*
X80645000Y-88900000D03*
X80645000Y-86360000D03*
D19*
X71755000Y-90170000D02*
X74295000Y-90170000D01*
X68580000Y-94615000D02*
X74295000Y-94615000D01*
X80645000Y-86360000D02*
X80645000Y-88900000D01*
D20*
G36*
X103044458Y-55478457D02*
X103929905Y-56070095D01*
X104521543Y-56955542D01*
X104734500Y-58026148D01*
X104734500Y-101973852D01*
X104521543Y-103044458D01*
X103929905Y-103929905D01*
X103044458Y-104521543D01*
X101973848Y-104734500D01*
X58026148Y-104734500D01*
X56955542Y-104521543D01*
X56070095Y-103929905D01*
X55478457Y-103044458D01*
X55265500Y-101973848D01*
X55265500Y-100330000D01*
X87595433Y-100330000D01*
X87692829Y-100819643D01*
X87970190Y-101234743D01*
X88385290Y-101512104D01*
X88874933Y-101609500D01*
X88925067Y-101609500D01*
X89414710Y-101512104D01*
X89829810Y-101234743D01*
X90107171Y-100819643D01*
X90204567Y-100330000D01*
X90107171Y-99840357D01*
X89829810Y-99425257D01*
X89414710Y-99147896D01*
X89046538Y-99074662D01*
X89916000Y-99074662D01*
X90013647Y-99056288D01*
X90103330Y-98998579D01*
X90163495Y-98910525D01*
X90184662Y-98806000D01*
X90184662Y-96774000D01*
X90166288Y-96676353D01*
X90108579Y-96586670D01*
X90020525Y-96526505D01*
X89916000Y-96505338D01*
X87884000Y-96505338D01*
X87786353Y-96523712D01*
X87696670Y-96581421D01*
X87636505Y-96669475D01*
X87615338Y-96774000D01*
X87615338Y-98806000D01*
X87633712Y-98903647D01*
X87691421Y-98993330D01*
X87779475Y-99053495D01*
X87884000Y-99074662D01*
X88753462Y-99074662D01*
X88385290Y-99147896D01*
X87970190Y-99425257D01*
X87692829Y-99840357D01*
X87595433Y-100330000D01*
X55265500Y-100330000D01*
X55265500Y-95885000D01*
X58385433Y-95885000D01*
X58482829Y-96374643D01*
X58760190Y-96789743D01*
X59175290Y-97067104D01*
X59664933Y-97164500D01*
X59715067Y-97164500D01*
X60204710Y-97067104D01*
X60619810Y-96789743D01*
X60897171Y-96374643D01*
X60994567Y-95885000D01*
X60897171Y-95395357D01*
X60619810Y-94980257D01*
X60240179Y-94726595D01*
X68016402Y-94726595D01*
X68102009Y-94933780D01*
X68260386Y-95092434D01*
X68467421Y-95178402D01*
X68691595Y-95178598D01*
X68898780Y-95092991D01*
X68988428Y-95003500D01*
X73886607Y-95003500D01*
X73975386Y-95092434D01*
X74182421Y-95178402D01*
X74406595Y-95178598D01*
X74613780Y-95092991D01*
X74772434Y-94934614D01*
X74858402Y-94727579D01*
X74858598Y-94503405D01*
X74772991Y-94296220D01*
X74614614Y-94137566D01*
X74407579Y-94051598D01*
X74183405Y-94051402D01*
X73976220Y-94137009D01*
X73886572Y-94226500D01*
X68988393Y-94226500D01*
X68899614Y-94137566D01*
X68692579Y-94051598D01*
X68468405Y-94051402D01*
X68261220Y-94137009D01*
X68102566Y-94295386D01*
X68016598Y-94502421D01*
X68016402Y-94726595D01*
X60240179Y-94726595D01*
X60204710Y-94702896D01*
X59836538Y-94629662D01*
X60706000Y-94629662D01*
X60803647Y-94611288D01*
X60893330Y-94553579D01*
X60953495Y-94465525D01*
X60974662Y-94361000D01*
X60974662Y-92329000D01*
X60956288Y-92231353D01*
X60898579Y-92141670D01*
X60810525Y-92081505D01*
X60706000Y-92060338D01*
X58674000Y-92060338D01*
X58576353Y-92078712D01*
X58486670Y-92136421D01*
X58426505Y-92224475D01*
X58405338Y-92329000D01*
X58405338Y-94361000D01*
X58423712Y-94458647D01*
X58481421Y-94548330D01*
X58569475Y-94608495D01*
X58674000Y-94629662D01*
X59543462Y-94629662D01*
X59175290Y-94702896D01*
X58760190Y-94980257D01*
X58482829Y-95395357D01*
X58385433Y-95885000D01*
X55265500Y-95885000D01*
X55265500Y-90281595D01*
X71191402Y-90281595D01*
X71277009Y-90488780D01*
X71435386Y-90647434D01*
X71642421Y-90733402D01*
X71866595Y-90733598D01*
X72073780Y-90647991D01*
X72163428Y-90558500D01*
X73886607Y-90558500D01*
X73975386Y-90647434D01*
X74182421Y-90733402D01*
X74406595Y-90733598D01*
X74613780Y-90647991D01*
X74772434Y-90489614D01*
X74858402Y-90282579D01*
X74858598Y-90058405D01*
X74772991Y-89851220D01*
X74614614Y-89692566D01*
X74407579Y-89606598D01*
X74183405Y-89606402D01*
X73976220Y-89692009D01*
X73886572Y-89781500D01*
X72163393Y-89781500D01*
X72074614Y-89692566D01*
X71867579Y-89606598D01*
X71643405Y-89606402D01*
X71436220Y-89692009D01*
X71277566Y-89850386D01*
X71191598Y-90057421D01*
X71191402Y-90281595D01*
X55265500Y-90281595D01*
X55265500Y-86471595D01*
X80081402Y-86471595D01*
X80167009Y-86678780D01*
X80256500Y-86768428D01*
X80256500Y-88491607D01*
X80167566Y-88580386D01*
X80081598Y-88787421D01*
X80081402Y-89011595D01*
X80167009Y-89218780D01*
X80325386Y-89377434D01*
X80532421Y-89463402D01*
X80756595Y-89463598D01*
X80963780Y-89377991D01*
X81122434Y-89219614D01*
X81208402Y-89012579D01*
X81208598Y-88788405D01*
X81122991Y-88581220D01*
X81033500Y-88491572D01*
X81033500Y-86768393D01*
X81122434Y-86679614D01*
X81208402Y-86472579D01*
X81208598Y-86248405D01*
X81122991Y-86041220D01*
X80964614Y-85882566D01*
X80757579Y-85796598D01*
X80533405Y-85796402D01*
X80326220Y-85882009D01*
X80167566Y-86040386D01*
X80081598Y-86247421D01*
X80081402Y-86471595D01*
X55265500Y-86471595D01*
X55265500Y-85090000D01*
X58385433Y-85090000D01*
X58471228Y-85521322D01*
X58715553Y-85886980D01*
X59081211Y-86131305D01*
X59512533Y-86217100D01*
X59867467Y-86217100D01*
X60298789Y-86131305D01*
X60664447Y-85886980D01*
X60908772Y-85521322D01*
X60994567Y-85090000D01*
X60908772Y-84658678D01*
X60664447Y-84293020D01*
X60298789Y-84048695D01*
X59867467Y-83962900D01*
X59512533Y-83962900D01*
X59081211Y-84048695D01*
X58715553Y-84293020D01*
X58471228Y-84658678D01*
X58385433Y-85090000D01*
X55265500Y-85090000D01*
X55265500Y-82550000D01*
X58385433Y-82550000D01*
X58471228Y-82981322D01*
X58715553Y-83346980D01*
X59081211Y-83591305D01*
X59512533Y-83677100D01*
X59867467Y-83677100D01*
X60298789Y-83591305D01*
X60664447Y-83346980D01*
X60908772Y-82981322D01*
X60994567Y-82550000D01*
X60908772Y-82118678D01*
X60664447Y-81753020D01*
X60298789Y-81508695D01*
X59867467Y-81422900D01*
X59512533Y-81422900D01*
X59081211Y-81508695D01*
X58715553Y-81753020D01*
X58471228Y-82118678D01*
X58385433Y-82550000D01*
X55265500Y-82550000D01*
X55265500Y-80010000D01*
X58385433Y-80010000D01*
X58471228Y-80441322D01*
X58715553Y-80806980D01*
X59081211Y-81051305D01*
X59512533Y-81137100D01*
X59867467Y-81137100D01*
X60298789Y-81051305D01*
X60664447Y-80806980D01*
X60908772Y-80441322D01*
X60994567Y-80010000D01*
X60908772Y-79578678D01*
X60664447Y-79213020D01*
X60298789Y-78968695D01*
X59867467Y-78882900D01*
X59512533Y-78882900D01*
X59081211Y-78968695D01*
X58715553Y-79213020D01*
X58471228Y-79578678D01*
X58385433Y-80010000D01*
X55265500Y-80010000D01*
X55265500Y-78629243D01*
X94756195Y-78629243D01*
X95024106Y-79277637D01*
X95519753Y-79774151D01*
X96167679Y-80043193D01*
X96869243Y-80043805D01*
X97517637Y-79775894D01*
X98014151Y-79280247D01*
X98283193Y-78632321D01*
X98283805Y-77930757D01*
X98015894Y-77282363D01*
X97520247Y-76785849D01*
X96872321Y-76516807D01*
X96170757Y-76516195D01*
X95522363Y-76784106D01*
X95025849Y-77279753D01*
X94756807Y-77927679D01*
X94756195Y-78629243D01*
X55265500Y-78629243D01*
X55265500Y-77470000D01*
X58385433Y-77470000D01*
X58471228Y-77901322D01*
X58715553Y-78266980D01*
X59081211Y-78511305D01*
X59512533Y-78597100D01*
X59867467Y-78597100D01*
X60298789Y-78511305D01*
X60664447Y-78266980D01*
X60908772Y-77901322D01*
X60994567Y-77470000D01*
X60908772Y-77038678D01*
X60664447Y-76673020D01*
X60298789Y-76428695D01*
X59867467Y-76342900D01*
X59512533Y-76342900D01*
X59081211Y-76428695D01*
X58715553Y-76673020D01*
X58471228Y-77038678D01*
X58385433Y-77470000D01*
X55265500Y-77470000D01*
X55265500Y-74930000D01*
X58385433Y-74930000D01*
X58471228Y-75361322D01*
X58715553Y-75726980D01*
X59081211Y-75971305D01*
X59512533Y-76057100D01*
X59867467Y-76057100D01*
X60298789Y-75971305D01*
X60664447Y-75726980D01*
X60908772Y-75361322D01*
X60994567Y-74930000D01*
X60908772Y-74498678D01*
X60664447Y-74133020D01*
X60298789Y-73888695D01*
X59867467Y-73802900D01*
X59512533Y-73802900D01*
X59081211Y-73888695D01*
X58715553Y-74133020D01*
X58471228Y-74498678D01*
X58385433Y-74930000D01*
X55265500Y-74930000D01*
X55265500Y-71526400D01*
X58405338Y-71526400D01*
X58405338Y-73253600D01*
X58423712Y-73351247D01*
X58481421Y-73440930D01*
X58569475Y-73501095D01*
X58674000Y-73522262D01*
X60706000Y-73522262D01*
X60803647Y-73503888D01*
X60893330Y-73446179D01*
X60953495Y-73358125D01*
X60974662Y-73253600D01*
X60974662Y-71526400D01*
X60956288Y-71428753D01*
X60898579Y-71339070D01*
X60810525Y-71278905D01*
X60706000Y-71257738D01*
X58674000Y-71257738D01*
X58576353Y-71276112D01*
X58486670Y-71333821D01*
X58426505Y-71421875D01*
X58405338Y-71526400D01*
X55265500Y-71526400D01*
X55265500Y-67126865D01*
X69667543Y-67126865D01*
X69870520Y-67448859D01*
X70747782Y-67771435D01*
X71681711Y-67733742D01*
X72369480Y-67448859D01*
X72572457Y-67126865D01*
X71120000Y-65674408D01*
X69667543Y-67126865D01*
X55265500Y-67126865D01*
X55265500Y-65032782D01*
X68753565Y-65032782D01*
X68791258Y-65966711D01*
X69076141Y-66654480D01*
X69398135Y-66857457D01*
X70850592Y-65405000D01*
X71389408Y-65405000D01*
X72841865Y-66857457D01*
X73163859Y-66654480D01*
X73486435Y-65777218D01*
X73464250Y-65227533D01*
X73802900Y-65227533D01*
X73802900Y-65582467D01*
X73888695Y-66013789D01*
X74133020Y-66379447D01*
X74498678Y-66623772D01*
X74930000Y-66709567D01*
X75361322Y-66623772D01*
X75726980Y-66379447D01*
X75971305Y-66013789D01*
X76011980Y-65809298D01*
X76698147Y-65809298D01*
X77008292Y-66559906D01*
X77582073Y-67134690D01*
X78332139Y-67446145D01*
X79144298Y-67446853D01*
X79894906Y-67136708D01*
X80469690Y-66562927D01*
X80781145Y-65812861D01*
X80781853Y-65000702D01*
X80471708Y-64250094D01*
X79897927Y-63675310D01*
X79147861Y-63363855D01*
X78335702Y-63363147D01*
X77585094Y-63673292D01*
X77010310Y-64247073D01*
X76698855Y-64997139D01*
X76698147Y-65809298D01*
X76011980Y-65809298D01*
X76057100Y-65582467D01*
X76057100Y-65227533D01*
X75971305Y-64796211D01*
X75726980Y-64430553D01*
X75361322Y-64186228D01*
X74930000Y-64100433D01*
X74498678Y-64186228D01*
X74133020Y-64430553D01*
X73888695Y-64796211D01*
X73802900Y-65227533D01*
X73464250Y-65227533D01*
X73448742Y-64843289D01*
X73163859Y-64155520D01*
X72841865Y-63952543D01*
X71389408Y-65405000D01*
X70850592Y-65405000D01*
X69398135Y-63952543D01*
X69076141Y-64155520D01*
X68753565Y-65032782D01*
X55265500Y-65032782D01*
X55265500Y-63683135D01*
X69667543Y-63683135D01*
X71120000Y-65135592D01*
X72572457Y-63683135D01*
X72369480Y-63361141D01*
X71492218Y-63038565D01*
X70558289Y-63076258D01*
X69870520Y-63361141D01*
X69667543Y-63683135D01*
X55265500Y-63683135D01*
X55265500Y-58026152D01*
X55478457Y-56955542D01*
X56070095Y-56070095D01*
X56955542Y-55478457D01*
X58026148Y-55265500D01*
X101973848Y-55265500D01*
X103044458Y-55478457D01*
X103044458Y-55478457D01*
G37*
X103044458Y-55478457D02*
X103929905Y-56070095D01*
X104521543Y-56955542D01*
X104734500Y-58026148D01*
X104734500Y-101973852D01*
X104521543Y-103044458D01*
X103929905Y-103929905D01*
X103044458Y-104521543D01*
X101973848Y-104734500D01*
X58026148Y-104734500D01*
X56955542Y-104521543D01*
X56070095Y-103929905D01*
X55478457Y-103044458D01*
X55265500Y-101973848D01*
X55265500Y-100330000D01*
X87595433Y-100330000D01*
X87692829Y-100819643D01*
X87970190Y-101234743D01*
X88385290Y-101512104D01*
X88874933Y-101609500D01*
X88925067Y-101609500D01*
X89414710Y-101512104D01*
X89829810Y-101234743D01*
X90107171Y-100819643D01*
X90204567Y-100330000D01*
X90107171Y-99840357D01*
X89829810Y-99425257D01*
X89414710Y-99147896D01*
X89046538Y-99074662D01*
X89916000Y-99074662D01*
X90013647Y-99056288D01*
X90103330Y-98998579D01*
X90163495Y-98910525D01*
X90184662Y-98806000D01*
X90184662Y-96774000D01*
X90166288Y-96676353D01*
X90108579Y-96586670D01*
X90020525Y-96526505D01*
X89916000Y-96505338D01*
X87884000Y-96505338D01*
X87786353Y-96523712D01*
X87696670Y-96581421D01*
X87636505Y-96669475D01*
X87615338Y-96774000D01*
X87615338Y-98806000D01*
X87633712Y-98903647D01*
X87691421Y-98993330D01*
X87779475Y-99053495D01*
X87884000Y-99074662D01*
X88753462Y-99074662D01*
X88385290Y-99147896D01*
X87970190Y-99425257D01*
X87692829Y-99840357D01*
X87595433Y-100330000D01*
X55265500Y-100330000D01*
X55265500Y-95885000D01*
X58385433Y-95885000D01*
X58482829Y-96374643D01*
X58760190Y-96789743D01*
X59175290Y-97067104D01*
X59664933Y-97164500D01*
X59715067Y-97164500D01*
X60204710Y-97067104D01*
X60619810Y-96789743D01*
X60897171Y-96374643D01*
X60994567Y-95885000D01*
X60897171Y-95395357D01*
X60619810Y-94980257D01*
X60240179Y-94726595D01*
X68016402Y-94726595D01*
X68102009Y-94933780D01*
X68260386Y-95092434D01*
X68467421Y-95178402D01*
X68691595Y-95178598D01*
X68898780Y-95092991D01*
X68988428Y-95003500D01*
X73886607Y-95003500D01*
X73975386Y-95092434D01*
X74182421Y-95178402D01*
X74406595Y-95178598D01*
X74613780Y-95092991D01*
X74772434Y-94934614D01*
X74858402Y-94727579D01*
X74858598Y-94503405D01*
X74772991Y-94296220D01*
X74614614Y-94137566D01*
X74407579Y-94051598D01*
X74183405Y-94051402D01*
X73976220Y-94137009D01*
X73886572Y-94226500D01*
X68988393Y-94226500D01*
X68899614Y-94137566D01*
X68692579Y-94051598D01*
X68468405Y-94051402D01*
X68261220Y-94137009D01*
X68102566Y-94295386D01*
X68016598Y-94502421D01*
X68016402Y-94726595D01*
X60240179Y-94726595D01*
X60204710Y-94702896D01*
X59836538Y-94629662D01*
X60706000Y-94629662D01*
X60803647Y-94611288D01*
X60893330Y-94553579D01*
X60953495Y-94465525D01*
X60974662Y-94361000D01*
X60974662Y-92329000D01*
X60956288Y-92231353D01*
X60898579Y-92141670D01*
X60810525Y-92081505D01*
X60706000Y-92060338D01*
X58674000Y-92060338D01*
X58576353Y-92078712D01*
X58486670Y-92136421D01*
X58426505Y-92224475D01*
X58405338Y-92329000D01*
X58405338Y-94361000D01*
X58423712Y-94458647D01*
X58481421Y-94548330D01*
X58569475Y-94608495D01*
X58674000Y-94629662D01*
X59543462Y-94629662D01*
X59175290Y-94702896D01*
X58760190Y-94980257D01*
X58482829Y-95395357D01*
X58385433Y-95885000D01*
X55265500Y-95885000D01*
X55265500Y-90281595D01*
X71191402Y-90281595D01*
X71277009Y-90488780D01*
X71435386Y-90647434D01*
X71642421Y-90733402D01*
X71866595Y-90733598D01*
X72073780Y-90647991D01*
X72163428Y-90558500D01*
X73886607Y-90558500D01*
X73975386Y-90647434D01*
X74182421Y-90733402D01*
X74406595Y-90733598D01*
X74613780Y-90647991D01*
X74772434Y-90489614D01*
X74858402Y-90282579D01*
X74858598Y-90058405D01*
X74772991Y-89851220D01*
X74614614Y-89692566D01*
X74407579Y-89606598D01*
X74183405Y-89606402D01*
X73976220Y-89692009D01*
X73886572Y-89781500D01*
X72163393Y-89781500D01*
X72074614Y-89692566D01*
X71867579Y-89606598D01*
X71643405Y-89606402D01*
X71436220Y-89692009D01*
X71277566Y-89850386D01*
X71191598Y-90057421D01*
X71191402Y-90281595D01*
X55265500Y-90281595D01*
X55265500Y-86471595D01*
X80081402Y-86471595D01*
X80167009Y-86678780D01*
X80256500Y-86768428D01*
X80256500Y-88491607D01*
X80167566Y-88580386D01*
X80081598Y-88787421D01*
X80081402Y-89011595D01*
X80167009Y-89218780D01*
X80325386Y-89377434D01*
X80532421Y-89463402D01*
X80756595Y-89463598D01*
X80963780Y-89377991D01*
X81122434Y-89219614D01*
X81208402Y-89012579D01*
X81208598Y-88788405D01*
X81122991Y-88581220D01*
X81033500Y-88491572D01*
X81033500Y-86768393D01*
X81122434Y-86679614D01*
X81208402Y-86472579D01*
X81208598Y-86248405D01*
X81122991Y-86041220D01*
X80964614Y-85882566D01*
X80757579Y-85796598D01*
X80533405Y-85796402D01*
X80326220Y-85882009D01*
X80167566Y-86040386D01*
X80081598Y-86247421D01*
X80081402Y-86471595D01*
X55265500Y-86471595D01*
X55265500Y-85090000D01*
X58385433Y-85090000D01*
X58471228Y-85521322D01*
X58715553Y-85886980D01*
X59081211Y-86131305D01*
X59512533Y-86217100D01*
X59867467Y-86217100D01*
X60298789Y-86131305D01*
X60664447Y-85886980D01*
X60908772Y-85521322D01*
X60994567Y-85090000D01*
X60908772Y-84658678D01*
X60664447Y-84293020D01*
X60298789Y-84048695D01*
X59867467Y-83962900D01*
X59512533Y-83962900D01*
X59081211Y-84048695D01*
X58715553Y-84293020D01*
X58471228Y-84658678D01*
X58385433Y-85090000D01*
X55265500Y-85090000D01*
X55265500Y-82550000D01*
X58385433Y-82550000D01*
X58471228Y-82981322D01*
X58715553Y-83346980D01*
X59081211Y-83591305D01*
X59512533Y-83677100D01*
X59867467Y-83677100D01*
X60298789Y-83591305D01*
X60664447Y-83346980D01*
X60908772Y-82981322D01*
X60994567Y-82550000D01*
X60908772Y-82118678D01*
X60664447Y-81753020D01*
X60298789Y-81508695D01*
X59867467Y-81422900D01*
X59512533Y-81422900D01*
X59081211Y-81508695D01*
X58715553Y-81753020D01*
X58471228Y-82118678D01*
X58385433Y-82550000D01*
X55265500Y-82550000D01*
X55265500Y-80010000D01*
X58385433Y-80010000D01*
X58471228Y-80441322D01*
X58715553Y-80806980D01*
X59081211Y-81051305D01*
X59512533Y-81137100D01*
X59867467Y-81137100D01*
X60298789Y-81051305D01*
X60664447Y-80806980D01*
X60908772Y-80441322D01*
X60994567Y-80010000D01*
X60908772Y-79578678D01*
X60664447Y-79213020D01*
X60298789Y-78968695D01*
X59867467Y-78882900D01*
X59512533Y-78882900D01*
X59081211Y-78968695D01*
X58715553Y-79213020D01*
X58471228Y-79578678D01*
X58385433Y-80010000D01*
X55265500Y-80010000D01*
X55265500Y-78629243D01*
X94756195Y-78629243D01*
X95024106Y-79277637D01*
X95519753Y-79774151D01*
X96167679Y-80043193D01*
X96869243Y-80043805D01*
X97517637Y-79775894D01*
X98014151Y-79280247D01*
X98283193Y-78632321D01*
X98283805Y-77930757D01*
X98015894Y-77282363D01*
X97520247Y-76785849D01*
X96872321Y-76516807D01*
X96170757Y-76516195D01*
X95522363Y-76784106D01*
X95025849Y-77279753D01*
X94756807Y-77927679D01*
X94756195Y-78629243D01*
X55265500Y-78629243D01*
X55265500Y-77470000D01*
X58385433Y-77470000D01*
X58471228Y-77901322D01*
X58715553Y-78266980D01*
X59081211Y-78511305D01*
X59512533Y-78597100D01*
X59867467Y-78597100D01*
X60298789Y-78511305D01*
X60664447Y-78266980D01*
X60908772Y-77901322D01*
X60994567Y-77470000D01*
X60908772Y-77038678D01*
X60664447Y-76673020D01*
X60298789Y-76428695D01*
X59867467Y-76342900D01*
X59512533Y-76342900D01*
X59081211Y-76428695D01*
X58715553Y-76673020D01*
X58471228Y-77038678D01*
X58385433Y-77470000D01*
X55265500Y-77470000D01*
X55265500Y-74930000D01*
X58385433Y-74930000D01*
X58471228Y-75361322D01*
X58715553Y-75726980D01*
X59081211Y-75971305D01*
X59512533Y-76057100D01*
X59867467Y-76057100D01*
X60298789Y-75971305D01*
X60664447Y-75726980D01*
X60908772Y-75361322D01*
X60994567Y-74930000D01*
X60908772Y-74498678D01*
X60664447Y-74133020D01*
X60298789Y-73888695D01*
X59867467Y-73802900D01*
X59512533Y-73802900D01*
X59081211Y-73888695D01*
X58715553Y-74133020D01*
X58471228Y-74498678D01*
X58385433Y-74930000D01*
X55265500Y-74930000D01*
X55265500Y-71526400D01*
X58405338Y-71526400D01*
X58405338Y-73253600D01*
X58423712Y-73351247D01*
X58481421Y-73440930D01*
X58569475Y-73501095D01*
X58674000Y-73522262D01*
X60706000Y-73522262D01*
X60803647Y-73503888D01*
X60893330Y-73446179D01*
X60953495Y-73358125D01*
X60974662Y-73253600D01*
X60974662Y-71526400D01*
X60956288Y-71428753D01*
X60898579Y-71339070D01*
X60810525Y-71278905D01*
X60706000Y-71257738D01*
X58674000Y-71257738D01*
X58576353Y-71276112D01*
X58486670Y-71333821D01*
X58426505Y-71421875D01*
X58405338Y-71526400D01*
X55265500Y-71526400D01*
X55265500Y-67126865D01*
X69667543Y-67126865D01*
X69870520Y-67448859D01*
X70747782Y-67771435D01*
X71681711Y-67733742D01*
X72369480Y-67448859D01*
X72572457Y-67126865D01*
X71120000Y-65674408D01*
X69667543Y-67126865D01*
X55265500Y-67126865D01*
X55265500Y-65032782D01*
X68753565Y-65032782D01*
X68791258Y-65966711D01*
X69076141Y-66654480D01*
X69398135Y-66857457D01*
X70850592Y-65405000D01*
X71389408Y-65405000D01*
X72841865Y-66857457D01*
X73163859Y-66654480D01*
X73486435Y-65777218D01*
X73464250Y-65227533D01*
X73802900Y-65227533D01*
X73802900Y-65582467D01*
X73888695Y-66013789D01*
X74133020Y-66379447D01*
X74498678Y-66623772D01*
X74930000Y-66709567D01*
X75361322Y-66623772D01*
X75726980Y-66379447D01*
X75971305Y-66013789D01*
X76011980Y-65809298D01*
X76698147Y-65809298D01*
X77008292Y-66559906D01*
X77582073Y-67134690D01*
X78332139Y-67446145D01*
X79144298Y-67446853D01*
X79894906Y-67136708D01*
X80469690Y-66562927D01*
X80781145Y-65812861D01*
X80781853Y-65000702D01*
X80471708Y-64250094D01*
X79897927Y-63675310D01*
X79147861Y-63363855D01*
X78335702Y-63363147D01*
X77585094Y-63673292D01*
X77010310Y-64247073D01*
X76698855Y-64997139D01*
X76698147Y-65809298D01*
X76011980Y-65809298D01*
X76057100Y-65582467D01*
X76057100Y-65227533D01*
X75971305Y-64796211D01*
X75726980Y-64430553D01*
X75361322Y-64186228D01*
X74930000Y-64100433D01*
X74498678Y-64186228D01*
X74133020Y-64430553D01*
X73888695Y-64796211D01*
X73802900Y-65227533D01*
X73464250Y-65227533D01*
X73448742Y-64843289D01*
X73163859Y-64155520D01*
X72841865Y-63952543D01*
X71389408Y-65405000D01*
X70850592Y-65405000D01*
X69398135Y-63952543D01*
X69076141Y-64155520D01*
X68753565Y-65032782D01*
X55265500Y-65032782D01*
X55265500Y-63683135D01*
X69667543Y-63683135D01*
X71120000Y-65135592D01*
X72572457Y-63683135D01*
X72369480Y-63361141D01*
X71492218Y-63038565D01*
X70558289Y-63076258D01*
X69870520Y-63361141D01*
X69667543Y-63683135D01*
X55265500Y-63683135D01*
X55265500Y-58026152D01*
X55478457Y-56955542D01*
X56070095Y-56070095D01*
X56955542Y-55478457D01*
X58026148Y-55265500D01*
X101973848Y-55265500D01*
X103044458Y-55478457D01*
M02*
