M48
;DRILL file {KiCad 4.0.5+dfsg1-4} date Tue May 29 16:35:48 2018
;FORMAT={2:4/ absolute / inch / suppress leading zeros}
FMAT,2
INCH,TZ
T1C0.016
T2C0.020
T3C0.040
T4C0.080
T5C0.120
T6C0.083
%
G90
G05
M72
T1
X27000Y-40000
X28250Y-34000
X29000Y-35000
X29250Y-36000
X29750Y-31250
X30250Y-34500
X30750Y-38500
X31000Y-36500
X31250Y-35000
X36500Y-28000
X36500Y-28500
X36500Y-29000
X36500Y-29500
X36500Y-30000
X36750Y-27750
X36750Y-28250
X36750Y-28750
X36750Y-29250
X36750Y-29750
X37000Y-27500
X37000Y-28000
X37000Y-28500
X37000Y-29000
X37000Y-29500
T2
X29258Y-40500
X29750Y-40500
X30258Y-40500
X30750Y-40500
T3
X23500Y-25500
X23500Y-26500
X23500Y-28500
X23500Y-29500
X23500Y-30500
X23500Y-31500
X23500Y-32500
X23500Y-33500
X23500Y-35500
X23500Y-36500
X29500Y-25750
X35000Y-38500
X35000Y-39500
T4
X28000Y-25750
X31000Y-25750
T5
X23228Y-23228
X23228Y-39764
X39764Y-23228
X39764Y-39764
T6
X38000Y-30819
T0
M30
