G04 #@! TF.FileFunction,Legend,Top*
%FSLAX46Y46*%
G04 Gerber Fmt 4.6, Leading zero omitted, Abs format (unit mm)*
G04 Created by KiCad (PCBNEW 4.0.7) date Monday, May 07, 2018 'AMt' 09:05:24 AM*
%MOMM*%
%LPD*%
G01*
G04 APERTURE LIST*
%ADD10C,0.100000*%
%ADD11C,0.317500*%
%ADD12C,0.381000*%
%ADD13C,0.150000*%
%ADD14C,0.127000*%
%ADD15C,0.050800*%
%ADD16C,0.158750*%
%ADD17C,0.152400*%
%ADD18C,0.190500*%
%ADD19C,0.254000*%
G04 APERTURE END LIST*
D10*
D11*
X96005953Y-93919524D02*
X96005953Y-92649524D01*
X96731667Y-93919524D02*
X96187382Y-93193810D01*
X96731667Y-92649524D02*
X96005953Y-93375238D01*
X97275953Y-93919524D02*
X97275953Y-93072857D01*
X97275953Y-92649524D02*
X97215477Y-92710000D01*
X97275953Y-92770476D01*
X97336429Y-92710000D01*
X97275953Y-92649524D01*
X97275953Y-92770476D01*
X98062144Y-93919524D02*
X97941191Y-93859048D01*
X97880715Y-93738095D01*
X97880715Y-92649524D01*
X98727382Y-93919524D02*
X98606429Y-93859048D01*
X98545953Y-93798571D01*
X98485477Y-93677619D01*
X98485477Y-93314762D01*
X98545953Y-93193810D01*
X98606429Y-93133333D01*
X98727382Y-93072857D01*
X98908810Y-93072857D01*
X99029762Y-93133333D01*
X99090239Y-93193810D01*
X99150715Y-93314762D01*
X99150715Y-93677619D01*
X99090239Y-93798571D01*
X99029762Y-93859048D01*
X98908810Y-93919524D01*
X98727382Y-93919524D01*
X101267382Y-93919524D02*
X100662620Y-93919524D01*
X100662620Y-92649524D01*
X102295477Y-93919524D02*
X101690715Y-93919524D01*
X101690715Y-92649524D01*
X103444524Y-93798571D02*
X103384048Y-93859048D01*
X103202619Y-93919524D01*
X103081667Y-93919524D01*
X102900239Y-93859048D01*
X102779286Y-93738095D01*
X102718810Y-93617143D01*
X102658334Y-93375238D01*
X102658334Y-93193810D01*
X102718810Y-92951905D01*
X102779286Y-92830952D01*
X102900239Y-92710000D01*
X103081667Y-92649524D01*
X103202619Y-92649524D01*
X103384048Y-92710000D01*
X103444524Y-92770476D01*
D12*
X88337571Y-91494429D02*
X88337571Y-89970429D01*
X88337571Y-90696143D02*
X89208428Y-90696143D01*
X89208428Y-91494429D02*
X89208428Y-89970429D01*
X89934142Y-89970429D02*
X89934142Y-91204143D01*
X90006714Y-91349286D01*
X90079285Y-91421857D01*
X90224428Y-91494429D01*
X90514714Y-91494429D01*
X90659856Y-91421857D01*
X90732428Y-91349286D01*
X90804999Y-91204143D01*
X90804999Y-89970429D01*
X91530713Y-90696143D02*
X92038713Y-90696143D01*
X92256427Y-91494429D02*
X91530713Y-91494429D01*
X91530713Y-89970429D01*
X92256427Y-89970429D01*
X93199856Y-90768714D02*
X93199856Y-91494429D01*
X92691856Y-89970429D02*
X93199856Y-90768714D01*
X93707856Y-89970429D01*
X96247856Y-91494429D02*
X95739856Y-90768714D01*
X95376999Y-91494429D02*
X95376999Y-89970429D01*
X95957571Y-89970429D01*
X96102713Y-90043000D01*
X96175285Y-90115571D01*
X96247856Y-90260714D01*
X96247856Y-90478429D01*
X96175285Y-90623571D01*
X96102713Y-90696143D01*
X95957571Y-90768714D01*
X95376999Y-90768714D01*
X97481571Y-91421857D02*
X97336428Y-91494429D01*
X97046142Y-91494429D01*
X96900999Y-91421857D01*
X96828428Y-91276714D01*
X96828428Y-90696143D01*
X96900999Y-90551000D01*
X97046142Y-90478429D01*
X97336428Y-90478429D01*
X97481571Y-90551000D01*
X97554142Y-90696143D01*
X97554142Y-90841286D01*
X96828428Y-90986429D01*
X98062142Y-90478429D02*
X98424999Y-91494429D01*
X98787857Y-90478429D01*
X101327857Y-91494429D02*
X100457000Y-91494429D01*
X100892428Y-91494429D02*
X100892428Y-89970429D01*
X100747285Y-90188143D01*
X100602143Y-90333286D01*
X100457000Y-90405857D01*
X101981000Y-91349286D02*
X102053572Y-91421857D01*
X101981000Y-91494429D01*
X101908429Y-91421857D01*
X101981000Y-91349286D01*
X101981000Y-91494429D01*
X103505000Y-91494429D02*
X102634143Y-91494429D01*
X103069571Y-91494429D02*
X103069571Y-89970429D01*
X102924428Y-90188143D01*
X102779286Y-90333286D01*
X102634143Y-90405857D01*
D13*
X60960000Y-66040000D02*
X60960000Y-68580000D01*
X61240000Y-63220000D02*
X61240000Y-64770000D01*
X60960000Y-66040000D02*
X58420000Y-66040000D01*
X58140000Y-64770000D02*
X58140000Y-63220000D01*
X58140000Y-63220000D02*
X61240000Y-63220000D01*
X58420000Y-66040000D02*
X58420000Y-68580000D01*
X58420000Y-68580000D02*
X60960000Y-68580000D01*
X90170000Y-99060000D02*
X90170000Y-101600000D01*
X90450000Y-96240000D02*
X90450000Y-97790000D01*
X90170000Y-99060000D02*
X87630000Y-99060000D01*
X87350000Y-97790000D02*
X87350000Y-96240000D01*
X87350000Y-96240000D02*
X90450000Y-96240000D01*
X87630000Y-99060000D02*
X87630000Y-101600000D01*
X87630000Y-101600000D02*
X90170000Y-101600000D01*
X60960000Y-91440000D02*
X60960000Y-93980000D01*
X61240000Y-88620000D02*
X61240000Y-90170000D01*
X60960000Y-91440000D02*
X58420000Y-91440000D01*
X58140000Y-90170000D02*
X58140000Y-88620000D01*
X58140000Y-88620000D02*
X61240000Y-88620000D01*
X58420000Y-91440000D02*
X58420000Y-93980000D01*
X58420000Y-93980000D02*
X60960000Y-93980000D01*
X60960000Y-73660000D02*
X60960000Y-86360000D01*
X60960000Y-86360000D02*
X58420000Y-86360000D01*
X58420000Y-86360000D02*
X58420000Y-73660000D01*
X61240000Y-70840000D02*
X61240000Y-72390000D01*
X60960000Y-73660000D02*
X58420000Y-73660000D01*
X58140000Y-72390000D02*
X58140000Y-70840000D01*
X58140000Y-70840000D02*
X61240000Y-70840000D01*
D14*
X73652340Y-78248320D02*
X76847660Y-78248320D01*
X76847660Y-78248320D02*
X76847660Y-74651680D01*
X76847660Y-74651680D02*
X73652340Y-74651680D01*
X73652340Y-74651680D02*
X73652340Y-78248320D01*
X73050360Y-78047660D02*
X72999560Y-78042580D01*
X72999560Y-78042580D02*
X72951300Y-78022260D01*
X72951300Y-78022260D02*
X72910660Y-77989240D01*
X72910660Y-77989240D02*
X72877640Y-77948600D01*
X72877640Y-77948600D02*
X72857320Y-77900340D01*
X72857320Y-77900340D02*
X72852240Y-77849540D01*
X72852240Y-77849540D02*
X72857320Y-77796200D01*
X72857320Y-77796200D02*
X72877640Y-77747940D01*
X72877640Y-77747940D02*
X72910660Y-77707300D01*
X72910660Y-77707300D02*
X72951300Y-77674280D01*
X72951300Y-77674280D02*
X72999560Y-77656500D01*
X72999560Y-77656500D02*
X73050360Y-77648880D01*
X73050360Y-77648880D02*
X73103700Y-77656500D01*
X73103700Y-77656500D02*
X73151960Y-77674280D01*
X73151960Y-77674280D02*
X73192600Y-77707300D01*
X73192600Y-77707300D02*
X73225620Y-77747940D01*
X73225620Y-77747940D02*
X73243400Y-77796200D01*
X73243400Y-77796200D02*
X73251020Y-77849540D01*
X73251020Y-77849540D02*
X73243400Y-77900340D01*
X73243400Y-77900340D02*
X73225620Y-77948600D01*
X73225620Y-77948600D02*
X73192600Y-77989240D01*
X73192600Y-77989240D02*
X73151960Y-78022260D01*
X73151960Y-78022260D02*
X73103700Y-78042580D01*
X73103700Y-78042580D02*
X73050360Y-78047660D01*
D13*
X70620000Y-76795000D02*
X71620000Y-76795000D01*
X71620000Y-78145000D02*
X70620000Y-78145000D01*
X79875000Y-78145000D02*
X78875000Y-78145000D01*
X78875000Y-76795000D02*
X79875000Y-76795000D01*
X78875000Y-74255000D02*
X79875000Y-74255000D01*
X79875000Y-75605000D02*
X78875000Y-75605000D01*
X71620000Y-75605000D02*
X70620000Y-75605000D01*
X70620000Y-74255000D02*
X71620000Y-74255000D01*
D15*
X61921000Y-101000000D02*
G75*
G03X61921000Y-101000000I-2921000J0D01*
G01*
X103921000Y-59000000D02*
G75*
G03X103921000Y-59000000I-2921000J0D01*
G01*
X61921000Y-59000000D02*
G75*
G03X61921000Y-59000000I-2921000J0D01*
G01*
X103921000Y-101000000D02*
G75*
G03X103921000Y-101000000I-2921000J0D01*
G01*
D13*
X101020000Y-81280000D02*
X101020000Y-67280000D01*
X101020000Y-67280000D02*
X92020000Y-67280000D01*
X92020000Y-67280000D02*
X92020000Y-81280000D01*
X96520000Y-81280000D02*
X101020000Y-81280000D01*
X96520000Y-81280000D02*
X92020000Y-81280000D01*
D14*
X95299460Y-60099820D02*
X95299460Y-62299460D01*
X95299460Y-62299460D02*
X89701300Y-62299460D01*
X89701300Y-62299460D02*
X88700540Y-61298700D01*
X88700540Y-61298700D02*
X88700540Y-60099820D01*
X95299460Y-57900180D02*
X95299460Y-55700540D01*
X95299460Y-55700540D02*
X89701300Y-55700540D01*
X89701300Y-55700540D02*
X88700540Y-56701300D01*
X88700540Y-56701300D02*
X88700540Y-57900180D01*
X90501400Y-60998980D02*
X89500640Y-60998980D01*
X90001020Y-60498600D02*
X90001020Y-61499360D01*
D13*
X84455000Y-71120000D02*
X84455000Y-73660000D01*
X83185000Y-72390000D02*
X85725000Y-72390000D01*
X84455000Y-99060000D02*
X84455000Y-101600000D01*
X83185000Y-100330000D02*
X85725000Y-100330000D01*
X62865000Y-100330000D02*
X65405000Y-100330000D01*
X64135000Y-101600000D02*
X64135000Y-99060000D01*
X64135000Y-60960000D02*
X64135000Y-63500000D01*
X65405000Y-62230000D02*
X62865000Y-62230000D01*
X80645000Y-54610000D02*
X85725000Y-54610000D01*
X67945000Y-54610000D02*
X62865000Y-54610000D01*
X67945000Y-52070000D02*
X67945000Y-58420000D01*
X67945000Y-58420000D02*
X80645000Y-58420000D01*
X80645000Y-58420000D02*
X80645000Y-52070000D01*
X80645000Y-52070000D02*
X67945000Y-52070000D01*
X85725000Y-54610000D02*
X85725000Y-105410000D01*
X85725000Y-105410000D02*
X62865000Y-105410000D01*
X62865000Y-105410000D02*
X62865000Y-54610000D01*
D16*
X77112024Y-104936429D02*
X77142262Y-104845714D01*
X77142262Y-104694524D01*
X77112024Y-104634048D01*
X77081786Y-104603810D01*
X77021310Y-104573571D01*
X76960833Y-104573571D01*
X76900357Y-104603810D01*
X76870119Y-104634048D01*
X76839881Y-104694524D01*
X76809643Y-104815476D01*
X76779405Y-104875952D01*
X76749167Y-104906191D01*
X76688690Y-104936429D01*
X76628214Y-104936429D01*
X76567738Y-104906191D01*
X76537500Y-104875952D01*
X76507262Y-104815476D01*
X76507262Y-104664286D01*
X76537500Y-104573571D01*
X77081786Y-103938571D02*
X77112024Y-103968809D01*
X77142262Y-104059524D01*
X77142262Y-104120000D01*
X77112024Y-104210714D01*
X77051548Y-104271190D01*
X76991071Y-104301429D01*
X76870119Y-104331667D01*
X76779405Y-104331667D01*
X76658452Y-104301429D01*
X76597976Y-104271190D01*
X76537500Y-104210714D01*
X76507262Y-104120000D01*
X76507262Y-104059524D01*
X76537500Y-103968809D01*
X76567738Y-103938571D01*
X77142262Y-103666429D02*
X76507262Y-103666429D01*
X77142262Y-103303571D02*
X76779405Y-103575714D01*
X76507262Y-103303571D02*
X76870119Y-103666429D01*
X78392262Y-104618929D02*
X77757262Y-104618929D01*
X77757262Y-104467738D01*
X77787500Y-104377024D01*
X77847976Y-104316548D01*
X77908452Y-104286309D01*
X78029405Y-104256071D01*
X78120119Y-104256071D01*
X78241071Y-104286309D01*
X78301548Y-104316548D01*
X78362024Y-104377024D01*
X78392262Y-104467738D01*
X78392262Y-104618929D01*
X77757262Y-103862976D02*
X77757262Y-103742024D01*
X77787500Y-103681548D01*
X77847976Y-103621071D01*
X77968929Y-103590833D01*
X78180595Y-103590833D01*
X78301548Y-103621071D01*
X78362024Y-103681548D01*
X78392262Y-103742024D01*
X78392262Y-103862976D01*
X78362024Y-103923452D01*
X78301548Y-103983929D01*
X78180595Y-104014167D01*
X77968929Y-104014167D01*
X77847976Y-103983929D01*
X77787500Y-103923452D01*
X77757262Y-103862976D01*
X74541786Y-104225833D02*
X74572024Y-104256071D01*
X74602262Y-104346786D01*
X74602262Y-104407262D01*
X74572024Y-104497976D01*
X74511548Y-104558452D01*
X74451071Y-104588691D01*
X74330119Y-104618929D01*
X74239405Y-104618929D01*
X74118452Y-104588691D01*
X74057976Y-104558452D01*
X73997500Y-104497976D01*
X73967262Y-104407262D01*
X73967262Y-104346786D01*
X73997500Y-104256071D01*
X74027738Y-104225833D01*
X74572024Y-103983929D02*
X74602262Y-103893214D01*
X74602262Y-103742024D01*
X74572024Y-103681548D01*
X74541786Y-103651310D01*
X74481310Y-103621071D01*
X74420833Y-103621071D01*
X74360357Y-103651310D01*
X74330119Y-103681548D01*
X74299881Y-103742024D01*
X74269643Y-103862976D01*
X74239405Y-103923452D01*
X74209167Y-103953691D01*
X74148690Y-103983929D01*
X74088214Y-103983929D01*
X74027738Y-103953691D01*
X73997500Y-103923452D01*
X73967262Y-103862976D01*
X73967262Y-103711786D01*
X73997500Y-103621071D01*
X75852262Y-104437500D02*
X75217262Y-104437500D01*
X75217262Y-104286309D01*
X75247500Y-104195595D01*
X75307976Y-104135119D01*
X75368452Y-104104880D01*
X75489405Y-104074642D01*
X75580119Y-104074642D01*
X75701071Y-104104880D01*
X75761548Y-104135119D01*
X75822024Y-104195595D01*
X75852262Y-104286309D01*
X75852262Y-104437500D01*
X75852262Y-103802500D02*
X75217262Y-103802500D01*
D13*
X55753096Y-66810000D02*
X55657858Y-66762381D01*
X55515001Y-66762381D01*
X55372143Y-66810000D01*
X55276905Y-66905238D01*
X55229286Y-67000476D01*
X55181667Y-67190952D01*
X55181667Y-67333810D01*
X55229286Y-67524286D01*
X55276905Y-67619524D01*
X55372143Y-67714762D01*
X55515001Y-67762381D01*
X55610239Y-67762381D01*
X55753096Y-67714762D01*
X55800715Y-67667143D01*
X55800715Y-67333810D01*
X55610239Y-67333810D01*
X56229286Y-67762381D02*
X56229286Y-66762381D01*
X56800715Y-67762381D01*
X56800715Y-66762381D01*
X57276905Y-67762381D02*
X57276905Y-66762381D01*
X57515000Y-66762381D01*
X57657858Y-66810000D01*
X57753096Y-66905238D01*
X57800715Y-67000476D01*
X57848334Y-67190952D01*
X57848334Y-67333810D01*
X57800715Y-67524286D01*
X57753096Y-67619524D01*
X57657858Y-67714762D01*
X57515000Y-67762381D01*
X57276905Y-67762381D01*
X55967381Y-65222381D02*
X55634047Y-64746190D01*
X55395952Y-65222381D02*
X55395952Y-64222381D01*
X55776905Y-64222381D01*
X55872143Y-64270000D01*
X55919762Y-64317619D01*
X55967381Y-64412857D01*
X55967381Y-64555714D01*
X55919762Y-64650952D01*
X55872143Y-64698571D01*
X55776905Y-64746190D01*
X55395952Y-64746190D01*
X56348333Y-65174762D02*
X56491190Y-65222381D01*
X56729286Y-65222381D01*
X56824524Y-65174762D01*
X56872143Y-65127143D01*
X56919762Y-65031905D01*
X56919762Y-64936667D01*
X56872143Y-64841429D01*
X56824524Y-64793810D01*
X56729286Y-64746190D01*
X56538809Y-64698571D01*
X56443571Y-64650952D01*
X56395952Y-64603333D01*
X56348333Y-64508095D01*
X56348333Y-64412857D01*
X56395952Y-64317619D01*
X56443571Y-64270000D01*
X56538809Y-64222381D01*
X56776905Y-64222381D01*
X56919762Y-64270000D01*
X57205476Y-64222381D02*
X57776905Y-64222381D01*
X57491190Y-65222381D02*
X57491190Y-64222381D01*
X90860714Y-100734762D02*
X91003571Y-100782381D01*
X91241667Y-100782381D01*
X91336905Y-100734762D01*
X91384524Y-100687143D01*
X91432143Y-100591905D01*
X91432143Y-100496667D01*
X91384524Y-100401429D01*
X91336905Y-100353810D01*
X91241667Y-100306190D01*
X91051190Y-100258571D01*
X90955952Y-100210952D01*
X90908333Y-100163333D01*
X90860714Y-100068095D01*
X90860714Y-99972857D01*
X90908333Y-99877619D01*
X90955952Y-99830000D01*
X91051190Y-99782381D01*
X91289286Y-99782381D01*
X91432143Y-99830000D01*
X91860714Y-100782381D02*
X91860714Y-99782381D01*
X92098809Y-99782381D01*
X92241667Y-99830000D01*
X92336905Y-99925238D01*
X92384524Y-100020476D01*
X92432143Y-100210952D01*
X92432143Y-100353810D01*
X92384524Y-100544286D01*
X92336905Y-100639524D01*
X92241667Y-100734762D01*
X92098809Y-100782381D01*
X91860714Y-100782381D01*
X92813095Y-100496667D02*
X93289286Y-100496667D01*
X92717857Y-100782381D02*
X93051190Y-99782381D01*
X93384524Y-100782381D01*
X90884524Y-98194762D02*
X91027381Y-98242381D01*
X91265477Y-98242381D01*
X91360715Y-98194762D01*
X91408334Y-98147143D01*
X91455953Y-98051905D01*
X91455953Y-97956667D01*
X91408334Y-97861429D01*
X91360715Y-97813810D01*
X91265477Y-97766190D01*
X91075000Y-97718571D01*
X90979762Y-97670952D01*
X90932143Y-97623333D01*
X90884524Y-97528095D01*
X90884524Y-97432857D01*
X90932143Y-97337619D01*
X90979762Y-97290000D01*
X91075000Y-97242381D01*
X91313096Y-97242381D01*
X91455953Y-97290000D01*
X92455953Y-98147143D02*
X92408334Y-98194762D01*
X92265477Y-98242381D01*
X92170239Y-98242381D01*
X92027381Y-98194762D01*
X91932143Y-98099524D01*
X91884524Y-98004286D01*
X91836905Y-97813810D01*
X91836905Y-97670952D01*
X91884524Y-97480476D01*
X91932143Y-97385238D01*
X92027381Y-97290000D01*
X92170239Y-97242381D01*
X92265477Y-97242381D01*
X92408334Y-97290000D01*
X92455953Y-97337619D01*
X93360715Y-98242381D02*
X92884524Y-98242381D01*
X92884524Y-97242381D01*
X55753095Y-92162381D02*
X56324524Y-92162381D01*
X56038809Y-93162381D02*
X56038809Y-92162381D01*
X56562619Y-92162381D02*
X57229286Y-93162381D01*
X57229286Y-92162381D02*
X56562619Y-93162381D01*
X56348334Y-90622381D02*
X56015000Y-90146190D01*
X55776905Y-90622381D02*
X55776905Y-89622381D01*
X56157858Y-89622381D01*
X56253096Y-89670000D01*
X56300715Y-89717619D01*
X56348334Y-89812857D01*
X56348334Y-89955714D01*
X56300715Y-90050952D01*
X56253096Y-90098571D01*
X56157858Y-90146190D01*
X55776905Y-90146190D01*
X56681667Y-89622381D02*
X57348334Y-90622381D01*
X57348334Y-89622381D02*
X56681667Y-90622381D01*
X55800714Y-85256667D02*
X56276905Y-85256667D01*
X55705476Y-85542381D02*
X56038809Y-84542381D01*
X56372143Y-85542381D01*
X57181667Y-84542381D02*
X56705476Y-84542381D01*
X56657857Y-85018571D01*
X56705476Y-84970952D01*
X56800714Y-84923333D01*
X57038810Y-84923333D01*
X57134048Y-84970952D01*
X57181667Y-85018571D01*
X57229286Y-85113810D01*
X57229286Y-85351905D01*
X57181667Y-85447143D01*
X57134048Y-85494762D01*
X57038810Y-85542381D01*
X56800714Y-85542381D01*
X56705476Y-85494762D01*
X56657857Y-85447143D01*
X55800714Y-82716667D02*
X56276905Y-82716667D01*
X55705476Y-83002381D02*
X56038809Y-82002381D01*
X56372143Y-83002381D01*
X57134048Y-82335714D02*
X57134048Y-83002381D01*
X56895952Y-81954762D02*
X56657857Y-82669048D01*
X57276905Y-82669048D01*
X55800714Y-80176667D02*
X56276905Y-80176667D01*
X55705476Y-80462381D02*
X56038809Y-79462381D01*
X56372143Y-80462381D01*
X56610238Y-79462381D02*
X57229286Y-79462381D01*
X56895952Y-79843333D01*
X57038810Y-79843333D01*
X57134048Y-79890952D01*
X57181667Y-79938571D01*
X57229286Y-80033810D01*
X57229286Y-80271905D01*
X57181667Y-80367143D01*
X57134048Y-80414762D01*
X57038810Y-80462381D01*
X56753095Y-80462381D01*
X56657857Y-80414762D01*
X56610238Y-80367143D01*
X55800714Y-77636667D02*
X56276905Y-77636667D01*
X55705476Y-77922381D02*
X56038809Y-76922381D01*
X56372143Y-77922381D01*
X56657857Y-77017619D02*
X56705476Y-76970000D01*
X56800714Y-76922381D01*
X57038810Y-76922381D01*
X57134048Y-76970000D01*
X57181667Y-77017619D01*
X57229286Y-77112857D01*
X57229286Y-77208095D01*
X57181667Y-77350952D01*
X56610238Y-77922381D01*
X57229286Y-77922381D01*
X55800714Y-75096667D02*
X56276905Y-75096667D01*
X55705476Y-75382381D02*
X56038809Y-74382381D01*
X56372143Y-75382381D01*
X57229286Y-75382381D02*
X56657857Y-75382381D01*
X56943571Y-75382381D02*
X56943571Y-74382381D01*
X56848333Y-74525238D01*
X56753095Y-74620476D01*
X56657857Y-74668095D01*
X55800714Y-72556667D02*
X56276905Y-72556667D01*
X55705476Y-72842381D02*
X56038809Y-71842381D01*
X56372143Y-72842381D01*
X56895952Y-71842381D02*
X56991191Y-71842381D01*
X57086429Y-71890000D01*
X57134048Y-71937619D01*
X57181667Y-72032857D01*
X57229286Y-72223333D01*
X57229286Y-72461429D01*
X57181667Y-72651905D01*
X57134048Y-72747143D01*
X57086429Y-72794762D01*
X56991191Y-72842381D01*
X56895952Y-72842381D01*
X56800714Y-72794762D01*
X56753095Y-72747143D01*
X56705476Y-72651905D01*
X56657857Y-72461429D01*
X56657857Y-72223333D01*
X56705476Y-72032857D01*
X56753095Y-71937619D01*
X56800714Y-71890000D01*
X56895952Y-71842381D01*
D17*
X75153238Y-73831381D02*
X75056476Y-73783000D01*
X74959714Y-73686238D01*
X74814571Y-73541095D01*
X74717810Y-73492714D01*
X74621048Y-73492714D01*
X74669429Y-73734619D02*
X74572667Y-73686238D01*
X74475905Y-73589476D01*
X74427524Y-73395952D01*
X74427524Y-73057286D01*
X74475905Y-72863762D01*
X74572667Y-72767000D01*
X74669429Y-72718619D01*
X74862952Y-72718619D01*
X74959714Y-72767000D01*
X75056476Y-72863762D01*
X75104857Y-73057286D01*
X75104857Y-73395952D01*
X75056476Y-73589476D01*
X74959714Y-73686238D01*
X74862952Y-73734619D01*
X74669429Y-73734619D01*
X76072476Y-73734619D02*
X75491905Y-73734619D01*
X75782191Y-73734619D02*
X75782191Y-72718619D01*
X75685429Y-72863762D01*
X75588667Y-72960524D01*
X75491905Y-73008905D01*
D13*
X70953334Y-79827381D02*
X70620000Y-79351190D01*
X70381905Y-79827381D02*
X70381905Y-78827381D01*
X70762858Y-78827381D01*
X70858096Y-78875000D01*
X70905715Y-78922619D01*
X70953334Y-79017857D01*
X70953334Y-79160714D01*
X70905715Y-79255952D01*
X70858096Y-79303571D01*
X70762858Y-79351190D01*
X70381905Y-79351190D01*
X71905715Y-79827381D02*
X71334286Y-79827381D01*
X71620000Y-79827381D02*
X71620000Y-78827381D01*
X71524762Y-78970238D01*
X71429524Y-79065476D01*
X71334286Y-79113095D01*
X79208334Y-79827381D02*
X78875000Y-79351190D01*
X78636905Y-79827381D02*
X78636905Y-78827381D01*
X79017858Y-78827381D01*
X79113096Y-78875000D01*
X79160715Y-78922619D01*
X79208334Y-79017857D01*
X79208334Y-79160714D01*
X79160715Y-79255952D01*
X79113096Y-79303571D01*
X79017858Y-79351190D01*
X78636905Y-79351190D01*
X79589286Y-78922619D02*
X79636905Y-78875000D01*
X79732143Y-78827381D01*
X79970239Y-78827381D01*
X80065477Y-78875000D01*
X80113096Y-78922619D01*
X80160715Y-79017857D01*
X80160715Y-79113095D01*
X80113096Y-79255952D01*
X79541667Y-79827381D01*
X80160715Y-79827381D01*
X79208334Y-73477381D02*
X78875000Y-73001190D01*
X78636905Y-73477381D02*
X78636905Y-72477381D01*
X79017858Y-72477381D01*
X79113096Y-72525000D01*
X79160715Y-72572619D01*
X79208334Y-72667857D01*
X79208334Y-72810714D01*
X79160715Y-72905952D01*
X79113096Y-72953571D01*
X79017858Y-73001190D01*
X78636905Y-73001190D01*
X79541667Y-72477381D02*
X80160715Y-72477381D01*
X79827381Y-72858333D01*
X79970239Y-72858333D01*
X80065477Y-72905952D01*
X80113096Y-72953571D01*
X80160715Y-73048810D01*
X80160715Y-73286905D01*
X80113096Y-73382143D01*
X80065477Y-73429762D01*
X79970239Y-73477381D01*
X79684524Y-73477381D01*
X79589286Y-73429762D01*
X79541667Y-73382143D01*
X70953334Y-73477381D02*
X70620000Y-73001190D01*
X70381905Y-73477381D02*
X70381905Y-72477381D01*
X70762858Y-72477381D01*
X70858096Y-72525000D01*
X70905715Y-72572619D01*
X70953334Y-72667857D01*
X70953334Y-72810714D01*
X70905715Y-72905952D01*
X70858096Y-72953571D01*
X70762858Y-73001190D01*
X70381905Y-73001190D01*
X71810477Y-72810714D02*
X71810477Y-73477381D01*
X71572381Y-72429762D02*
X71334286Y-73144048D01*
X71953334Y-73144048D01*
X90877143Y-69494285D02*
X90924762Y-69541904D01*
X90972381Y-69684761D01*
X90972381Y-69779999D01*
X90924762Y-69922857D01*
X90829524Y-70018095D01*
X90734286Y-70065714D01*
X90543810Y-70113333D01*
X90400952Y-70113333D01*
X90210476Y-70065714D01*
X90115238Y-70018095D01*
X90020000Y-69922857D01*
X89972381Y-69779999D01*
X89972381Y-69684761D01*
X90020000Y-69541904D01*
X90067619Y-69494285D01*
X89972381Y-68875238D02*
X89972381Y-68684761D01*
X90020000Y-68589523D01*
X90115238Y-68494285D01*
X90305714Y-68446666D01*
X90639048Y-68446666D01*
X90829524Y-68494285D01*
X90924762Y-68589523D01*
X90972381Y-68684761D01*
X90972381Y-68875238D01*
X90924762Y-68970476D01*
X90829524Y-69065714D01*
X90639048Y-69113333D01*
X90305714Y-69113333D01*
X90115238Y-69065714D01*
X90020000Y-68970476D01*
X89972381Y-68875238D01*
X90972381Y-68018095D02*
X89972381Y-68018095D01*
X90972381Y-67446666D01*
X89972381Y-67446666D01*
X90972381Y-66446666D02*
X90972381Y-67018095D01*
X90972381Y-66732381D02*
X89972381Y-66732381D01*
X90115238Y-66827619D01*
X90210476Y-66922857D01*
X90258095Y-67018095D01*
D17*
X96350667Y-56877857D02*
X96302286Y-56926238D01*
X96157143Y-56974619D01*
X96060381Y-56974619D01*
X95915239Y-56926238D01*
X95818477Y-56829476D01*
X95770096Y-56732714D01*
X95721715Y-56539190D01*
X95721715Y-56394048D01*
X95770096Y-56200524D01*
X95818477Y-56103762D01*
X95915239Y-56007000D01*
X96060381Y-55958619D01*
X96157143Y-55958619D01*
X96302286Y-56007000D01*
X96350667Y-56055381D01*
X97318286Y-56974619D02*
X96737715Y-56974619D01*
X97028001Y-56974619D02*
X97028001Y-55958619D01*
X96931239Y-56103762D01*
X96834477Y-56200524D01*
X96737715Y-56248905D01*
D18*
X80064429Y-59272714D02*
X80064429Y-59889571D01*
X80100714Y-59962143D01*
X80137000Y-59998429D01*
X80209571Y-60034714D01*
X80354714Y-60034714D01*
X80427286Y-59998429D01*
X80463571Y-59962143D01*
X80499857Y-59889571D01*
X80499857Y-59272714D01*
X81261857Y-60034714D02*
X80826429Y-60034714D01*
X81044143Y-60034714D02*
X81044143Y-59272714D01*
X80971572Y-59381571D01*
X80899000Y-59454143D01*
X80826429Y-59490429D01*
X67908715Y-59635571D02*
X67654715Y-59635571D01*
X67654715Y-60034714D02*
X67654715Y-59272714D01*
X68017572Y-59272714D01*
X68307858Y-59635571D02*
X68561858Y-59635571D01*
X68670715Y-60034714D02*
X68307858Y-60034714D01*
X68307858Y-59272714D01*
X68670715Y-59272714D01*
X68961001Y-59817000D02*
X69323858Y-59817000D01*
X68888429Y-60034714D02*
X69142429Y-59272714D01*
X69396429Y-60034714D01*
X69541572Y-59272714D02*
X69977001Y-59272714D01*
X69759287Y-60034714D02*
X69759287Y-59272714D01*
X70231001Y-60034714D02*
X70231001Y-59272714D01*
X70231001Y-59635571D02*
X70666429Y-59635571D01*
X70666429Y-60034714D02*
X70666429Y-59272714D01*
X71029287Y-59635571D02*
X71283287Y-59635571D01*
X71392144Y-60034714D02*
X71029287Y-60034714D01*
X71029287Y-59272714D01*
X71392144Y-59272714D01*
X72154144Y-60034714D02*
X71900144Y-59671857D01*
X71718716Y-60034714D02*
X71718716Y-59272714D01*
X72009001Y-59272714D01*
X72081573Y-59309000D01*
X72117858Y-59345286D01*
X72154144Y-59417857D01*
X72154144Y-59526714D01*
X72117858Y-59599286D01*
X72081573Y-59635571D01*
X72009001Y-59671857D01*
X71718716Y-59671857D01*
X72299287Y-60107286D02*
X72879858Y-60107286D01*
X73061287Y-60034714D02*
X73061287Y-59272714D01*
X73315287Y-59817000D01*
X73569287Y-59272714D01*
X73569287Y-60034714D01*
X74077286Y-59272714D02*
X74149858Y-59272714D01*
X74222429Y-59309000D01*
X74258715Y-59345286D01*
X74295001Y-59417857D01*
X74331286Y-59563000D01*
X74331286Y-59744429D01*
X74295001Y-59889571D01*
X74258715Y-59962143D01*
X74222429Y-59998429D01*
X74149858Y-60034714D01*
X74077286Y-60034714D01*
X74004715Y-59998429D01*
X73968429Y-59962143D01*
X73932144Y-59889571D01*
X73895858Y-59744429D01*
X73895858Y-59563000D01*
X73932144Y-59417857D01*
X73968429Y-59345286D01*
X74004715Y-59309000D01*
X74077286Y-59272714D01*
X74476429Y-60107286D02*
X75057000Y-60107286D01*
X75165857Y-59272714D02*
X75347286Y-60034714D01*
X75492429Y-59490429D01*
X75637571Y-60034714D01*
X75819000Y-59272714D01*
X76109286Y-60034714D02*
X76109286Y-59272714D01*
X76726143Y-59635571D02*
X76472143Y-59635571D01*
X76472143Y-60034714D02*
X76472143Y-59272714D01*
X76835000Y-59272714D01*
X77125286Y-60034714D02*
X77125286Y-59272714D01*
D19*
X71667810Y-61848619D02*
X72248381Y-61848619D01*
X71958096Y-62864619D02*
X71958096Y-61848619D01*
X72780572Y-61848619D02*
X72974095Y-61848619D01*
X73070857Y-61897000D01*
X73167619Y-61993762D01*
X73216000Y-62187286D01*
X73216000Y-62525952D01*
X73167619Y-62719476D01*
X73070857Y-62816238D01*
X72974095Y-62864619D01*
X72780572Y-62864619D01*
X72683810Y-62816238D01*
X72587048Y-62719476D01*
X72538667Y-62525952D01*
X72538667Y-62187286D01*
X72587048Y-61993762D01*
X72683810Y-61897000D01*
X72780572Y-61848619D01*
X73409524Y-62961381D02*
X74183619Y-62961381D01*
X74909333Y-62864619D02*
X74425524Y-62864619D01*
X74425524Y-61848619D01*
X75248000Y-62332429D02*
X75586666Y-62332429D01*
X75731809Y-62864619D02*
X75248000Y-62864619D01*
X75248000Y-61848619D01*
X75731809Y-61848619D01*
X76167238Y-62864619D02*
X76167238Y-61848619D01*
X76409143Y-61848619D01*
X76554285Y-61897000D01*
X76651047Y-61993762D01*
X76699428Y-62090524D01*
X76747809Y-62284048D01*
X76747809Y-62429190D01*
X76699428Y-62622714D01*
X76651047Y-62719476D01*
X76554285Y-62816238D01*
X76409143Y-62864619D01*
X76167238Y-62864619D01*
X77134857Y-62816238D02*
X77280000Y-62864619D01*
X77521904Y-62864619D01*
X77618666Y-62816238D01*
X77667047Y-62767857D01*
X77715428Y-62671095D01*
X77715428Y-62574333D01*
X77667047Y-62477571D01*
X77618666Y-62429190D01*
X77521904Y-62380810D01*
X77328381Y-62332429D01*
X77231619Y-62284048D01*
X77183238Y-62235667D01*
X77134857Y-62138905D01*
X77134857Y-62042143D01*
X77183238Y-61945381D01*
X77231619Y-61897000D01*
X77328381Y-61848619D01*
X77570285Y-61848619D01*
X77715428Y-61897000D01*
X75389619Y-70738999D02*
X74373619Y-70738999D01*
X74373619Y-70497094D01*
X74422000Y-70351952D01*
X74518762Y-70255190D01*
X74615524Y-70206809D01*
X74809048Y-70158428D01*
X74954190Y-70158428D01*
X75147714Y-70206809D01*
X75244476Y-70255190D01*
X75341238Y-70351952D01*
X75389619Y-70497094D01*
X75389619Y-70738999D01*
X75099333Y-69771380D02*
X75099333Y-69287571D01*
X75389619Y-69868142D02*
X74373619Y-69529475D01*
X75389619Y-69190809D01*
X74373619Y-68997285D02*
X74373619Y-68416714D01*
X75389619Y-68706999D02*
X74373619Y-68706999D01*
X75099333Y-68126428D02*
X75099333Y-67642619D01*
X75389619Y-68223190D02*
X74373619Y-67884523D01*
X75389619Y-67545857D01*
X70612000Y-69989095D02*
X70563619Y-70085857D01*
X70563619Y-70231000D01*
X70612000Y-70376142D01*
X70708762Y-70472904D01*
X70805524Y-70521285D01*
X70999048Y-70569666D01*
X71144190Y-70569666D01*
X71337714Y-70521285D01*
X71434476Y-70472904D01*
X71531238Y-70376142D01*
X71579619Y-70231000D01*
X71579619Y-70134238D01*
X71531238Y-69989095D01*
X71482857Y-69940714D01*
X71144190Y-69940714D01*
X71144190Y-70134238D01*
X71579619Y-69505285D02*
X70563619Y-69505285D01*
X71579619Y-68924714D01*
X70563619Y-68924714D01*
X71579619Y-68440904D02*
X70563619Y-68440904D01*
X70563619Y-68198999D01*
X70612000Y-68053857D01*
X70708762Y-67957095D01*
X70805524Y-67908714D01*
X70999048Y-67860333D01*
X71144190Y-67860333D01*
X71337714Y-67908714D01*
X71434476Y-67957095D01*
X71531238Y-68053857D01*
X71579619Y-68198999D01*
X71579619Y-68440904D01*
X78812571Y-70521285D02*
X78812571Y-69747190D01*
X79199619Y-70134238D02*
X78425524Y-70134238D01*
X78183619Y-68779571D02*
X78183619Y-69263380D01*
X78667429Y-69311761D01*
X78619048Y-69263380D01*
X78570667Y-69166618D01*
X78570667Y-68924714D01*
X78619048Y-68827952D01*
X78667429Y-68779571D01*
X78764190Y-68731190D01*
X79006095Y-68731190D01*
X79102857Y-68779571D01*
X79151238Y-68827952D01*
X79199619Y-68924714D01*
X79199619Y-69166618D01*
X79151238Y-69263380D01*
X79102857Y-69311761D01*
X78183619Y-68440904D02*
X79199619Y-68102237D01*
X78183619Y-67763571D01*
D13*
X71016905Y-96972381D02*
X71016905Y-95972381D01*
X71397858Y-95972381D01*
X71493096Y-96020000D01*
X71540715Y-96067619D01*
X71588334Y-96162857D01*
X71588334Y-96305714D01*
X71540715Y-96400952D01*
X71493096Y-96448571D01*
X71397858Y-96496190D01*
X71016905Y-96496190D01*
X72159762Y-96400952D02*
X72064524Y-96353333D01*
X72016905Y-96305714D01*
X71969286Y-96210476D01*
X71969286Y-96162857D01*
X72016905Y-96067619D01*
X72064524Y-96020000D01*
X72159762Y-95972381D01*
X72350239Y-95972381D01*
X72445477Y-96020000D01*
X72493096Y-96067619D01*
X72540715Y-96162857D01*
X72540715Y-96210476D01*
X72493096Y-96305714D01*
X72445477Y-96353333D01*
X72350239Y-96400952D01*
X72159762Y-96400952D01*
X72064524Y-96448571D01*
X72016905Y-96496190D01*
X71969286Y-96591429D01*
X71969286Y-96781905D01*
X72016905Y-96877143D01*
X72064524Y-96924762D01*
X72159762Y-96972381D01*
X72350239Y-96972381D01*
X72445477Y-96924762D01*
X72493096Y-96877143D01*
X72540715Y-96781905D01*
X72540715Y-96591429D01*
X72493096Y-96496190D01*
X72445477Y-96448571D01*
X72350239Y-96400952D01*
X71016905Y-76652381D02*
X71016905Y-75652381D01*
X71397858Y-75652381D01*
X71493096Y-75700000D01*
X71540715Y-75747619D01*
X71588334Y-75842857D01*
X71588334Y-75985714D01*
X71540715Y-76080952D01*
X71493096Y-76128571D01*
X71397858Y-76176190D01*
X71016905Y-76176190D01*
X71969286Y-75747619D02*
X72016905Y-75700000D01*
X72112143Y-75652381D01*
X72350239Y-75652381D01*
X72445477Y-75700000D01*
X72493096Y-75747619D01*
X72540715Y-75842857D01*
X72540715Y-75938095D01*
X72493096Y-76080952D01*
X71921667Y-76652381D01*
X72540715Y-76652381D01*
M02*
