G04 #@! TF.FileFunction,Copper,L2,Bot,Signal*
%FSLAX46Y46*%
G04 Gerber Fmt 4.6, Leading zero omitted, Abs format (unit mm)*
G04 Created by KiCad (PCBNEW 4.0.5+dfsg1-4) date Mon May 28 17:54:40 2018*
%MOMM*%
%LPD*%
G01*
G04 APERTURE LIST*
%ADD10C,0.100000*%
%ADD11C,1.016000*%
%ADD12R,2.032000X2.032000*%
%ADD13O,2.032000X2.032000*%
%ADD14R,2.032000X1.727200*%
%ADD15O,2.032000X1.727200*%
%ADD16R,1.399540X1.899920*%
%ADD17R,0.797560X1.498600*%
%ADD18R,1.798320X1.399540*%
%ADD19C,3.556000*%
%ADD20C,3.000000*%
%ADD21O,1.727200X2.032000*%
%ADD22C,0.600000*%
%ADD23C,0.250000*%
%ADD24C,0.635000*%
G04 APERTURE END LIST*
D10*
D11*
X78105000Y-102870000D03*
X76855000Y-102870000D03*
X75565000Y-102870000D03*
X74315000Y-102870000D03*
D12*
X59690000Y-64770000D03*
D13*
X59690000Y-67310000D03*
D12*
X88900000Y-97790000D03*
D13*
X88900000Y-100330000D03*
D12*
X59690000Y-90170000D03*
D13*
X59690000Y-92710000D03*
D14*
X59690000Y-72390000D03*
D15*
X59690000Y-74930000D03*
X59690000Y-77470000D03*
X59690000Y-80010000D03*
X59690000Y-82550000D03*
X59690000Y-85090000D03*
D16*
X67708780Y-104155240D03*
X80855820Y-103154480D03*
D17*
X72356980Y-100304600D03*
X73456800Y-100103940D03*
X74554080Y-100304600D03*
X75653900Y-100505260D03*
X76753720Y-100304600D03*
X77856080Y-100505260D03*
X78955900Y-100304600D03*
X80055720Y-100304600D03*
D18*
X79255620Y-90007440D03*
X73558400Y-90007440D03*
D19*
X59000000Y-101000000D03*
X101000000Y-59000000D03*
X59000000Y-59000000D03*
X101000000Y-101000000D03*
D20*
X96520000Y-78280000D03*
D19*
X78740000Y-65405000D03*
D21*
X74930000Y-65405000D03*
D19*
X71120000Y-65405000D03*
D22*
X78105000Y-97790000D03*
X92710000Y-76200000D03*
X92710000Y-74930000D03*
X92710000Y-73660000D03*
X92710000Y-72390000D03*
X92710000Y-71120000D03*
X93345000Y-71755000D03*
X93345000Y-73025000D03*
X93345000Y-74295000D03*
X93345000Y-75565000D03*
X93980000Y-74930000D03*
X93980000Y-73660000D03*
X93980000Y-72390000D03*
X93980000Y-71120000D03*
X93980000Y-69850000D03*
X93345000Y-70485000D03*
X68580000Y-101600000D03*
X75565000Y-79375000D03*
X79375000Y-88900000D03*
X73660000Y-88900000D03*
X71755000Y-86360000D03*
X76835000Y-87630000D03*
X74295000Y-91440000D03*
X78740000Y-92710000D03*
D23*
X77856080Y-100505260D02*
X77856080Y-99308920D01*
X78105000Y-99060000D02*
X78105000Y-97790000D01*
X77856080Y-99308920D02*
X78105000Y-99060000D01*
X92710000Y-76200000D02*
X92710000Y-74930000D01*
X92710000Y-73660000D02*
X92710000Y-72390000D01*
X92710000Y-71120000D02*
X93345000Y-71755000D01*
X93345000Y-73025000D02*
X93345000Y-74295000D01*
X93345000Y-75565000D02*
X93980000Y-74930000D01*
X93980000Y-73660000D02*
X93980000Y-72390000D01*
X93980000Y-71120000D02*
X93980000Y-69850000D01*
X67708780Y-104155240D02*
X67708780Y-102471220D01*
X67708780Y-102471220D02*
X68580000Y-101600000D01*
X75653900Y-100505260D02*
X75653900Y-98513900D01*
X75565000Y-98425000D02*
X75565000Y-79375000D01*
X75653900Y-98513900D02*
X75565000Y-98425000D01*
X73558400Y-90007440D02*
X73558400Y-89001600D01*
X79255620Y-89019380D02*
X79255620Y-90007440D01*
X79375000Y-88900000D02*
X79255620Y-89019380D01*
X73558400Y-89001600D02*
X73660000Y-88900000D01*
X73456800Y-102011800D02*
X74315000Y-102870000D01*
X73456800Y-100103940D02*
X73456800Y-102011800D01*
X73456800Y-98856800D02*
X71755000Y-97155000D01*
X71755000Y-97155000D02*
X71755000Y-86360000D01*
X73456800Y-100103940D02*
X73456800Y-98856800D01*
X76753720Y-102768720D02*
X76855000Y-102870000D01*
X76753720Y-100304600D02*
X76753720Y-102768720D01*
X76753720Y-100304600D02*
X76753720Y-99141280D01*
X76835000Y-99060000D02*
X76835000Y-87630000D01*
X76753720Y-99141280D02*
X76835000Y-99060000D01*
X74554080Y-101859080D02*
X75565000Y-102870000D01*
X74554080Y-100304600D02*
X74554080Y-101859080D01*
X74554080Y-100304600D02*
X74554080Y-98684080D01*
X74295000Y-98425000D02*
X74295000Y-91440000D01*
X74554080Y-98684080D02*
X74295000Y-98425000D01*
X78955900Y-102019100D02*
X78105000Y-102870000D01*
X78955900Y-100304600D02*
X78955900Y-102019100D01*
X78955900Y-100304600D02*
X78955900Y-99275900D01*
X78740000Y-99060000D02*
X78740000Y-92710000D01*
X78955900Y-99275900D02*
X78740000Y-99060000D01*
D24*
G36*
X102747139Y-56196245D02*
X103380534Y-56619466D01*
X103803755Y-57252861D01*
X103972500Y-58101200D01*
X103972500Y-101898800D01*
X103803755Y-102747139D01*
X103380534Y-103380534D01*
X102747139Y-103803755D01*
X101898800Y-103972500D01*
X79067838Y-103972500D01*
X79342430Y-103698387D01*
X79565246Y-103161786D01*
X79565445Y-102933370D01*
X79717805Y-102781010D01*
X79717808Y-102781008D01*
X79933862Y-102457659D01*
X79951380Y-102431442D01*
X80032214Y-102025060D01*
X80454500Y-102025060D01*
X80807475Y-101958643D01*
X81131662Y-101750035D01*
X81349146Y-101431736D01*
X81425660Y-101053900D01*
X81425660Y-100330000D01*
X86892935Y-100330000D01*
X87042778Y-101083312D01*
X87469495Y-101721940D01*
X88108123Y-102148657D01*
X88861435Y-102298500D01*
X88938565Y-102298500D01*
X89691877Y-102148657D01*
X90330505Y-101721940D01*
X90757222Y-101083312D01*
X90907065Y-100330000D01*
X90757222Y-99576688D01*
X90650923Y-99417599D01*
X90810646Y-99183836D01*
X90887160Y-98806000D01*
X90887160Y-96774000D01*
X90820743Y-96421025D01*
X90612135Y-96096838D01*
X90293836Y-95879354D01*
X89916000Y-95802840D01*
X87884000Y-95802840D01*
X87531025Y-95869257D01*
X87206838Y-96077865D01*
X86989354Y-96396164D01*
X86912840Y-96774000D01*
X86912840Y-98806000D01*
X86979257Y-99158975D01*
X87147345Y-99420192D01*
X87042778Y-99576688D01*
X86892935Y-100330000D01*
X81425660Y-100330000D01*
X81425660Y-99555300D01*
X81359243Y-99202325D01*
X81150635Y-98878138D01*
X80832336Y-98660654D01*
X80454500Y-98584140D01*
X79817500Y-98584140D01*
X79817500Y-93381154D01*
X79992282Y-92960231D01*
X79992717Y-92461955D01*
X79802437Y-92001443D01*
X79479928Y-91678370D01*
X80154780Y-91678370D01*
X80507755Y-91611953D01*
X80831942Y-91403345D01*
X81049426Y-91085046D01*
X81125940Y-90707210D01*
X81125940Y-89307670D01*
X81059523Y-88954695D01*
X80850915Y-88630508D01*
X80532616Y-88413024D01*
X80528662Y-88412223D01*
X80437437Y-88191443D01*
X80085411Y-87838801D01*
X79625231Y-87647718D01*
X79126955Y-87647283D01*
X78666443Y-87837563D01*
X78313801Y-88189589D01*
X78244008Y-88357669D01*
X78003485Y-88402927D01*
X77912500Y-88461474D01*
X77912500Y-88301154D01*
X78087282Y-87880231D01*
X78087717Y-87381955D01*
X77897437Y-86921443D01*
X77545411Y-86568801D01*
X77085231Y-86377718D01*
X76642500Y-86377331D01*
X76642500Y-80046154D01*
X76817282Y-79625231D01*
X76817717Y-79126955D01*
X76668446Y-78765692D01*
X94067076Y-78765692D01*
X94439660Y-79667415D01*
X95128957Y-80357916D01*
X96030027Y-80732073D01*
X97005692Y-80732924D01*
X97907415Y-80360340D01*
X98597916Y-79671043D01*
X98972073Y-78769973D01*
X98972924Y-77794308D01*
X98600340Y-76892585D01*
X97911043Y-76202084D01*
X97009973Y-75827927D01*
X96034308Y-75827076D01*
X95132585Y-76199660D01*
X94442084Y-76888957D01*
X94067927Y-77790027D01*
X94067076Y-78765692D01*
X76668446Y-78765692D01*
X76627437Y-78666443D01*
X76275411Y-78313801D01*
X75815231Y-78122718D01*
X75316955Y-78122283D01*
X74856443Y-78312563D01*
X74503801Y-78664589D01*
X74312718Y-79124769D01*
X74312283Y-79623045D01*
X74487500Y-80047102D01*
X74487500Y-87956095D01*
X74370411Y-87838801D01*
X73910231Y-87647718D01*
X73411955Y-87647283D01*
X72951443Y-87837563D01*
X72832500Y-87956298D01*
X72832500Y-87031154D01*
X73007282Y-86610231D01*
X73007717Y-86111955D01*
X72817437Y-85651443D01*
X72465411Y-85298801D01*
X72005231Y-85107718D01*
X71506955Y-85107283D01*
X71046443Y-85297563D01*
X70693801Y-85649589D01*
X70502718Y-86109769D01*
X70502283Y-86608045D01*
X70677500Y-87032102D01*
X70677500Y-97154995D01*
X70677499Y-97155000D01*
X70759520Y-97567342D01*
X70993092Y-97916908D01*
X71707497Y-98631313D01*
X71605225Y-98650557D01*
X71281038Y-98859165D01*
X71063554Y-99177464D01*
X70987040Y-99555300D01*
X70987040Y-101053900D01*
X71053457Y-101406875D01*
X71262065Y-101731062D01*
X71580364Y-101948546D01*
X71958200Y-102025060D01*
X72381937Y-102025060D01*
X72461320Y-102424142D01*
X72694892Y-102773708D01*
X72854444Y-102933260D01*
X72854247Y-103159237D01*
X73076126Y-103696226D01*
X73351918Y-103972500D01*
X58101200Y-103972500D01*
X57252861Y-103803755D01*
X56619466Y-103380534D01*
X56196245Y-102747139D01*
X56027500Y-101898800D01*
X56027500Y-92710000D01*
X57682935Y-92710000D01*
X57832778Y-93463312D01*
X58259495Y-94101940D01*
X58898123Y-94528657D01*
X59651435Y-94678500D01*
X59728565Y-94678500D01*
X60481877Y-94528657D01*
X61120505Y-94101940D01*
X61547222Y-93463312D01*
X61697065Y-92710000D01*
X61547222Y-91956688D01*
X61440923Y-91797599D01*
X61600646Y-91563836D01*
X61677160Y-91186000D01*
X61677160Y-89154000D01*
X61610743Y-88801025D01*
X61402135Y-88476838D01*
X61083836Y-88259354D01*
X60706000Y-88182840D01*
X58674000Y-88182840D01*
X58321025Y-88249257D01*
X57996838Y-88457865D01*
X57779354Y-88776164D01*
X57702840Y-89154000D01*
X57702840Y-91186000D01*
X57769257Y-91538975D01*
X57937345Y-91800192D01*
X57832778Y-91956688D01*
X57682935Y-92710000D01*
X56027500Y-92710000D01*
X56027500Y-74930000D01*
X57682935Y-74930000D01*
X57821177Y-75624991D01*
X58205385Y-76200000D01*
X57821177Y-76775009D01*
X57682935Y-77470000D01*
X57821177Y-78164991D01*
X58205385Y-78740000D01*
X57821177Y-79315009D01*
X57682935Y-80010000D01*
X57821177Y-80704991D01*
X58205385Y-81280000D01*
X57821177Y-81855009D01*
X57682935Y-82550000D01*
X57821177Y-83244991D01*
X58205385Y-83820000D01*
X57821177Y-84395009D01*
X57682935Y-85090000D01*
X57821177Y-85784991D01*
X58214858Y-86374177D01*
X58804044Y-86767858D01*
X59499035Y-86906100D01*
X59880965Y-86906100D01*
X60575956Y-86767858D01*
X61165142Y-86374177D01*
X61558823Y-85784991D01*
X61697065Y-85090000D01*
X61558823Y-84395009D01*
X61174615Y-83820000D01*
X61558823Y-83244991D01*
X61697065Y-82550000D01*
X61558823Y-81855009D01*
X61174615Y-81280000D01*
X61558823Y-80704991D01*
X61697065Y-80010000D01*
X61558823Y-79315009D01*
X61174615Y-78740000D01*
X61558823Y-78164991D01*
X61697065Y-77470000D01*
X61558823Y-76775009D01*
X61174615Y-76200000D01*
X61558823Y-75624991D01*
X61697065Y-74930000D01*
X61558823Y-74235009D01*
X61372705Y-73956464D01*
X61383162Y-73949735D01*
X61600646Y-73631436D01*
X61677160Y-73253600D01*
X61677160Y-71526400D01*
X61610743Y-71173425D01*
X61402135Y-70849238D01*
X61083836Y-70631754D01*
X60706000Y-70555240D01*
X58674000Y-70555240D01*
X58321025Y-70621657D01*
X57996838Y-70830265D01*
X57779354Y-71148564D01*
X57702840Y-71526400D01*
X57702840Y-73253600D01*
X57769257Y-73606575D01*
X57977865Y-73930762D01*
X58009861Y-73952624D01*
X57821177Y-74235009D01*
X57682935Y-74930000D01*
X56027500Y-74930000D01*
X56027500Y-67660621D01*
X57882187Y-67660621D01*
X57885617Y-67677890D01*
X58163753Y-68340393D01*
X58674246Y-68846028D01*
X59339378Y-69117817D01*
X59626500Y-68944034D01*
X59626500Y-67373500D01*
X59753500Y-67373500D01*
X59753500Y-68944034D01*
X60040622Y-69117817D01*
X60705754Y-68846028D01*
X61216247Y-68340393D01*
X61494383Y-67677890D01*
X61497813Y-67660621D01*
X61323892Y-67373500D01*
X59753500Y-67373500D01*
X59626500Y-67373500D01*
X58056108Y-67373500D01*
X57882187Y-67660621D01*
X56027500Y-67660621D01*
X56027500Y-63754000D01*
X57702840Y-63754000D01*
X57702840Y-65786000D01*
X57769257Y-66138975D01*
X57977865Y-66463162D01*
X58062433Y-66520945D01*
X57885617Y-66942110D01*
X57882187Y-66959379D01*
X58056108Y-67246500D01*
X59626500Y-67246500D01*
X59626500Y-67226500D01*
X59753500Y-67226500D01*
X59753500Y-67246500D01*
X61323892Y-67246500D01*
X61497813Y-66959379D01*
X61494383Y-66942110D01*
X61318690Y-66523621D01*
X61383162Y-66482135D01*
X61600646Y-66163836D01*
X61677160Y-65786000D01*
X61677160Y-65214035D01*
X73113900Y-65214035D01*
X73113900Y-65595965D01*
X73252142Y-66290956D01*
X73645823Y-66880142D01*
X74235009Y-67273823D01*
X74930000Y-67412065D01*
X75624991Y-67273823D01*
X76214177Y-66880142D01*
X76325976Y-66712823D01*
X76423845Y-66949684D01*
X77191276Y-67718456D01*
X78194487Y-68135025D01*
X79280747Y-68135973D01*
X80284684Y-67721155D01*
X81053456Y-66953724D01*
X81470025Y-65950513D01*
X81470973Y-64864253D01*
X81056155Y-63860316D01*
X80288724Y-63091544D01*
X79285513Y-62674975D01*
X78199253Y-62674027D01*
X77195316Y-63088845D01*
X76426544Y-63856276D01*
X76326307Y-64097673D01*
X76214177Y-63929858D01*
X75624991Y-63536177D01*
X74930000Y-63397935D01*
X74235009Y-63536177D01*
X73645823Y-63929858D01*
X73252142Y-64519044D01*
X73113900Y-65214035D01*
X61677160Y-65214035D01*
X61677160Y-63754000D01*
X61610743Y-63401025D01*
X61402135Y-63076838D01*
X61083836Y-62859354D01*
X60706000Y-62782840D01*
X58674000Y-62782840D01*
X58321025Y-62849257D01*
X57996838Y-63057865D01*
X57779354Y-63376164D01*
X57702840Y-63754000D01*
X56027500Y-63754000D01*
X56027500Y-58101200D01*
X56196245Y-57252861D01*
X56619466Y-56619466D01*
X57252861Y-56196245D01*
X58101200Y-56027500D01*
X101898800Y-56027500D01*
X102747139Y-56196245D01*
X102747139Y-56196245D01*
G37*
X102747139Y-56196245D02*
X103380534Y-56619466D01*
X103803755Y-57252861D01*
X103972500Y-58101200D01*
X103972500Y-101898800D01*
X103803755Y-102747139D01*
X103380534Y-103380534D01*
X102747139Y-103803755D01*
X101898800Y-103972500D01*
X79067838Y-103972500D01*
X79342430Y-103698387D01*
X79565246Y-103161786D01*
X79565445Y-102933370D01*
X79717805Y-102781010D01*
X79717808Y-102781008D01*
X79933862Y-102457659D01*
X79951380Y-102431442D01*
X80032214Y-102025060D01*
X80454500Y-102025060D01*
X80807475Y-101958643D01*
X81131662Y-101750035D01*
X81349146Y-101431736D01*
X81425660Y-101053900D01*
X81425660Y-100330000D01*
X86892935Y-100330000D01*
X87042778Y-101083312D01*
X87469495Y-101721940D01*
X88108123Y-102148657D01*
X88861435Y-102298500D01*
X88938565Y-102298500D01*
X89691877Y-102148657D01*
X90330505Y-101721940D01*
X90757222Y-101083312D01*
X90907065Y-100330000D01*
X90757222Y-99576688D01*
X90650923Y-99417599D01*
X90810646Y-99183836D01*
X90887160Y-98806000D01*
X90887160Y-96774000D01*
X90820743Y-96421025D01*
X90612135Y-96096838D01*
X90293836Y-95879354D01*
X89916000Y-95802840D01*
X87884000Y-95802840D01*
X87531025Y-95869257D01*
X87206838Y-96077865D01*
X86989354Y-96396164D01*
X86912840Y-96774000D01*
X86912840Y-98806000D01*
X86979257Y-99158975D01*
X87147345Y-99420192D01*
X87042778Y-99576688D01*
X86892935Y-100330000D01*
X81425660Y-100330000D01*
X81425660Y-99555300D01*
X81359243Y-99202325D01*
X81150635Y-98878138D01*
X80832336Y-98660654D01*
X80454500Y-98584140D01*
X79817500Y-98584140D01*
X79817500Y-93381154D01*
X79992282Y-92960231D01*
X79992717Y-92461955D01*
X79802437Y-92001443D01*
X79479928Y-91678370D01*
X80154780Y-91678370D01*
X80507755Y-91611953D01*
X80831942Y-91403345D01*
X81049426Y-91085046D01*
X81125940Y-90707210D01*
X81125940Y-89307670D01*
X81059523Y-88954695D01*
X80850915Y-88630508D01*
X80532616Y-88413024D01*
X80528662Y-88412223D01*
X80437437Y-88191443D01*
X80085411Y-87838801D01*
X79625231Y-87647718D01*
X79126955Y-87647283D01*
X78666443Y-87837563D01*
X78313801Y-88189589D01*
X78244008Y-88357669D01*
X78003485Y-88402927D01*
X77912500Y-88461474D01*
X77912500Y-88301154D01*
X78087282Y-87880231D01*
X78087717Y-87381955D01*
X77897437Y-86921443D01*
X77545411Y-86568801D01*
X77085231Y-86377718D01*
X76642500Y-86377331D01*
X76642500Y-80046154D01*
X76817282Y-79625231D01*
X76817717Y-79126955D01*
X76668446Y-78765692D01*
X94067076Y-78765692D01*
X94439660Y-79667415D01*
X95128957Y-80357916D01*
X96030027Y-80732073D01*
X97005692Y-80732924D01*
X97907415Y-80360340D01*
X98597916Y-79671043D01*
X98972073Y-78769973D01*
X98972924Y-77794308D01*
X98600340Y-76892585D01*
X97911043Y-76202084D01*
X97009973Y-75827927D01*
X96034308Y-75827076D01*
X95132585Y-76199660D01*
X94442084Y-76888957D01*
X94067927Y-77790027D01*
X94067076Y-78765692D01*
X76668446Y-78765692D01*
X76627437Y-78666443D01*
X76275411Y-78313801D01*
X75815231Y-78122718D01*
X75316955Y-78122283D01*
X74856443Y-78312563D01*
X74503801Y-78664589D01*
X74312718Y-79124769D01*
X74312283Y-79623045D01*
X74487500Y-80047102D01*
X74487500Y-87956095D01*
X74370411Y-87838801D01*
X73910231Y-87647718D01*
X73411955Y-87647283D01*
X72951443Y-87837563D01*
X72832500Y-87956298D01*
X72832500Y-87031154D01*
X73007282Y-86610231D01*
X73007717Y-86111955D01*
X72817437Y-85651443D01*
X72465411Y-85298801D01*
X72005231Y-85107718D01*
X71506955Y-85107283D01*
X71046443Y-85297563D01*
X70693801Y-85649589D01*
X70502718Y-86109769D01*
X70502283Y-86608045D01*
X70677500Y-87032102D01*
X70677500Y-97154995D01*
X70677499Y-97155000D01*
X70759520Y-97567342D01*
X70993092Y-97916908D01*
X71707497Y-98631313D01*
X71605225Y-98650557D01*
X71281038Y-98859165D01*
X71063554Y-99177464D01*
X70987040Y-99555300D01*
X70987040Y-101053900D01*
X71053457Y-101406875D01*
X71262065Y-101731062D01*
X71580364Y-101948546D01*
X71958200Y-102025060D01*
X72381937Y-102025060D01*
X72461320Y-102424142D01*
X72694892Y-102773708D01*
X72854444Y-102933260D01*
X72854247Y-103159237D01*
X73076126Y-103696226D01*
X73351918Y-103972500D01*
X58101200Y-103972500D01*
X57252861Y-103803755D01*
X56619466Y-103380534D01*
X56196245Y-102747139D01*
X56027500Y-101898800D01*
X56027500Y-92710000D01*
X57682935Y-92710000D01*
X57832778Y-93463312D01*
X58259495Y-94101940D01*
X58898123Y-94528657D01*
X59651435Y-94678500D01*
X59728565Y-94678500D01*
X60481877Y-94528657D01*
X61120505Y-94101940D01*
X61547222Y-93463312D01*
X61697065Y-92710000D01*
X61547222Y-91956688D01*
X61440923Y-91797599D01*
X61600646Y-91563836D01*
X61677160Y-91186000D01*
X61677160Y-89154000D01*
X61610743Y-88801025D01*
X61402135Y-88476838D01*
X61083836Y-88259354D01*
X60706000Y-88182840D01*
X58674000Y-88182840D01*
X58321025Y-88249257D01*
X57996838Y-88457865D01*
X57779354Y-88776164D01*
X57702840Y-89154000D01*
X57702840Y-91186000D01*
X57769257Y-91538975D01*
X57937345Y-91800192D01*
X57832778Y-91956688D01*
X57682935Y-92710000D01*
X56027500Y-92710000D01*
X56027500Y-74930000D01*
X57682935Y-74930000D01*
X57821177Y-75624991D01*
X58205385Y-76200000D01*
X57821177Y-76775009D01*
X57682935Y-77470000D01*
X57821177Y-78164991D01*
X58205385Y-78740000D01*
X57821177Y-79315009D01*
X57682935Y-80010000D01*
X57821177Y-80704991D01*
X58205385Y-81280000D01*
X57821177Y-81855009D01*
X57682935Y-82550000D01*
X57821177Y-83244991D01*
X58205385Y-83820000D01*
X57821177Y-84395009D01*
X57682935Y-85090000D01*
X57821177Y-85784991D01*
X58214858Y-86374177D01*
X58804044Y-86767858D01*
X59499035Y-86906100D01*
X59880965Y-86906100D01*
X60575956Y-86767858D01*
X61165142Y-86374177D01*
X61558823Y-85784991D01*
X61697065Y-85090000D01*
X61558823Y-84395009D01*
X61174615Y-83820000D01*
X61558823Y-83244991D01*
X61697065Y-82550000D01*
X61558823Y-81855009D01*
X61174615Y-81280000D01*
X61558823Y-80704991D01*
X61697065Y-80010000D01*
X61558823Y-79315009D01*
X61174615Y-78740000D01*
X61558823Y-78164991D01*
X61697065Y-77470000D01*
X61558823Y-76775009D01*
X61174615Y-76200000D01*
X61558823Y-75624991D01*
X61697065Y-74930000D01*
X61558823Y-74235009D01*
X61372705Y-73956464D01*
X61383162Y-73949735D01*
X61600646Y-73631436D01*
X61677160Y-73253600D01*
X61677160Y-71526400D01*
X61610743Y-71173425D01*
X61402135Y-70849238D01*
X61083836Y-70631754D01*
X60706000Y-70555240D01*
X58674000Y-70555240D01*
X58321025Y-70621657D01*
X57996838Y-70830265D01*
X57779354Y-71148564D01*
X57702840Y-71526400D01*
X57702840Y-73253600D01*
X57769257Y-73606575D01*
X57977865Y-73930762D01*
X58009861Y-73952624D01*
X57821177Y-74235009D01*
X57682935Y-74930000D01*
X56027500Y-74930000D01*
X56027500Y-67660621D01*
X57882187Y-67660621D01*
X57885617Y-67677890D01*
X58163753Y-68340393D01*
X58674246Y-68846028D01*
X59339378Y-69117817D01*
X59626500Y-68944034D01*
X59626500Y-67373500D01*
X59753500Y-67373500D01*
X59753500Y-68944034D01*
X60040622Y-69117817D01*
X60705754Y-68846028D01*
X61216247Y-68340393D01*
X61494383Y-67677890D01*
X61497813Y-67660621D01*
X61323892Y-67373500D01*
X59753500Y-67373500D01*
X59626500Y-67373500D01*
X58056108Y-67373500D01*
X57882187Y-67660621D01*
X56027500Y-67660621D01*
X56027500Y-63754000D01*
X57702840Y-63754000D01*
X57702840Y-65786000D01*
X57769257Y-66138975D01*
X57977865Y-66463162D01*
X58062433Y-66520945D01*
X57885617Y-66942110D01*
X57882187Y-66959379D01*
X58056108Y-67246500D01*
X59626500Y-67246500D01*
X59626500Y-67226500D01*
X59753500Y-67226500D01*
X59753500Y-67246500D01*
X61323892Y-67246500D01*
X61497813Y-66959379D01*
X61494383Y-66942110D01*
X61318690Y-66523621D01*
X61383162Y-66482135D01*
X61600646Y-66163836D01*
X61677160Y-65786000D01*
X61677160Y-65214035D01*
X73113900Y-65214035D01*
X73113900Y-65595965D01*
X73252142Y-66290956D01*
X73645823Y-66880142D01*
X74235009Y-67273823D01*
X74930000Y-67412065D01*
X75624991Y-67273823D01*
X76214177Y-66880142D01*
X76325976Y-66712823D01*
X76423845Y-66949684D01*
X77191276Y-67718456D01*
X78194487Y-68135025D01*
X79280747Y-68135973D01*
X80284684Y-67721155D01*
X81053456Y-66953724D01*
X81470025Y-65950513D01*
X81470973Y-64864253D01*
X81056155Y-63860316D01*
X80288724Y-63091544D01*
X79285513Y-62674975D01*
X78199253Y-62674027D01*
X77195316Y-63088845D01*
X76426544Y-63856276D01*
X76326307Y-64097673D01*
X76214177Y-63929858D01*
X75624991Y-63536177D01*
X74930000Y-63397935D01*
X74235009Y-63536177D01*
X73645823Y-63929858D01*
X73252142Y-64519044D01*
X73113900Y-65214035D01*
X61677160Y-65214035D01*
X61677160Y-63754000D01*
X61610743Y-63401025D01*
X61402135Y-63076838D01*
X61083836Y-62859354D01*
X60706000Y-62782840D01*
X58674000Y-62782840D01*
X58321025Y-62849257D01*
X57996838Y-63057865D01*
X57779354Y-63376164D01*
X57702840Y-63754000D01*
X56027500Y-63754000D01*
X56027500Y-58101200D01*
X56196245Y-57252861D01*
X56619466Y-56619466D01*
X57252861Y-56196245D01*
X58101200Y-56027500D01*
X101898800Y-56027500D01*
X102747139Y-56196245D01*
M02*
