M48
;DRILL file {KiCad 4.0.5+dfsg1-4} date Tue Apr 10 17:25:03 2018
;FORMAT={2:4/ absolute / inch / suppress leading zeros}
FMAT,2
INCH,TZ
T1C0.031
T2C0.040
T3C0.059
T4C0.080
T5C0.120
%
G90
G05
M72
T1
X31308Y-17791
X33277Y-17791
X44308Y-17791
X46277Y-17791
X57308Y-17791
X59277Y-17791
T2
X22469Y-18110
T3
X21469Y-21654
X22469Y-21654
X23469Y-21654
X27998Y-21654
X28998Y-21654
X29998Y-21654
X34528Y-21654
X35528Y-21654
X36528Y-21654
X41058Y-21654
X42058Y-21654
X43058Y-21654
X47588Y-21654
X48588Y-21654
X49588Y-21654
X54118Y-21654
X55118Y-21654
X56118Y-21654
X60648Y-21654
X61648Y-21654
X62648Y-21654
T4
X20969Y-18110
X23969Y-18110
T5
X19617Y-20866
X64499Y-20866
T0
M30
