G04 #@! TF.FileFunction,Copper,L1,Top,Signal*
%FSLAX46Y46*%
G04 Gerber Fmt 4.6, Leading zero omitted, Abs format (unit mm)*
G04 Created by KiCad (PCBNEW 4.0.5+dfsg1-4) date Tue Apr 10 17:25:00 2018*
%MOMM*%
%LPD*%
G01*
G04 APERTURE LIST*
%ADD10C,0.200000*%
%ADD11C,3.556000*%
%ADD12O,1.727200X2.032000*%
%ADD13R,1.300000X1.300000*%
%ADD14C,1.300000*%
%ADD15R,2.100000X3.000000*%
%ADD16C,0.127000*%
G04 APERTURE END LIST*
D10*
D11*
X53260000Y-46000000D03*
D12*
X57070000Y-46000000D03*
D11*
X60880000Y-46000000D03*
D13*
X79523000Y-45190000D03*
D14*
X84523000Y-45190000D03*
D13*
X112543000Y-45190000D03*
D14*
X117543000Y-45190000D03*
D13*
X145563000Y-45190000D03*
D14*
X150563000Y-45190000D03*
D15*
X154046000Y-55000000D03*
X156586000Y-55000000D03*
X159126000Y-55000000D03*
X142540000Y-55000000D03*
X140000000Y-55000000D03*
X137460000Y-55000000D03*
X120874000Y-55000000D03*
X123414000Y-55000000D03*
X125954000Y-55000000D03*
X109368000Y-55000000D03*
X106828000Y-55000000D03*
X104288000Y-55000000D03*
X87702000Y-55000000D03*
X90242000Y-55000000D03*
X92782000Y-55000000D03*
X76196000Y-55000000D03*
X73656000Y-55000000D03*
X71116000Y-55000000D03*
X54530000Y-55000000D03*
X57070000Y-55000000D03*
X59610000Y-55000000D03*
D11*
X49828000Y-53000000D03*
X163828000Y-53000000D03*
D16*
G36*
X59725094Y-44268292D02*
X59150310Y-44842073D01*
X58838855Y-45592139D01*
X58838147Y-46404298D01*
X59148292Y-47154906D01*
X59722073Y-47729690D01*
X60472139Y-48041145D01*
X61284298Y-48041853D01*
X62034906Y-47731708D01*
X62609690Y-47157927D01*
X62921145Y-46407861D01*
X62921853Y-45595702D01*
X62828971Y-45370909D01*
X83609341Y-45370909D01*
X83748120Y-45706780D01*
X84004868Y-45963976D01*
X84340496Y-46103342D01*
X84703909Y-46103659D01*
X85039780Y-45964880D01*
X85296976Y-45708132D01*
X85436342Y-45372504D01*
X85436343Y-45370909D01*
X116629341Y-45370909D01*
X116768120Y-45706780D01*
X117024868Y-45963976D01*
X117360496Y-46103342D01*
X117723909Y-46103659D01*
X118059780Y-45964880D01*
X118316976Y-45708132D01*
X118456342Y-45372504D01*
X118456343Y-45370909D01*
X149649341Y-45370909D01*
X149788120Y-45706780D01*
X150044868Y-45963976D01*
X150380496Y-46103342D01*
X150743909Y-46103659D01*
X151079780Y-45964880D01*
X151336976Y-45708132D01*
X151476342Y-45372504D01*
X151476659Y-45009091D01*
X151337880Y-44673220D01*
X151081132Y-44416024D01*
X150745504Y-44276658D01*
X150382091Y-44276341D01*
X150046220Y-44415120D01*
X149789024Y-44671868D01*
X149649658Y-45007496D01*
X149649341Y-45370909D01*
X118456343Y-45370909D01*
X118456659Y-45009091D01*
X118317880Y-44673220D01*
X118061132Y-44416024D01*
X117725504Y-44276658D01*
X117362091Y-44276341D01*
X117026220Y-44415120D01*
X116769024Y-44671868D01*
X116629658Y-45007496D01*
X116629341Y-45370909D01*
X85436343Y-45370909D01*
X85436659Y-45009091D01*
X85297880Y-44673220D01*
X85041132Y-44416024D01*
X84705504Y-44276658D01*
X84342091Y-44276341D01*
X84006220Y-44415120D01*
X83749024Y-44671868D01*
X83609658Y-45007496D01*
X83609341Y-45370909D01*
X62828971Y-45370909D01*
X62611708Y-44845094D01*
X62037927Y-44270310D01*
X62026343Y-44265500D01*
X164801853Y-44265500D01*
X165489774Y-44402336D01*
X166050799Y-44777201D01*
X166425664Y-45338227D01*
X166562500Y-46026151D01*
X166562500Y-53973849D01*
X166425664Y-54661773D01*
X166050799Y-55222799D01*
X165489774Y-55597664D01*
X164801853Y-55734500D01*
X160444662Y-55734500D01*
X160444662Y-53500000D01*
X160426654Y-53404298D01*
X161786147Y-53404298D01*
X162096292Y-54154906D01*
X162670073Y-54729690D01*
X163420139Y-55041145D01*
X164232298Y-55041853D01*
X164982906Y-54731708D01*
X165557690Y-54157927D01*
X165869145Y-53407861D01*
X165869853Y-52595702D01*
X165559708Y-51845094D01*
X164985927Y-51270310D01*
X164235861Y-50958855D01*
X163423702Y-50958147D01*
X162673094Y-51268292D01*
X162098310Y-51842073D01*
X161786855Y-52592139D01*
X161786147Y-53404298D01*
X160426654Y-53404298D01*
X160426288Y-53402353D01*
X160368579Y-53312670D01*
X160280525Y-53252505D01*
X160176000Y-53231338D01*
X158076000Y-53231338D01*
X157978353Y-53249712D01*
X157888670Y-53307421D01*
X157855984Y-53355259D01*
X157828579Y-53312670D01*
X157740525Y-53252505D01*
X157636000Y-53231338D01*
X155536000Y-53231338D01*
X155438353Y-53249712D01*
X155348670Y-53307421D01*
X155288505Y-53395475D01*
X155267338Y-53500000D01*
X155267338Y-55734500D01*
X141318662Y-55734500D01*
X141318662Y-53500000D01*
X141300288Y-53402353D01*
X141242579Y-53312670D01*
X141154525Y-53252505D01*
X141050000Y-53231338D01*
X138950000Y-53231338D01*
X138852353Y-53249712D01*
X138762670Y-53307421D01*
X138729984Y-53355259D01*
X138702579Y-53312670D01*
X138614525Y-53252505D01*
X138510000Y-53231338D01*
X136410000Y-53231338D01*
X136312353Y-53249712D01*
X136222670Y-53307421D01*
X136162505Y-53395475D01*
X136141338Y-53500000D01*
X136141338Y-55734500D01*
X127272662Y-55734500D01*
X127272662Y-53500000D01*
X127254288Y-53402353D01*
X127196579Y-53312670D01*
X127108525Y-53252505D01*
X127004000Y-53231338D01*
X124904000Y-53231338D01*
X124806353Y-53249712D01*
X124716670Y-53307421D01*
X124683984Y-53355259D01*
X124656579Y-53312670D01*
X124568525Y-53252505D01*
X124464000Y-53231338D01*
X122364000Y-53231338D01*
X122266353Y-53249712D01*
X122176670Y-53307421D01*
X122116505Y-53395475D01*
X122095338Y-53500000D01*
X122095338Y-55734500D01*
X108146662Y-55734500D01*
X108146662Y-53500000D01*
X108128288Y-53402353D01*
X108070579Y-53312670D01*
X107982525Y-53252505D01*
X107878000Y-53231338D01*
X105778000Y-53231338D01*
X105680353Y-53249712D01*
X105590670Y-53307421D01*
X105557984Y-53355259D01*
X105530579Y-53312670D01*
X105442525Y-53252505D01*
X105338000Y-53231338D01*
X103238000Y-53231338D01*
X103140353Y-53249712D01*
X103050670Y-53307421D01*
X102990505Y-53395475D01*
X102969338Y-53500000D01*
X102969338Y-55734500D01*
X94100662Y-55734500D01*
X94100662Y-53500000D01*
X94082288Y-53402353D01*
X94024579Y-53312670D01*
X93936525Y-53252505D01*
X93832000Y-53231338D01*
X91732000Y-53231338D01*
X91634353Y-53249712D01*
X91544670Y-53307421D01*
X91511984Y-53355259D01*
X91484579Y-53312670D01*
X91396525Y-53252505D01*
X91292000Y-53231338D01*
X89192000Y-53231338D01*
X89094353Y-53249712D01*
X89004670Y-53307421D01*
X88944505Y-53395475D01*
X88923338Y-53500000D01*
X88923338Y-55734500D01*
X74974662Y-55734500D01*
X74974662Y-53500000D01*
X74956288Y-53402353D01*
X74898579Y-53312670D01*
X74810525Y-53252505D01*
X74706000Y-53231338D01*
X72606000Y-53231338D01*
X72508353Y-53249712D01*
X72418670Y-53307421D01*
X72385984Y-53355259D01*
X72358579Y-53312670D01*
X72270525Y-53252505D01*
X72166000Y-53231338D01*
X70066000Y-53231338D01*
X69968353Y-53249712D01*
X69878670Y-53307421D01*
X69818505Y-53395475D01*
X69797338Y-53500000D01*
X69797338Y-55734500D01*
X60928662Y-55734500D01*
X60928662Y-53500000D01*
X60910288Y-53402353D01*
X60852579Y-53312670D01*
X60764525Y-53252505D01*
X60660000Y-53231338D01*
X58560000Y-53231338D01*
X58462353Y-53249712D01*
X58372670Y-53307421D01*
X58339984Y-53355259D01*
X58312579Y-53312670D01*
X58224525Y-53252505D01*
X58120000Y-53231338D01*
X56020000Y-53231338D01*
X55922353Y-53249712D01*
X55832670Y-53307421D01*
X55772505Y-53395475D01*
X55751338Y-53500000D01*
X55751338Y-55734500D01*
X48854151Y-55734500D01*
X48166227Y-55597664D01*
X47605201Y-55222799D01*
X47230336Y-54661774D01*
X47093500Y-53973853D01*
X47093500Y-53404298D01*
X47786147Y-53404298D01*
X48096292Y-54154906D01*
X48670073Y-54729690D01*
X49420139Y-55041145D01*
X50232298Y-55041853D01*
X50982906Y-54731708D01*
X51557690Y-54157927D01*
X51869145Y-53407861D01*
X51869853Y-52595702D01*
X51559708Y-51845094D01*
X50985927Y-51270310D01*
X50235861Y-50958855D01*
X49423702Y-50958147D01*
X48673094Y-51268292D01*
X48098310Y-51842073D01*
X47786855Y-52592139D01*
X47786147Y-53404298D01*
X47093500Y-53404298D01*
X47093500Y-46026147D01*
X47134001Y-45822533D01*
X55942900Y-45822533D01*
X55942900Y-46177467D01*
X56028695Y-46608789D01*
X56273020Y-46974447D01*
X56638678Y-47218772D01*
X57070000Y-47304567D01*
X57501322Y-47218772D01*
X57866980Y-46974447D01*
X58111305Y-46608789D01*
X58197100Y-46177467D01*
X58197100Y-45822533D01*
X58111305Y-45391211D01*
X57866980Y-45025553D01*
X57501322Y-44781228D01*
X57070000Y-44695433D01*
X56638678Y-44781228D01*
X56273020Y-45025553D01*
X56028695Y-45391211D01*
X55942900Y-45822533D01*
X47134001Y-45822533D01*
X47230336Y-45338226D01*
X47605201Y-44777201D01*
X48166227Y-44402336D01*
X48854151Y-44265500D01*
X59731851Y-44265500D01*
X59725094Y-44268292D01*
X59725094Y-44268292D01*
G37*
X59725094Y-44268292D02*
X59150310Y-44842073D01*
X58838855Y-45592139D01*
X58838147Y-46404298D01*
X59148292Y-47154906D01*
X59722073Y-47729690D01*
X60472139Y-48041145D01*
X61284298Y-48041853D01*
X62034906Y-47731708D01*
X62609690Y-47157927D01*
X62921145Y-46407861D01*
X62921853Y-45595702D01*
X62828971Y-45370909D01*
X83609341Y-45370909D01*
X83748120Y-45706780D01*
X84004868Y-45963976D01*
X84340496Y-46103342D01*
X84703909Y-46103659D01*
X85039780Y-45964880D01*
X85296976Y-45708132D01*
X85436342Y-45372504D01*
X85436343Y-45370909D01*
X116629341Y-45370909D01*
X116768120Y-45706780D01*
X117024868Y-45963976D01*
X117360496Y-46103342D01*
X117723909Y-46103659D01*
X118059780Y-45964880D01*
X118316976Y-45708132D01*
X118456342Y-45372504D01*
X118456343Y-45370909D01*
X149649341Y-45370909D01*
X149788120Y-45706780D01*
X150044868Y-45963976D01*
X150380496Y-46103342D01*
X150743909Y-46103659D01*
X151079780Y-45964880D01*
X151336976Y-45708132D01*
X151476342Y-45372504D01*
X151476659Y-45009091D01*
X151337880Y-44673220D01*
X151081132Y-44416024D01*
X150745504Y-44276658D01*
X150382091Y-44276341D01*
X150046220Y-44415120D01*
X149789024Y-44671868D01*
X149649658Y-45007496D01*
X149649341Y-45370909D01*
X118456343Y-45370909D01*
X118456659Y-45009091D01*
X118317880Y-44673220D01*
X118061132Y-44416024D01*
X117725504Y-44276658D01*
X117362091Y-44276341D01*
X117026220Y-44415120D01*
X116769024Y-44671868D01*
X116629658Y-45007496D01*
X116629341Y-45370909D01*
X85436343Y-45370909D01*
X85436659Y-45009091D01*
X85297880Y-44673220D01*
X85041132Y-44416024D01*
X84705504Y-44276658D01*
X84342091Y-44276341D01*
X84006220Y-44415120D01*
X83749024Y-44671868D01*
X83609658Y-45007496D01*
X83609341Y-45370909D01*
X62828971Y-45370909D01*
X62611708Y-44845094D01*
X62037927Y-44270310D01*
X62026343Y-44265500D01*
X164801853Y-44265500D01*
X165489774Y-44402336D01*
X166050799Y-44777201D01*
X166425664Y-45338227D01*
X166562500Y-46026151D01*
X166562500Y-53973849D01*
X166425664Y-54661773D01*
X166050799Y-55222799D01*
X165489774Y-55597664D01*
X164801853Y-55734500D01*
X160444662Y-55734500D01*
X160444662Y-53500000D01*
X160426654Y-53404298D01*
X161786147Y-53404298D01*
X162096292Y-54154906D01*
X162670073Y-54729690D01*
X163420139Y-55041145D01*
X164232298Y-55041853D01*
X164982906Y-54731708D01*
X165557690Y-54157927D01*
X165869145Y-53407861D01*
X165869853Y-52595702D01*
X165559708Y-51845094D01*
X164985927Y-51270310D01*
X164235861Y-50958855D01*
X163423702Y-50958147D01*
X162673094Y-51268292D01*
X162098310Y-51842073D01*
X161786855Y-52592139D01*
X161786147Y-53404298D01*
X160426654Y-53404298D01*
X160426288Y-53402353D01*
X160368579Y-53312670D01*
X160280525Y-53252505D01*
X160176000Y-53231338D01*
X158076000Y-53231338D01*
X157978353Y-53249712D01*
X157888670Y-53307421D01*
X157855984Y-53355259D01*
X157828579Y-53312670D01*
X157740525Y-53252505D01*
X157636000Y-53231338D01*
X155536000Y-53231338D01*
X155438353Y-53249712D01*
X155348670Y-53307421D01*
X155288505Y-53395475D01*
X155267338Y-53500000D01*
X155267338Y-55734500D01*
X141318662Y-55734500D01*
X141318662Y-53500000D01*
X141300288Y-53402353D01*
X141242579Y-53312670D01*
X141154525Y-53252505D01*
X141050000Y-53231338D01*
X138950000Y-53231338D01*
X138852353Y-53249712D01*
X138762670Y-53307421D01*
X138729984Y-53355259D01*
X138702579Y-53312670D01*
X138614525Y-53252505D01*
X138510000Y-53231338D01*
X136410000Y-53231338D01*
X136312353Y-53249712D01*
X136222670Y-53307421D01*
X136162505Y-53395475D01*
X136141338Y-53500000D01*
X136141338Y-55734500D01*
X127272662Y-55734500D01*
X127272662Y-53500000D01*
X127254288Y-53402353D01*
X127196579Y-53312670D01*
X127108525Y-53252505D01*
X127004000Y-53231338D01*
X124904000Y-53231338D01*
X124806353Y-53249712D01*
X124716670Y-53307421D01*
X124683984Y-53355259D01*
X124656579Y-53312670D01*
X124568525Y-53252505D01*
X124464000Y-53231338D01*
X122364000Y-53231338D01*
X122266353Y-53249712D01*
X122176670Y-53307421D01*
X122116505Y-53395475D01*
X122095338Y-53500000D01*
X122095338Y-55734500D01*
X108146662Y-55734500D01*
X108146662Y-53500000D01*
X108128288Y-53402353D01*
X108070579Y-53312670D01*
X107982525Y-53252505D01*
X107878000Y-53231338D01*
X105778000Y-53231338D01*
X105680353Y-53249712D01*
X105590670Y-53307421D01*
X105557984Y-53355259D01*
X105530579Y-53312670D01*
X105442525Y-53252505D01*
X105338000Y-53231338D01*
X103238000Y-53231338D01*
X103140353Y-53249712D01*
X103050670Y-53307421D01*
X102990505Y-53395475D01*
X102969338Y-53500000D01*
X102969338Y-55734500D01*
X94100662Y-55734500D01*
X94100662Y-53500000D01*
X94082288Y-53402353D01*
X94024579Y-53312670D01*
X93936525Y-53252505D01*
X93832000Y-53231338D01*
X91732000Y-53231338D01*
X91634353Y-53249712D01*
X91544670Y-53307421D01*
X91511984Y-53355259D01*
X91484579Y-53312670D01*
X91396525Y-53252505D01*
X91292000Y-53231338D01*
X89192000Y-53231338D01*
X89094353Y-53249712D01*
X89004670Y-53307421D01*
X88944505Y-53395475D01*
X88923338Y-53500000D01*
X88923338Y-55734500D01*
X74974662Y-55734500D01*
X74974662Y-53500000D01*
X74956288Y-53402353D01*
X74898579Y-53312670D01*
X74810525Y-53252505D01*
X74706000Y-53231338D01*
X72606000Y-53231338D01*
X72508353Y-53249712D01*
X72418670Y-53307421D01*
X72385984Y-53355259D01*
X72358579Y-53312670D01*
X72270525Y-53252505D01*
X72166000Y-53231338D01*
X70066000Y-53231338D01*
X69968353Y-53249712D01*
X69878670Y-53307421D01*
X69818505Y-53395475D01*
X69797338Y-53500000D01*
X69797338Y-55734500D01*
X60928662Y-55734500D01*
X60928662Y-53500000D01*
X60910288Y-53402353D01*
X60852579Y-53312670D01*
X60764525Y-53252505D01*
X60660000Y-53231338D01*
X58560000Y-53231338D01*
X58462353Y-53249712D01*
X58372670Y-53307421D01*
X58339984Y-53355259D01*
X58312579Y-53312670D01*
X58224525Y-53252505D01*
X58120000Y-53231338D01*
X56020000Y-53231338D01*
X55922353Y-53249712D01*
X55832670Y-53307421D01*
X55772505Y-53395475D01*
X55751338Y-53500000D01*
X55751338Y-55734500D01*
X48854151Y-55734500D01*
X48166227Y-55597664D01*
X47605201Y-55222799D01*
X47230336Y-54661774D01*
X47093500Y-53973853D01*
X47093500Y-53404298D01*
X47786147Y-53404298D01*
X48096292Y-54154906D01*
X48670073Y-54729690D01*
X49420139Y-55041145D01*
X50232298Y-55041853D01*
X50982906Y-54731708D01*
X51557690Y-54157927D01*
X51869145Y-53407861D01*
X51869853Y-52595702D01*
X51559708Y-51845094D01*
X50985927Y-51270310D01*
X50235861Y-50958855D01*
X49423702Y-50958147D01*
X48673094Y-51268292D01*
X48098310Y-51842073D01*
X47786855Y-52592139D01*
X47786147Y-53404298D01*
X47093500Y-53404298D01*
X47093500Y-46026147D01*
X47134001Y-45822533D01*
X55942900Y-45822533D01*
X55942900Y-46177467D01*
X56028695Y-46608789D01*
X56273020Y-46974447D01*
X56638678Y-47218772D01*
X57070000Y-47304567D01*
X57501322Y-47218772D01*
X57866980Y-46974447D01*
X58111305Y-46608789D01*
X58197100Y-46177467D01*
X58197100Y-45822533D01*
X58111305Y-45391211D01*
X57866980Y-45025553D01*
X57501322Y-44781228D01*
X57070000Y-44695433D01*
X56638678Y-44781228D01*
X56273020Y-45025553D01*
X56028695Y-45391211D01*
X55942900Y-45822533D01*
X47134001Y-45822533D01*
X47230336Y-45338226D01*
X47605201Y-44777201D01*
X48166227Y-44402336D01*
X48854151Y-44265500D01*
X59731851Y-44265500D01*
X59725094Y-44268292D01*
M02*
