G04 #@! TF.FileFunction,Legend,Top*
%FSLAX46Y46*%
G04 Gerber Fmt 4.6, Leading zero omitted, Abs format (unit mm)*
G04 Created by KiCad (PCBNEW 4.0.5+dfsg1-4) date Tue Apr 10 17:25:00 2018*
%MOMM*%
%LPD*%
G01*
G04 APERTURE LIST*
%ADD10C,0.200000*%
%ADD11C,0.150000*%
%ADD12C,0.050800*%
%ADD13C,0.254000*%
G04 APERTURE END LIST*
D10*
D11*
X82098000Y-40191000D02*
X82098000Y-50189000D01*
X82238000Y-40195000D02*
X82238000Y-50185000D01*
X82378000Y-40203000D02*
X82378000Y-50177000D01*
X82518000Y-40215000D02*
X82518000Y-50165000D01*
X82658000Y-40230000D02*
X82658000Y-50150000D01*
X82798000Y-40250000D02*
X82798000Y-50130000D01*
X82938000Y-40274000D02*
X82938000Y-50106000D01*
X83078000Y-40303000D02*
X83078000Y-50077000D01*
X83218000Y-40335000D02*
X83218000Y-50045000D01*
X83358000Y-40372000D02*
X83358000Y-50008000D01*
X83498000Y-40413000D02*
X83498000Y-49967000D01*
X83638000Y-40458000D02*
X83638000Y-44724000D01*
X83638000Y-45656000D02*
X83638000Y-49922000D01*
X83778000Y-40508000D02*
X83778000Y-44523000D01*
X83778000Y-45857000D02*
X83778000Y-49872000D01*
X83918000Y-40563000D02*
X83918000Y-44394000D01*
X83918000Y-45986000D02*
X83918000Y-49817000D01*
X84058000Y-40623000D02*
X84058000Y-44305000D01*
X84058000Y-46075000D02*
X84058000Y-49757000D01*
X84198000Y-40688000D02*
X84198000Y-44244000D01*
X84198000Y-46136000D02*
X84198000Y-49692000D01*
X84338000Y-40758000D02*
X84338000Y-44207000D01*
X84338000Y-46173000D02*
X84338000Y-49622000D01*
X84478000Y-40834000D02*
X84478000Y-44191000D01*
X84478000Y-46189000D02*
X84478000Y-49546000D01*
X84618000Y-40916000D02*
X84618000Y-44195000D01*
X84618000Y-46185000D02*
X84618000Y-49464000D01*
X84758000Y-41004000D02*
X84758000Y-44218000D01*
X84758000Y-46162000D02*
X84758000Y-49376000D01*
X84898000Y-41099000D02*
X84898000Y-44263000D01*
X84898000Y-46117000D02*
X84898000Y-49281000D01*
X85038000Y-41201000D02*
X85038000Y-44333000D01*
X85038000Y-46047000D02*
X85038000Y-49179000D01*
X85178000Y-41311000D02*
X85178000Y-44434000D01*
X85178000Y-45946000D02*
X85178000Y-49069000D01*
X85318000Y-41429000D02*
X85318000Y-44583000D01*
X85318000Y-45797000D02*
X85318000Y-48951000D01*
X85458000Y-41557000D02*
X85458000Y-44835000D01*
X85458000Y-45545000D02*
X85458000Y-48823000D01*
X85598000Y-41694000D02*
X85598000Y-48686000D01*
X85738000Y-41844000D02*
X85738000Y-48536000D01*
X85878000Y-42006000D02*
X85878000Y-48374000D01*
X86018000Y-42183000D02*
X86018000Y-48197000D01*
X86158000Y-42379000D02*
X86158000Y-48001000D01*
X86298000Y-42597000D02*
X86298000Y-47783000D01*
X86438000Y-42843000D02*
X86438000Y-47537000D01*
X86578000Y-43128000D02*
X86578000Y-47252000D01*
X86718000Y-43470000D02*
X86718000Y-46910000D01*
X86858000Y-43916000D02*
X86858000Y-46464000D01*
X86998000Y-44691000D02*
X86998000Y-45689000D01*
X85523000Y-45190000D02*
G75*
G03X85523000Y-45190000I-1000000J0D01*
G01*
X87060500Y-45190000D02*
G75*
G03X87060500Y-45190000I-5037500J0D01*
G01*
X115118000Y-40191000D02*
X115118000Y-50189000D01*
X115258000Y-40195000D02*
X115258000Y-50185000D01*
X115398000Y-40203000D02*
X115398000Y-50177000D01*
X115538000Y-40215000D02*
X115538000Y-50165000D01*
X115678000Y-40230000D02*
X115678000Y-50150000D01*
X115818000Y-40250000D02*
X115818000Y-50130000D01*
X115958000Y-40274000D02*
X115958000Y-50106000D01*
X116098000Y-40303000D02*
X116098000Y-50077000D01*
X116238000Y-40335000D02*
X116238000Y-50045000D01*
X116378000Y-40372000D02*
X116378000Y-50008000D01*
X116518000Y-40413000D02*
X116518000Y-49967000D01*
X116658000Y-40458000D02*
X116658000Y-44724000D01*
X116658000Y-45656000D02*
X116658000Y-49922000D01*
X116798000Y-40508000D02*
X116798000Y-44523000D01*
X116798000Y-45857000D02*
X116798000Y-49872000D01*
X116938000Y-40563000D02*
X116938000Y-44394000D01*
X116938000Y-45986000D02*
X116938000Y-49817000D01*
X117078000Y-40623000D02*
X117078000Y-44305000D01*
X117078000Y-46075000D02*
X117078000Y-49757000D01*
X117218000Y-40688000D02*
X117218000Y-44244000D01*
X117218000Y-46136000D02*
X117218000Y-49692000D01*
X117358000Y-40758000D02*
X117358000Y-44207000D01*
X117358000Y-46173000D02*
X117358000Y-49622000D01*
X117498000Y-40834000D02*
X117498000Y-44191000D01*
X117498000Y-46189000D02*
X117498000Y-49546000D01*
X117638000Y-40916000D02*
X117638000Y-44195000D01*
X117638000Y-46185000D02*
X117638000Y-49464000D01*
X117778000Y-41004000D02*
X117778000Y-44218000D01*
X117778000Y-46162000D02*
X117778000Y-49376000D01*
X117918000Y-41099000D02*
X117918000Y-44263000D01*
X117918000Y-46117000D02*
X117918000Y-49281000D01*
X118058000Y-41201000D02*
X118058000Y-44333000D01*
X118058000Y-46047000D02*
X118058000Y-49179000D01*
X118198000Y-41311000D02*
X118198000Y-44434000D01*
X118198000Y-45946000D02*
X118198000Y-49069000D01*
X118338000Y-41429000D02*
X118338000Y-44583000D01*
X118338000Y-45797000D02*
X118338000Y-48951000D01*
X118478000Y-41557000D02*
X118478000Y-44835000D01*
X118478000Y-45545000D02*
X118478000Y-48823000D01*
X118618000Y-41694000D02*
X118618000Y-48686000D01*
X118758000Y-41844000D02*
X118758000Y-48536000D01*
X118898000Y-42006000D02*
X118898000Y-48374000D01*
X119038000Y-42183000D02*
X119038000Y-48197000D01*
X119178000Y-42379000D02*
X119178000Y-48001000D01*
X119318000Y-42597000D02*
X119318000Y-47783000D01*
X119458000Y-42843000D02*
X119458000Y-47537000D01*
X119598000Y-43128000D02*
X119598000Y-47252000D01*
X119738000Y-43470000D02*
X119738000Y-46910000D01*
X119878000Y-43916000D02*
X119878000Y-46464000D01*
X120018000Y-44691000D02*
X120018000Y-45689000D01*
X118543000Y-45190000D02*
G75*
G03X118543000Y-45190000I-1000000J0D01*
G01*
X120080500Y-45190000D02*
G75*
G03X120080500Y-45190000I-5037500J0D01*
G01*
X148138000Y-40191000D02*
X148138000Y-50189000D01*
X148278000Y-40195000D02*
X148278000Y-50185000D01*
X148418000Y-40203000D02*
X148418000Y-50177000D01*
X148558000Y-40215000D02*
X148558000Y-50165000D01*
X148698000Y-40230000D02*
X148698000Y-50150000D01*
X148838000Y-40250000D02*
X148838000Y-50130000D01*
X148978000Y-40274000D02*
X148978000Y-50106000D01*
X149118000Y-40303000D02*
X149118000Y-50077000D01*
X149258000Y-40335000D02*
X149258000Y-50045000D01*
X149398000Y-40372000D02*
X149398000Y-50008000D01*
X149538000Y-40413000D02*
X149538000Y-49967000D01*
X149678000Y-40458000D02*
X149678000Y-44724000D01*
X149678000Y-45656000D02*
X149678000Y-49922000D01*
X149818000Y-40508000D02*
X149818000Y-44523000D01*
X149818000Y-45857000D02*
X149818000Y-49872000D01*
X149958000Y-40563000D02*
X149958000Y-44394000D01*
X149958000Y-45986000D02*
X149958000Y-49817000D01*
X150098000Y-40623000D02*
X150098000Y-44305000D01*
X150098000Y-46075000D02*
X150098000Y-49757000D01*
X150238000Y-40688000D02*
X150238000Y-44244000D01*
X150238000Y-46136000D02*
X150238000Y-49692000D01*
X150378000Y-40758000D02*
X150378000Y-44207000D01*
X150378000Y-46173000D02*
X150378000Y-49622000D01*
X150518000Y-40834000D02*
X150518000Y-44191000D01*
X150518000Y-46189000D02*
X150518000Y-49546000D01*
X150658000Y-40916000D02*
X150658000Y-44195000D01*
X150658000Y-46185000D02*
X150658000Y-49464000D01*
X150798000Y-41004000D02*
X150798000Y-44218000D01*
X150798000Y-46162000D02*
X150798000Y-49376000D01*
X150938000Y-41099000D02*
X150938000Y-44263000D01*
X150938000Y-46117000D02*
X150938000Y-49281000D01*
X151078000Y-41201000D02*
X151078000Y-44333000D01*
X151078000Y-46047000D02*
X151078000Y-49179000D01*
X151218000Y-41311000D02*
X151218000Y-44434000D01*
X151218000Y-45946000D02*
X151218000Y-49069000D01*
X151358000Y-41429000D02*
X151358000Y-44583000D01*
X151358000Y-45797000D02*
X151358000Y-48951000D01*
X151498000Y-41557000D02*
X151498000Y-44835000D01*
X151498000Y-45545000D02*
X151498000Y-48823000D01*
X151638000Y-41694000D02*
X151638000Y-48686000D01*
X151778000Y-41844000D02*
X151778000Y-48536000D01*
X151918000Y-42006000D02*
X151918000Y-48374000D01*
X152058000Y-42183000D02*
X152058000Y-48197000D01*
X152198000Y-42379000D02*
X152198000Y-48001000D01*
X152338000Y-42597000D02*
X152338000Y-47783000D01*
X152478000Y-42843000D02*
X152478000Y-47537000D01*
X152618000Y-43128000D02*
X152618000Y-47252000D01*
X152758000Y-43470000D02*
X152758000Y-46910000D01*
X152898000Y-43916000D02*
X152898000Y-46464000D01*
X153038000Y-44691000D02*
X153038000Y-45689000D01*
X151563000Y-45190000D02*
G75*
G03X151563000Y-45190000I-1000000J0D01*
G01*
X153100500Y-45190000D02*
G75*
G03X153100500Y-45190000I-5037500J0D01*
G01*
D12*
X52749000Y-53000000D02*
G75*
G03X52749000Y-53000000I-2921000J0D01*
G01*
X166749000Y-53000000D02*
G75*
G03X166749000Y-53000000I-2921000J0D01*
G01*
D13*
X50240429Y-52382762D02*
X50240429Y-52721428D01*
X50772619Y-52721428D02*
X49756619Y-52721428D01*
X49756619Y-52237619D01*
X50772619Y-51270000D02*
X50288810Y-51608666D01*
X50772619Y-51850571D02*
X49756619Y-51850571D01*
X49756619Y-51463524D01*
X49805000Y-51366762D01*
X49853381Y-51318381D01*
X49950143Y-51270000D01*
X50095286Y-51270000D01*
X50192048Y-51318381D01*
X50240429Y-51366762D01*
X50288810Y-51463524D01*
X50288810Y-51850571D01*
X49756619Y-50641047D02*
X49756619Y-50447524D01*
X49805000Y-50350762D01*
X49901762Y-50254000D01*
X50095286Y-50205619D01*
X50433952Y-50205619D01*
X50627476Y-50254000D01*
X50724238Y-50350762D01*
X50772619Y-50447524D01*
X50772619Y-50641047D01*
X50724238Y-50737809D01*
X50627476Y-50834571D01*
X50433952Y-50882952D01*
X50095286Y-50882952D01*
X49901762Y-50834571D01*
X49805000Y-50737809D01*
X49756619Y-50641047D01*
X50772619Y-49770190D02*
X49756619Y-49770190D01*
X50482333Y-49431524D01*
X49756619Y-49092857D01*
X50772619Y-49092857D01*
X50869381Y-48850952D02*
X50869381Y-48076857D01*
X50772619Y-47834952D02*
X49756619Y-47834952D01*
X50482333Y-47496286D01*
X49756619Y-47157619D01*
X50772619Y-47157619D01*
X50482333Y-46722190D02*
X50482333Y-46238381D01*
X50772619Y-46818952D02*
X49756619Y-46480285D01*
X50772619Y-46141619D01*
X50772619Y-45802952D02*
X49756619Y-45802952D01*
X50772619Y-45319142D02*
X49756619Y-45319142D01*
X50772619Y-44738571D01*
X49756619Y-44738571D01*
X55774001Y-49189619D02*
X55774001Y-48173619D01*
X56015906Y-48173619D01*
X56161048Y-48222000D01*
X56257810Y-48318762D01*
X56306191Y-48415524D01*
X56354572Y-48609048D01*
X56354572Y-48754190D01*
X56306191Y-48947714D01*
X56257810Y-49044476D01*
X56161048Y-49141238D01*
X56015906Y-49189619D01*
X55774001Y-49189619D01*
X56741620Y-48899333D02*
X57225429Y-48899333D01*
X56644858Y-49189619D02*
X56983525Y-48173619D01*
X57322191Y-49189619D01*
X57515715Y-48173619D02*
X58096286Y-48173619D01*
X57806001Y-49189619D02*
X57806001Y-48173619D01*
X58386572Y-48899333D02*
X58870381Y-48899333D01*
X58289810Y-49189619D02*
X58628477Y-48173619D01*
X58967143Y-49189619D01*
X60333905Y-48222000D02*
X60237143Y-48173619D01*
X60092000Y-48173619D01*
X59946858Y-48222000D01*
X59850096Y-48318762D01*
X59801715Y-48415524D01*
X59753334Y-48609048D01*
X59753334Y-48754190D01*
X59801715Y-48947714D01*
X59850096Y-49044476D01*
X59946858Y-49141238D01*
X60092000Y-49189619D01*
X60188762Y-49189619D01*
X60333905Y-49141238D01*
X60382286Y-49092857D01*
X60382286Y-48754190D01*
X60188762Y-48754190D01*
X60817715Y-49189619D02*
X60817715Y-48173619D01*
X61398286Y-49189619D01*
X61398286Y-48173619D01*
X61882096Y-49189619D02*
X61882096Y-48173619D01*
X62124001Y-48173619D01*
X62269143Y-48222000D01*
X62365905Y-48318762D01*
X62414286Y-48415524D01*
X62462667Y-48609048D01*
X62462667Y-48754190D01*
X62414286Y-48947714D01*
X62365905Y-49044476D01*
X62269143Y-49141238D01*
X62124001Y-49189619D01*
X61882096Y-49189619D01*
X51546715Y-48802571D02*
X52320810Y-48802571D01*
X51933762Y-49189619D02*
X51933762Y-48415524D01*
X53288429Y-48173619D02*
X52804620Y-48173619D01*
X52756239Y-48657429D01*
X52804620Y-48609048D01*
X52901382Y-48560667D01*
X53143286Y-48560667D01*
X53240048Y-48609048D01*
X53288429Y-48657429D01*
X53336810Y-48754190D01*
X53336810Y-48996095D01*
X53288429Y-49092857D01*
X53240048Y-49141238D01*
X53143286Y-49189619D01*
X52901382Y-49189619D01*
X52804620Y-49141238D01*
X52756239Y-49092857D01*
X53627096Y-48173619D02*
X53965763Y-49189619D01*
X54304429Y-48173619D01*
D11*
X81856334Y-39247143D02*
X81808715Y-39294762D01*
X81665858Y-39342381D01*
X81570620Y-39342381D01*
X81427762Y-39294762D01*
X81332524Y-39199524D01*
X81284905Y-39104286D01*
X81237286Y-38913810D01*
X81237286Y-38770952D01*
X81284905Y-38580476D01*
X81332524Y-38485238D01*
X81427762Y-38390000D01*
X81570620Y-38342381D01*
X81665858Y-38342381D01*
X81808715Y-38390000D01*
X81856334Y-38437619D01*
X82808715Y-39342381D02*
X82237286Y-39342381D01*
X82523000Y-39342381D02*
X82523000Y-38342381D01*
X82427762Y-38485238D01*
X82332524Y-38580476D01*
X82237286Y-38628095D01*
X114876334Y-39247143D02*
X114828715Y-39294762D01*
X114685858Y-39342381D01*
X114590620Y-39342381D01*
X114447762Y-39294762D01*
X114352524Y-39199524D01*
X114304905Y-39104286D01*
X114257286Y-38913810D01*
X114257286Y-38770952D01*
X114304905Y-38580476D01*
X114352524Y-38485238D01*
X114447762Y-38390000D01*
X114590620Y-38342381D01*
X114685858Y-38342381D01*
X114828715Y-38390000D01*
X114876334Y-38437619D01*
X115257286Y-38437619D02*
X115304905Y-38390000D01*
X115400143Y-38342381D01*
X115638239Y-38342381D01*
X115733477Y-38390000D01*
X115781096Y-38437619D01*
X115828715Y-38532857D01*
X115828715Y-38628095D01*
X115781096Y-38770952D01*
X115209667Y-39342381D01*
X115828715Y-39342381D01*
X147896334Y-39247143D02*
X147848715Y-39294762D01*
X147705858Y-39342381D01*
X147610620Y-39342381D01*
X147467762Y-39294762D01*
X147372524Y-39199524D01*
X147324905Y-39104286D01*
X147277286Y-38913810D01*
X147277286Y-38770952D01*
X147324905Y-38580476D01*
X147372524Y-38485238D01*
X147467762Y-38390000D01*
X147610620Y-38342381D01*
X147705858Y-38342381D01*
X147848715Y-38390000D01*
X147896334Y-38437619D01*
X148229667Y-38342381D02*
X148848715Y-38342381D01*
X148515381Y-38723333D01*
X148658239Y-38723333D01*
X148753477Y-38770952D01*
X148801096Y-38818571D01*
X148848715Y-38913810D01*
X148848715Y-39151905D01*
X148801096Y-39247143D01*
X148753477Y-39294762D01*
X148658239Y-39342381D01*
X148372524Y-39342381D01*
X148277286Y-39294762D01*
X148229667Y-39247143D01*
X155847905Y-52452381D02*
X155847905Y-51452381D01*
X156228858Y-51452381D01*
X156324096Y-51500000D01*
X156371715Y-51547619D01*
X156419334Y-51642857D01*
X156419334Y-51785714D01*
X156371715Y-51880952D01*
X156324096Y-51928571D01*
X156228858Y-51976190D01*
X155847905Y-51976190D01*
X156990762Y-51880952D02*
X156895524Y-51833333D01*
X156847905Y-51785714D01*
X156800286Y-51690476D01*
X156800286Y-51642857D01*
X156847905Y-51547619D01*
X156895524Y-51500000D01*
X156990762Y-51452381D01*
X157181239Y-51452381D01*
X157276477Y-51500000D01*
X157324096Y-51547619D01*
X157371715Y-51642857D01*
X157371715Y-51690476D01*
X157324096Y-51785714D01*
X157276477Y-51833333D01*
X157181239Y-51880952D01*
X156990762Y-51880952D01*
X156895524Y-51928571D01*
X156847905Y-51976190D01*
X156800286Y-52071429D01*
X156800286Y-52261905D01*
X156847905Y-52357143D01*
X156895524Y-52404762D01*
X156990762Y-52452381D01*
X157181239Y-52452381D01*
X157276477Y-52404762D01*
X157324096Y-52357143D01*
X157371715Y-52261905D01*
X157371715Y-52071429D01*
X157324096Y-51976190D01*
X157276477Y-51928571D01*
X157181239Y-51880952D01*
X139261905Y-52452381D02*
X139261905Y-51452381D01*
X139642858Y-51452381D01*
X139738096Y-51500000D01*
X139785715Y-51547619D01*
X139833334Y-51642857D01*
X139833334Y-51785714D01*
X139785715Y-51880952D01*
X139738096Y-51928571D01*
X139642858Y-51976190D01*
X139261905Y-51976190D01*
X140166667Y-51452381D02*
X140833334Y-51452381D01*
X140404762Y-52452381D01*
X122675905Y-52452381D02*
X122675905Y-51452381D01*
X123056858Y-51452381D01*
X123152096Y-51500000D01*
X123199715Y-51547619D01*
X123247334Y-51642857D01*
X123247334Y-51785714D01*
X123199715Y-51880952D01*
X123152096Y-51928571D01*
X123056858Y-51976190D01*
X122675905Y-51976190D01*
X124104477Y-51452381D02*
X123914000Y-51452381D01*
X123818762Y-51500000D01*
X123771143Y-51547619D01*
X123675905Y-51690476D01*
X123628286Y-51880952D01*
X123628286Y-52261905D01*
X123675905Y-52357143D01*
X123723524Y-52404762D01*
X123818762Y-52452381D01*
X124009239Y-52452381D01*
X124104477Y-52404762D01*
X124152096Y-52357143D01*
X124199715Y-52261905D01*
X124199715Y-52023810D01*
X124152096Y-51928571D01*
X124104477Y-51880952D01*
X124009239Y-51833333D01*
X123818762Y-51833333D01*
X123723524Y-51880952D01*
X123675905Y-51928571D01*
X123628286Y-52023810D01*
X106089905Y-52452381D02*
X106089905Y-51452381D01*
X106470858Y-51452381D01*
X106566096Y-51500000D01*
X106613715Y-51547619D01*
X106661334Y-51642857D01*
X106661334Y-51785714D01*
X106613715Y-51880952D01*
X106566096Y-51928571D01*
X106470858Y-51976190D01*
X106089905Y-51976190D01*
X107566096Y-51452381D02*
X107089905Y-51452381D01*
X107042286Y-51928571D01*
X107089905Y-51880952D01*
X107185143Y-51833333D01*
X107423239Y-51833333D01*
X107518477Y-51880952D01*
X107566096Y-51928571D01*
X107613715Y-52023810D01*
X107613715Y-52261905D01*
X107566096Y-52357143D01*
X107518477Y-52404762D01*
X107423239Y-52452381D01*
X107185143Y-52452381D01*
X107089905Y-52404762D01*
X107042286Y-52357143D01*
X89503905Y-52452381D02*
X89503905Y-51452381D01*
X89884858Y-51452381D01*
X89980096Y-51500000D01*
X90027715Y-51547619D01*
X90075334Y-51642857D01*
X90075334Y-51785714D01*
X90027715Y-51880952D01*
X89980096Y-51928571D01*
X89884858Y-51976190D01*
X89503905Y-51976190D01*
X90932477Y-51785714D02*
X90932477Y-52452381D01*
X90694381Y-51404762D02*
X90456286Y-52119048D01*
X91075334Y-52119048D01*
X72917905Y-52452381D02*
X72917905Y-51452381D01*
X73298858Y-51452381D01*
X73394096Y-51500000D01*
X73441715Y-51547619D01*
X73489334Y-51642857D01*
X73489334Y-51785714D01*
X73441715Y-51880952D01*
X73394096Y-51928571D01*
X73298858Y-51976190D01*
X72917905Y-51976190D01*
X73822667Y-51452381D02*
X74441715Y-51452381D01*
X74108381Y-51833333D01*
X74251239Y-51833333D01*
X74346477Y-51880952D01*
X74394096Y-51928571D01*
X74441715Y-52023810D01*
X74441715Y-52261905D01*
X74394096Y-52357143D01*
X74346477Y-52404762D01*
X74251239Y-52452381D01*
X73965524Y-52452381D01*
X73870286Y-52404762D01*
X73822667Y-52357143D01*
X61639905Y-55087381D02*
X61639905Y-54087381D01*
X62020858Y-54087381D01*
X62116096Y-54135000D01*
X62163715Y-54182619D01*
X62211334Y-54277857D01*
X62211334Y-54420714D01*
X62163715Y-54515952D01*
X62116096Y-54563571D01*
X62020858Y-54611190D01*
X61639905Y-54611190D01*
X62592286Y-54182619D02*
X62639905Y-54135000D01*
X62735143Y-54087381D01*
X62973239Y-54087381D01*
X63068477Y-54135000D01*
X63116096Y-54182619D01*
X63163715Y-54277857D01*
X63163715Y-54373095D01*
X63116096Y-54515952D01*
X62544667Y-55087381D01*
X63163715Y-55087381D01*
M02*
